<svg clip-rule="evenodd" fill-rule="evenodd" stroke-linejoin="round" stroke-miterlimit="1.414" version="1.1"
     viewBox="0 0 24 24" xmlns="http://www.w3.org/2000/svg">
    <path fill="#ef5350"
          d="M20,18H4V8H20M20,6H12L10,4H4C2.89,4 2,4.89 2,6V18A2,2 0 0,0 4,20H20A2,2 0 0,0 22,18V8C22,6.89 21.1,6 20,6Z"/>

    <path d="m11.375 11.618h3.0812v-3.0812h-3.0812zm4.6219 9.2438h3.0812v-3.0812h-3.0812zm-4.6219 0h3.0812v-3.0812h-3.0812zm0-4.6219h3.0812v-3.0812h-3.0812zm4.6219 0h3.0812v-3.0812h-3.0812zm4.6219-7.7031v3.0812h3.0812v-3.0812zm-4.6219 3.0812h3.0812v-3.0812h-3.0812zm4.6219 4.6219h3.0812v-3.0812h-3.0812zm0 4.6219h3.0812v-3.0812h-3.0812z"
          fill="#ffcdd2"/>
</svg>
