<!--
  - The MIT License (MIT)
  -
  - Copyright (c) 2015-2024 Elior "Mallowigi" Boukhobza
  -
  - Permission is hereby granted, free of charge, to any person obtaining a copy
  - of this software and associated documentation files (the "Software"), to deal
  - in the Software without restriction, including without limitation the rights
  - to use, copy, modify, merge, publish, distribute, sublicense, and/or sell
  - copies of the Software, and to permit persons to whom the Software is
  - furnished to do so, subject to the following conditions:
  -
  - The above copyright notice and this permission notice shall be included in all
  - copies or substantial portions of the Software.
  -
  - THE SOFTWARE IS PROVIDED "AS IS", WITHOUT WARRANTY OF ANY KIND, EXPRESS OR
  - IMPLIED, INCLUDING BUT NOT LIMITED TO THE WARRANTIES OF MERCHANTABILITY,
  - FITNESS FOR A PARTICULAR PURPOSE AND NONINFRINGEMENT. IN NO EVENT SHALL THE
  - AUTHORS OR COPYRIGHT HOLDERS BE LIABLE FOR ANY CLAIM, DAMAGES OR OTHER
  - LIABILITY, WHETHER IN AN ACTION OF CONTRACT, TORT OR OTHERWISE, ARISING FROM,
  - OUT OF OR IN CONNECTION WITH THE SOFTWARE OR THE USE OR OTHER DEALINGS IN THE
  - SOFTWARE.
  -
  -->

<svg xmlns="http://www.w3.org/2000/svg" width="16px" height="16px" viewBox="0 0 1000 1000" version="1.1">
    <g data-folderColor="Appwrite">
        <path
            d="M 154.315 143.008 C 122.009 147.731, 95.069 171.585, 85.757 203.715 L 83.500 211.500 83.500 476 L 83.500 740.500 85.760 748.299 C 90.010 762.962, 97.631 775.543, 108.635 786.061 C 119.952 796.878, 128.693 802.033, 143.693 806.738 L 152.500 809.500 322.813 809.772 L 493.126 810.045 484.581 800.448 C 473.936 788.491, 465.876 777.836, 458.698 766.233 C 452.660 756.472, 443.358 738.321, 440.513 730.750 L 438.728 726 302.864 726 L 167 726 167 518 L 167 310 500 310 L 833 310 833.017 399.250 L 833.034 488.500 839.096 496 C 855.948 516.850, 874.342 550.986, 879.953 571.826 C 880.590 574.191, 881.359 576.772, 881.662 577.563 C 882.133 578.788, 878.593 579, 857.607 579 L 833 579 833 595 L 833 611 875 611 L 917 611 916.983 455.250 C 916.968 326.574, 916.725 298.370, 915.583 293 C 908.740 260.812, 885.119 236.051, 853.590 228.016 C 845.810 226.033, 842.851 226, 673.086 226 L 500.491 226 458.500 184 L 416.509 142 288.004 142.125 C 217.327 142.193, 157.167 142.591, 154.315 143.008 M 580.500 730.605 C 594.688 743.417, 613.872 752.898, 633.847 756.969 C 643.571 758.950, 647.070 759, 777.327 759 L 910.839 759 912.424 754.229 C 914.669 747.469, 916.962 736.162, 916.983 731.750 L 917 728 827.500 728 C 768.500 728, 738 727.659, 738 727 C 738 726.341, 710.280 726.015, 656.750 726.045 L 575.500 726.090 580.500 730.605"
            stroke="none" fill="#FD366E" fill-rule="evenodd" />
        <path
            d="M 633.500 409.662 C 577.800 416.381, 529.829 439.227, 491.924 477.087 C 457.189 511.781, 434.782 555.158, 426.452 603.829 C 424.315 616.321, 424 621.243, 424 642.201 C 424 678.352, 428.012 700.499, 439.724 729 C 472.121 807.836, 540.788 862.286, 623.128 874.432 C 632.436 875.805, 653.656 876, 793.878 876 L 954 876 954 817.500 L 954 759 798.907 759 C 646.959 759, 643.612 758.959, 633.847 756.969 C 610.904 752.293, 591.988 742.111, 575.480 725.549 C 560.122 710.142, 549.810 692.104, 544.294 671 C 540.947 658.195, 540.089 637.425, 542.367 624.364 C 549.001 586.329, 571.628 555.626, 605.500 538.699 C 622.157 530.376, 637.631 526.794, 657 526.781 C 682.658 526.762, 705.941 534.276, 726 549.046 C 733.700 554.716, 747.282 568.499, 751.978 575.409 L 755.314 580.317 818.368 579.614 C 853.048 579.228, 881.543 578.790, 881.691 578.642 C 882.153 578.181, 877.431 563.882, 874.050 555.500 C 842.237 476.649, 771.086 421.609, 686.659 410.542 C 675.982 409.142, 642.414 408.586, 633.500 409.662 M 769.638 610.696 C 769.401 610.933, 769.830 613.800, 770.593 617.067 C 774.465 633.666, 774.056 654.631, 769.511 672.562 C 765.184 689.632, 752.184 712.906, 741.093 723.437 C 739.392 725.052, 738 726.740, 738 727.187 C 738 727.634, 786.600 728, 846 728 L 954 728 954 669.250 L 954 610.500 862.034 610.383 C 811.453 610.318, 769.874 610.459, 769.638 610.696"
            stroke="none" fill="#FAB1C6" fill-rule="evenodd" />
    </g>
</svg>