<!--
  - The MIT License (MIT)
  -
  - Copyright (c) 2015-2026 Elior "Mallowigi" Boukhobza
  -
  - Permission is hereby granted, free of charge, to any person obtaining a copy
  - of this software and associated documentation files (the "Software"), to deal
  - in the Software without restriction, including without limitation the rights
  - to use, copy, modify, merge, publish, distribute, sublicense, and/or sell
  - copies of the Software, and to permit persons to whom the Software is
  - furnished to do so, subject to the following conditions:
  -
  - The above copyright notice and this permission notice shall be included in all
  - copies or substantial portions of the Software.
  -
  - THE SOFTWARE IS PROVIDED "AS IS", WITHOUT WARRANTY OF ANY KIND, EXPRESS OR
  - IMPLIED, INCLUDING BUT NOT LIMITED TO THE WARRANTIES OF MERCHANTABILITY,
  - FITNESS FOR A PARTICULAR PURPOSE AND NONINFRINGEMENT. IN NO EVENT SHALL THE
  - AUTHORS OR COPYRIGHT HOLDERS BE LIABLE FOR ANY CLAIM, DAMAGES OR OTHER
  - LIABILITY, WHETHER IN AN ACTION OF CONTRACT, TORT OR OTHERWISE, ARISING FROM,
  - OUT OF OR IN CONNECTION WITH THE SOFTWARE OR THE USE OR OTHER DEALINGS IN THE
  - SOFTWARE.
  -
  -->

<svg viewBox="0 0 16 16" xmlns="http://www.w3.org/2000/svg" width="16px" height="16px">
  <path fill="#C51162" data-folderColor="Appwrite"
        d="M13.33,12H2.67V5.33H13.33m0-1.33h-5.33l-1.33-1.33H2.67c-.74,0-1.33,.59-1.33,1.33V12c0,.74,.6,1.33,1.33,1.33H13.33c.74,0,1.33-.6,1.33-1.33V5.33c0-.74-.6-1.33-1.33-1.33Z"/>
  <path
    transform="scale(0.666666667) translate(9,7)" data-folderIconColor="Appwrite"
    fill="#F48FB1"
    d="M 7 2 A 6 6 0 0 0 1 8 A 6 6 0 0 0 7 14 L 15 14 L 15 11 L 12.195312 11 L 7 11 A 3 3 0 0 1 4 8 A 3 3 0 0 1 7 5 A 3 3 0 0 1 9.2363281 6 L 12.65625 6 A 6 6 0 0 0 7 2 z M 9.828125 7 A 3 3 0 0 1 10 8 A 3 3 0 0 1 9.2363281 10 L 15 10 L 15 7 L 9.828125 7 z"
  />
</svg>