<!--
  - The MIT License (MIT)
  -
  - Copyright (c) 2015-2022 Elior "Mallowigi" Boukhobza
  -
  - Permission is hereby granted, free of charge, to any person obtaining a copy
  - of this software and associated documentation files (the "Software"), to deal
  - in the Software without restriction, including without limitation the rights
  - to use, copy, modify, merge, publish, distribute, sublicense, and/or sell
  - copies of the Software, and to permit persons to whom the Software is
  - furnished to do so, subject to the following conditions:
  -
  - The above copyright notice and this permission notice shall be included in all
  - copies or substantial portions of the Software.
  -
  - THE SOFTWARE IS PROVIDED "AS IS", WITHOUT WARRANTY OF ANY KIND, EXPRESS OR
  - IMPLIED, INCLUDING BUT NOT LIMITED TO THE WARRANTIES OF MERCHANTABILITY,
  - FITNESS FOR A PARTICULAR PURPOSE AND NONINFRINGEMENT. IN NO EVENT SHALL THE
  - AUTHORS OR COPYRIGHT HOLDERS BE LIABLE FOR ANY CLAIM, DAMAGES OR OTHER
  - LIABILITY, WHETHER IN AN ACTION OF CONTRACT, TORT OR OTHERWISE, ARISING FROM,
  - OUT OF OR IN CONNECTION WITH THE SOFTWARE OR THE USE OR OTHER DEALINGS IN THE
  - SOFTWARE.
  -
  -
  -->

<svg big="true" version="1.1" xmlns="http://www.w3.org/2000/svg" x="0px" y="0px"
     viewBox="0 0 24 24" width="16px" height="16px" xml:space="preserve">
    <path fill="#FFA000" folderColor="Cart"
          d="M20,18H4V8H20M20,6H12L10,4H4C2.89,4 2,4.89 2,6V18A2,2 0 0,0 4,20H20A2,2 0 0,0 22,18V8C22,6.89 21.1,6 20,6Z"/>

    <path fill="#FFECB3" folderIconColor="Cart" d="M17.3,9.3c-3.4,0-6.2,2.8-6.2,6.2c0,3.4,2.8,6.2,6.2,6.2s6.2-2.8,6.2-6.2C23.5,12.1,20.7,9.3,17.3,9.3z
	 M14.9,19.4c-0.4,0-0.8-0.4-0.8-0.8c0-0.4,0.4-0.8,0.8-0.8c0.4,0,0.8,0.3,0.8,0.8C15.7,19.1,15.4,19.4,14.9,19.4z M18.9,19.4
	c-0.4,0-0.8-0.3-0.8-0.8c0-0.4,0.3-0.8,0.8-0.8c0.4,0,0.8,0.3,0.8,0.8C19.7,19.1,19.3,19.4,18.9,19.4z M21.2,12.3
	c-0.2,0-0.5,0-0.7,0c-0.1,0-0.1,0-0.1,0.1c-0.4,0.9-0.9,1.9-1.3,2.8c0,0.1,0,0.1,0,0.1c0.2,0.3,0.3,0.6,0.5,0.9
	c0.1,0.1,0.1,0.3,0.1,0.4c0,0.5-0.3,0.8-0.8,0.8c-1.5,0-3.1,0-4.6,0c0,0-0.1,0-0.1,0c0-0.3,0-0.5,0-0.8c0,0,0.1,0,0.1,0
	c1.5,0,2.9,0,4.4,0c0.1,0,0.2-0.1,0.1-0.2c-0.1-0.2-0.2-0.3-0.3-0.5c0-0.1-0.1-0.1-0.1-0.1c-0.9,0-1.9,0-2.8,0
	c-0.3,0-0.6-0.1-0.8-0.5c-0.3-0.5-0.6-1-0.8-1.5c-0.2-0.3-0.4-0.7-0.5-1c-0.1-0.2,0-0.5,0.3-0.6c0,0,0.1,0,0.1,0c1.9,0,3.8,0,5.6,0
	c0.1,0,0.1,0,0.2-0.1c0.1-0.2,0.2-0.4,0.3-0.6c0-0.1,0.1-0.1,0.1-0.1c0.4,0,0.7,0,1.1,0c0,0,0.1,0,0.1,0
	C21.2,11.8,21.2,12.1,21.2,12.3z"/>
</svg>
