<!--
  - The MIT License (MIT)
  -
  - Copyright (c) 2015-2026 Elior "Mallowigi" Boukhobza
  -
  - Permission is hereby granted, free of charge, to any person obtaining a copy
  - of this software and associated documentation files (the "Software"), to deal
  - in the Software without restriction, including without limitation the rights
  - to use, copy, modify, merge, publish, distribute, sublicense, and/or sell
  - copies of the Software, and to permit persons to whom the Software is
  - furnished to do so, subject to the following conditions:
  -
  - The above copyright notice and this permission notice shall be included in all
  - copies or substantial portions of the Software.
  -
  - THE SOFTWARE IS PROVIDED "AS IS", WITHOUT WARRANTY OF ANY KIND, EXPRESS OR
  - IMPLIED, INCLUDING BUT NOT LIMITED TO THE WARRANTIES OF MERCHANTABILITY,
  - FITNESS FOR A PARTICULAR PURPOSE AND NONINFRINGEMENT. IN NO EVENT SHALL THE
  - AUTHORS OR COPYRIGHT HOLDERS BE LIABLE FOR ANY CLAIM, DAMAGES OR OTHER
  - LIABILITY, WHETHER IN AN ACTION OF CONTRACT, TORT OR OTHERWISE, ARISING FROM,
  - OUT OF OR IN CONNECTION WITH THE SOFTWARE OR THE USE OR OTHER DEALINGS IN THE
  - SOFTWARE.
  -
  -->

<svg version="1.1" viewBox="0 0 32 32" width="16px" height="16px" xml:space="preserve"
     xmlns="http://www.w3.org/2000/svg">
  <path fill="#5c6bc0" data-folderColor="ESLint"
        d="M20,18H4V8H20M20,6H12L10,4H4C2.89,4 2,4.89 2,6V18A2,2 0 0,0 4,20H20A2,2 0 0,0 22,18V8C22,6.89 21.1,6 20,6Z"/>
  <g transform="matrix(.75 0 0 .75 9.6102 7)" fill="#c5cae9" data-folderIconColor="ESLint">
    <path
      d="m9.853 4-6.6667 12 6.6667 12h13.333l6.6667-12-6.6667-12h-13.333zm6.6667 3.3333 8 3.3333v10.667l-8 3.3333-8-3.3333v-10.667l8-3.3333z"
      stroke-width="1.3333"/>
    <path d="m11.186 12.444v7.1111l5.3333 2.2222 5.3333-2.2222v-7.1111l-5.3333-2.2222z" stroke-width=".88889"/>
  </g>
</svg>