<!--
  - The MIT License (MIT)
  -
  - Copyright (c) 2015-2024 Elior "Mallowigi" Boukhobza
  -
  - Permission is hereby granted, free of charge, to any person obtaining a copy
  - of this software and associated documentation files (the "Software"), to deal
  - in the Software without restriction, including without limitation the rights
  - to use, copy, modify, merge, publish, distribute, sublicense, and/or sell
  - copies of the Software, and to permit persons to whom the Software is
  - furnished to do so, subject to the following conditions:
  -
  - The above copyright notice and this permission notice shall be included in all
  - copies or substantial portions of the Software.
  -
  - THE SOFTWARE IS PROVIDED "AS IS", WITHOUT WARRANTY OF ANY KIND, EXPRESS OR
  - IMPLIED, INCLUDING BUT NOT LIMITED TO THE WARRANTIES OF MERCHANTABILITY,
  - FITNESS FOR A PARTICULAR PURPOSE AND NONINFRINGEMENT. IN NO EVENT SHALL THE
  - AUTHORS OR COPYRIGHT HOLDERS BE LIABLE FOR ANY CLAIM, DAMAGES OR OTHER
  - LIABILITY, WHETHER IN AN ACTION OF CONTRACT, TORT OR OTHERWISE, ARISING FROM,
  - OUT OF OR IN CONNECTION WITH THE SOFTWARE OR THE USE OR OTHER DEALINGS IN THE
  - SOFTWARE.
  -
  -->

<svg version="1.1" xmlns="http://www.w3.org/2000/svg" width="16px" height="16px"
     viewBox="0 0 32 32" xml:space="preserve">
  <path fill="#F06292" data-folderColor="Favorites" transform="scale(1.3)"
        d="M20,18H4V8H20M20,6H12L10,4H4C2.89,4 2,4.89 2,6V18A2,2 0 0,0 4,20H20A2,2 0 0,0 22,18V8C22,6.89 21.1,6 20,6Z"/>
  <path fill="#EBEBEB" data-folderIconColor="Favorites" d="M31,18c0,0.2,0,0.5,0,0.7c-0.2,0.8-0.4,1.6-0.9,2.2c-0.5,0.7-1,1.4-1.6,2c-2.3,2.3-4.6,4.6-6.9,6.8
	h-0.1l-0.1,0.1c-0.3-0.3-0.5-0.6-0.8-0.9c-1.7-1.6-3.4-3.2-5-4.8c-1.1-1.1-2.1-2.3-2.7-3.7c-0.3-0.6-0.4-1.3-0.6-2
	c0-0.3,0-0.6,0-0.9l0.1-0.1c0.3-2.4,2.6-3.8,4.9-3.6c1.3,0.1,2.3,0.7,3.2,1.5c0.3,0.3,0.7,0.7,1.1,1c0.5-0.5,1-1,1.5-1.5
	c2.5-2.3,6.7-0.9,7.7,2.4C30.9,17.5,30.9,17.8,31,18z"/>
</svg>
