<!--
  - The MIT License (MIT)
  -
  - Copyright (c) 2015-2024 Elior "Mallowigi" Boukhobza
  -
  - Permission is hereby granted, free of charge, to any person obtaining a copy
  - of this software and associated documentation files (the "Software"), to deal
  - in the Software without restriction, including without limitation the rights
  - to use, copy, modify, merge, publish, distribute, sublicense, and/or sell
  - copies of the Software, and to permit persons to whom the Software is
  - furnished to do so, subject to the following conditions:
  -
  - The above copyright notice and this permission notice shall be included in all
  - copies or substantial portions of the Software.
  -
  - THE SOFTWARE IS PROVIDED "AS IS", WITHOUT WARRANTY OF ANY KIND, EXPRESS OR
  - IMPLIED, INCLUDING BUT NOT LIMITED TO THE WARRANTIES OF MERCHANTABILITY,
  - FITNESS FOR A PARTICULAR PURPOSE AND NONINFRINGEMENT. IN NO EVENT SHALL THE
  - AUTHORS OR COPYRIGHT HOLDERS BE LIABLE FOR ANY CLAIM, DAMAGES OR OTHER
  - LIABILITY, WHETHER IN AN ACTION OF CONTRACT, TORT OR OTHERWISE, ARISING FROM,
  - OUT OF OR IN CONNECTION WITH THE SOFTWARE OR THE USE OR OTHER DEALINGS IN THE
  - SOFTWARE.
  -
  -->

<svg xmlns="http://www.w3.org/2000/svg" viewBox="0 0 32 32" width="16px" height="16px">
    <path fill="#f44336" data-folderColor="Liquibase" transform="scale(1.25)"
          d="M20,18H4V8H20M20,6H12L10,4H4C2.89,4 2,4.89 2,6V18A2,2 0 0,0 4,20H20A2,2 0 0,0 22,18V8C22,6.89 21.1,6 20,6Z"/>
    <path fill="#ffcdd2" data-folderIconColor="Liquibase"
          d="M23 12a7 3 0 0 0-7 3 7 3 0 0 0 7 3 7 3 0 0 0 7-3 7 3 0 0 0-7-3zm7 5c-.222.2-.438.417-.703.582-.84.466-1.767.724-2.701.957-1.639.41-3.069.673-5.645 1.363-1.232.33-3.29 1.07-4.305 2.494-.686.961-.644 2.116-.646 2.604.438-.29.91-.82 3.26-1.51a60.597 60.597 0 0 1 3.146-.777c.785-.175 1.57-.329 2.354-.516 2.854-.697 3.632-1.07 4.326-1.539.608-.413.916-.91.914-1.658 0 0-.024-1.342 0-2zm0 4.453c-1.39.78-2.246 1.215-4.326 1.682-1.767.4-3.53.81-5.295 1.22-1.188.282-3.556.975-4.18 2.145-.287.536-.296 1.164.168 1.643.05.05.56.524.738.586 0 0 .218-.106.836-.393 1.16-.536 2.397-.858 3.64-1.162 1.825-.425 3.66-.818 5.45-1.383.819-.252 1.605-.582 2.26-1.13C29.755 24.271 30 24 30 23v-1.547zm0 4.147s-.505.507-2.014 1.076c-3.774 1.303-5.957 1.324-8.96 2.474-.15.058-.388.147-.532.211.124.05.717.236.711.229.96.243 2.365.416 3.795.41.534-.013 4.287.128 6.164-1.39.384-.34.833-.61.836-1.61v-1.4z"/>
</svg>
