<!--
  - The MIT License (MIT)
  -
  - Copyright (c) 2015-2024 Elior "Mallowigi" Boukhobza
  -
  - Permission is hereby granted, free of charge, to any person obtaining a copy
  - of this software and associated documentation files (the "Software"), to deal
  - in the Software without restriction, including without limitation the rights
  - to use, copy, modify, merge, publish, distribute, sublicense, and/or sell
  - copies of the Software, and to permit persons to whom the Software is
  - furnished to do so, subject to the following conditions:
  -
  - The above copyright notice and this permission notice shall be included in all
  - copies or substantial portions of the Software.
  -
  - THE SOFTWARE IS PROVIDED "AS IS", WITHOUT WARRANTY OF ANY KIND, EXPRESS OR
  - IMPLIED, INCLUDING BUT NOT LIMITED TO THE WARRANTIES OF MERCHANTABILITY,
  - FITNESS FOR A PARTICULAR PURPOSE AND NONINFRINGEMENT. IN NO EVENT SHALL THE
  - AUTHORS OR COPYRIGHT HOLDERS BE LIABLE FOR ANY CLAIM, DAMAGES OR OTHER
  - LIABILITY, WHETHER IN AN ACTION OF CONTRACT, TORT OR OTHERWISE, ARISING FROM,
  - OUT OF OR IN CONNECTION WITH THE SOFTWARE OR THE USE OR OTHER DEALINGS IN THE
  - SOFTWARE.
  -
  -->

<svg  width="16px" height="16px" clip-rule="evenodd" fill-rule="evenodd" stroke-linejoin="round" stroke-miterlimit="1.414"
     version="1.1" viewBox="0 0 24 24"
     xml:space="preserve" xmlns="http://www.w3.org/2000/svg">
  <path fill="#9575cd" data-folderColor="PDM"
        d="M20,18H4V8H20M20,6H12L10,4H4C2.89,4 2,4.89 2,6V18A2,2 0 0,0 4,20H20A2,2 0 0,0 22,18V8C22,6.89 21.1,6 20,6Z"/>
  <path
      d="m20.243 11.194 1.6258 0.93981a0.31781 0.31781 0 0 1 0.15943 0.27481v4.5207a0.31781 0.31781 0 0 1-0.15838 0.27376l-0.98806 0.5706-0.1416-0.08076-0.49718-0.2874zm-6.0028 4.2124 5.3703 3.1016-1.6552 0.95554a0.31781 0.31781 0 0 1-0.31782 0l-3.9145-2.2604a0.31781 0.31781 0 0 1-0.15943-0.27481v-1.1318l0.03881-0.02098zm1.2702-0.73318 3.4613-1.9981v3.9963zm3.4613-3.4655-5.4081 3.1215v-1.9205c0-0.11328 0.06084-0.21817 0.15943-0.27481l3.9145-2.2604a0.31781 0.31781 0 0 1 0.31782 0l1.0174 0.58738v0.29998zm-1.9698-2.4345a1.588 1.588 0 0 1 1.5891 0l3.9145 2.2593c0.49088 0.2832 0.79401 0.80765 0.79401 1.3761v4.5207c0 0.5664-0.30313 1.0908-0.79401 1.3741l-3.9145 2.2604c-0.49193 0.28425-1.0971 0.28425-1.5891 0l-3.9145-2.2593a1.5891 1.5891 0 0 1-0.79401-1.3761v-4.5207c0-0.5664 0.30208-1.0908 0.79401-1.3741z"
      fill="#d1c4e9" data-folderIconColor="PDM" stroke-width=".031772"/>
</svg>
