<?xml version="1.0" encoding="UTF-8" standalone="no"?><!--
  - The MIT License (MIT)
  -
  - Copyright (c) 2015-2026 Elior "Mallowigi" Boukhobza
  -
  - Permission is hereby granted, free of charge, to any person obtaining a copy
  - of this software and associated documentation files (the "Software"), to deal
  - in the Software without restriction, including without limitation the rights
  - to use, copy, modify, merge, publish, distribute, sublicense, and/or sell
  - copies of the Software, and to permit persons to whom the Software is
  - furnished to do so, subject to the following conditions:
  -
  - The above copyright notice and this permission notice shall be included in all
  - copies or substantial portions of the Software.
  -
  - THE SOFTWARE IS PROVIDED "AS IS", WITHOUT WARRANTY OF ANY KIND, EXPRESS OR
  - IMPLIED, INCLUDING BUT NOT LIMITED TO THE WARRANTIES OF MERCHANTABILITY,
  - FITNESS FOR A PARTICULAR PURPOSE AND NONINFRINGEMENT. IN NO EVENT SHALL THE
  - AUTHORS OR COPYRIGHT HOLDERS BE LIABLE FOR ANY CLAIM, DAMAGES OR OTHER
  - LIABILITY, WHETHER IN AN ACTION OF CONTRACT, TORT OR OTHERWISE, ARISING FROM,
  - OUT OF OR IN CONNECTION WITH THE SOFTWARE OR THE USE OR OTHER DEALINGS IN THE
  - SOFTWARE.
  -
  -->

<svg viewBox="0 0 24 24" version="1.1" xmlns="http://www.w3.org/2000/svg" width="16px" height="16px"
>
  <path fill="#ff6e40" data-folderColor="Postman"
        d="M20,18H4V8H20M20,6H12L10,4H4C2.89,4 2,4.89 2,6V18A2,2 0 0,0 4,20H20A2,2 0 0,0 22,18V8C22,6.89 21.1,6 20,6Z"/>
  <path id="path1-1" data-folderIconColor="Postman" fill="#ffccbc" transform="scale(0.6) translate(6.75 7)"
        d="m 23.097735,10.009339 c -4.997262,0 -9.042894,4.045408 -8.983401,9.042672 0,4.997264 4.045408,9.042602 9.042672,8.98311 1.353937,0 2.707988,-0.29133 3.946653,-0.931461 L 20.89634,20.89634 c -0.118981,-0.118983 -0.178391,-0.238157 -0.178391,-0.416631 0,-0.178474 0.05941,-0.297357 0.178391,-0.416339 l 7.97204,-7.971752 C 27.262116,10.72332 25.239421,10.009339 23.097735,10.009339 Z m 6.662886,2.915247 -7.614973,7.555123 6.008885,6.008885 c 0.475927,-0.297456 0.951632,-0.713972 1.308577,-1.070919 3.391,-3.391002 3.569533,-8.923613 0.297511,-12.493089 z m -0.449752,4.544289 c 0.297947,-0.0094 0.591028,0.162928 0.687699,0.452947 0.594913,1.189824 0.416467,2.617593 -0.4759,3.747926 -0.237965,0.297456 -0.654345,0.356795 -0.951798,0.11883 -0.237966,-0.237965 -0.297524,-0.654343 -0.05956,-0.951799 0.475928,-0.654404 0.594894,-1.546773 0.237947,-2.260668 0,-0.05949 -0.05956,-0.118898 -0.05956,-0.17839 -0.118981,-0.356946 0.05969,-0.773546 0.416629,-0.892528 0.06693,-0.02231 0.135782,-0.03414 0.204539,-0.03632 z"
  />
</svg>