<!--
  - The MIT License (MIT)
  -
  - Copyright (c) 2015-2024 Elior "Mallowigi" Boukhobza
  -
  - Permission is hereby granted, free of charge, to any person obtaining a copy
  - of this software and associated documentation files (the "Software"), to deal
  - in the Software without restriction, including without limitation the rights
  - to use, copy, modify, merge, publish, distribute, sublicense, and/or sell
  - copies of the Software, and to permit persons to whom the Software is
  - furnished to do so, subject to the following conditions:
  -
  - The above copyright notice and this permission notice shall be included in all
  - copies or substantial portions of the Software.
  -
  - THE SOFTWARE IS PROVIDED "AS IS", WITHOUT WARRANTY OF ANY KIND, EXPRESS OR
  - IMPLIED, INCLUDING BUT NOT LIMITED TO THE WARRANTIES OF MERCHANTABILITY,
  - FITNESS FOR A PARTICULAR PURPOSE AND NONINFRINGEMENT. IN NO EVENT SHALL THE
  - AUTHORS OR COPYRIGHT HOLDERS BE LIABLE FOR ANY CLAIM, DAMAGES OR OTHER
  - LIABILITY, WHETHER IN AN ACTION OF CONTRACT, TORT OR OTHERWISE, ARISING FROM,
  - OUT OF OR IN CONNECTION WITH THE SOFTWARE OR THE USE OR OTHER DEALINGS IN THE
  - SOFTWARE.
  -
  -->

<svg version="1.1" xmlns="http://www.w3.org/2000/svg" width="16px" height="16px"
     viewBox="0 0 32 32" xml:space="preserve">
  <path fill="#7491EE" data-folderColor="Profiles" transform="scale(1.3)"
        d="M20,18H4V8H20M20,6H12L10,4H4C2.89,4 2,4.89 2,6V18A2,2 0 0,0 4,20H20A2,2 0 0,0 22,18V8C22,6.89 21.1,6 20,6Z"/>
  <g fill="#EBEBEB" data-folderIconColor="Profiles">
	  <path d="M21.7,28.4c-2.2,0-4.4,0-6.6,0c-0.3,0-0.3-0.1-0.3-0.3c0-1.1,0.1-2.2,0.7-3.2c1-1.7,2.4-2.8,4.4-2.9
		c1.4-0.1,2.9-0.2,4.3,0.1c2.1,0.5,3.5,1.8,4.2,3.9c0.2,0.7,0.2,1.5,0.2,2.3c0,0.2-0.2,0.2-0.3,0.2c-1.9,0-3.9,0-5.8,0
		C22.2,28.4,21.9,28.4,21.7,28.4z"/>
    <path d="M25.4,17.4c0,2-1.6,3.7-3.7,3.7c-2.1,0-3.7-1.8-3.7-3.8c0-2,1.7-3.7,3.8-3.7C23.7,13.7,25.4,15.4,25.4,17.4z"
    />
</g>
</svg>
