<!--
  - The MIT License (MIT)
  -
  - Copyright (c) 2015-2026 Elior "Mallowigi" Boukhobza
  -
  - Permission is hereby granted, free of charge, to any person obtaining a copy
  - of this software and associated documentation files (the "Software"), to deal
  - in the Software without restriction, including without limitation the rights
  - to use, copy, modify, merge, publish, distribute, sublicense, and/or sell
  - copies of the Software, and to permit persons to whom the Software is
  - furnished to do so, subject to the following conditions:
  -
  - The above copyright notice and this permission notice shall be included in all
  - copies or substantial portions of the Software.
  -
  - THE SOFTWARE IS PROVIDED "AS IS", WITHOUT WARRANTY OF ANY KIND, EXPRESS OR
  - IMPLIED, INCLUDING BUT NOT LIMITED TO THE WARRANTIES OF MERCHANTABILITY,
  - FITNESS FOR A PARTICULAR PURPOSE AND NONINFRINGEMENT. IN NO EVENT SHALL THE
  - AUTHORS OR COPYRIGHT HOLDERS BE LIABLE FOR ANY CLAIM, DAMAGES OR OTHER
  - LIABILITY, WHETHER IN AN ACTION OF CONTRACT, TORT OR OTHERWISE, ARISING FROM,
  - OUT OF OR IN CONNECTION WITH THE SOFTWARE OR THE USE OR OTHER DEALINGS IN THE
  - SOFTWARE.
  -
  -->

<svg xmlns="http://www.w3.org/2000/svg" viewBox="0 0 24 24" width="16px" height="16px">
  <path fill="#5C6BC0" data-folderColor="Prompts"
        d="M20,18H4V8H20M20,6H12L10,4H4C2.89,4 2,4.89 2,6V18A2,2 0 0,0 4,20H20A2,2 0 0,0 22,18V8C22,6.89 21.1,6 20,6Z"/>

  <g fill="#c5cae9" data-folderIconColor="Prompts" transform="scale(0.6) translate(8 8)">
    <path
      d="M17.235 12.447a4.21 4.21 0 0 1 3.314 3.313 1.471 1.471 0 0 0 2.904 0 4.21 4.21 0 0 1 3.312-3.313 1.471 1.471 0 0 0 0-2.904 4.21 4.21 0 0 1-3.312-3.313 1.47 1.47 0 0 0-2.903 0l-.001.001a4.21 4.21 0 0 1-3.314 3.312 1.471 1.471 0 0 0 0 2.904m13.942 6.585a2.805 2.805 0 0 1-2.208-2.209.98.98 0 0 0-1.936 0v.001a2.805 2.805 0 0 1-2.21 2.208.98.98 0 0 0 0 1.936 2.805 2.805 0 0 1 2.21 2.209.98.98 0 0 0 1.936 0 2.805 2.805 0 0 1 2.208-2.209.98.98 0 0 0 0-1.936"/>
    <rect width="10" height="2" x="12" y="22" rx="1"/>
    <rect width="10" height="2" x="12" y="18" rx="1"/>
    <path
      d="M25 24a1 1 0 0 0-1 1 1 1 0 0 1-1 1H11a1 1 0 0 1-1-1v-8a1 1 0 0 1 1-1h6a1 1 0 0 0 0-2h-6a3 3 0 0 0-3 3v8a3 3 0 0 0 3 3h12a3 3 0 0 0 3-3 1 1 0 0 0-1-1"/>
  </g>
</svg>