<!--
  - The MIT License (MIT)
  -
  - Copyright (c) 2015-2024 Elior "Mallowigi" Boukhobza
  -
  - Permission is hereby granted, free of charge, to any person obtaining a copy
  - of this software and associated documentation files (the "Software"), to deal
  - in the Software without restriction, including without limitation the rights
  - to use, copy, modify, merge, publish, distribute, sublicense, and/or sell
  - copies of the Software, and to permit persons to whom the Software is
  - furnished to do so, subject to the following conditions:
  -
  - The above copyright notice and this permission notice shall be included in all
  - copies or substantial portions of the Software.
  -
  - THE SOFTWARE IS PROVIDED "AS IS", WITHOUT WARRANTY OF ANY KIND, EXPRESS OR
  - IMPLIED, INCLUDING BUT NOT LIMITED TO THE WARRANTIES OF MERCHANTABILITY,
  - FITNESS FOR A PARTICULAR PURPOSE AND NONINFRINGEMENT. IN NO EVENT SHALL THE
  - AUTHORS OR COPYRIGHT HOLDERS BE LIABLE FOR ANY CLAIM, DAMAGES OR OTHER
  - LIABILITY, WHETHER IN AN ACTION OF CONTRACT, TORT OR OTHERWISE, ARISING FROM,
  - OUT OF OR IN CONNECTION WITH THE SOFTWARE OR THE USE OR OTHER DEALINGS IN THE
  - SOFTWARE.
  -
  -->

<svg clip-rule="evenodd" fill-rule="evenodd" stroke-linejoin="round" stroke-miterlimit="1.4142" version="1.1"
     width="16px" height="16px" viewBox="0 0 24 24" xml:space="preserve" xmlns="http://www.w3.org/2000/svg">
    <path fill="#ef5350" data-folderColor="Redis"
          d="M20,18H4V8H20M20,6H12L10,4H4C2.89,4 2,4.89 2,6V18A2,2 0 0,0 4,20H20A2,2 0 0,0 22,18V8C22,6.89 21.1,6 20,6Z"/>
  <path transform="scale(0.028) translate(320 380)" data-folderIconColor="Redis"
        d="M479.14 279.864c-34.584 43.578-71.94 93.385-146.645 93.385-66.73 0-91.59-58.858-93.337-106.672 14.62 30.915 43.203 55.949 87.804 54.792C412.737 318.6 471.53 241.127 471.53 170.57c0-84.388-62.947-145.262-172.24-145.262-78.165 0-175.004 29.743-238.646 76.782-.689 48.42 26.286 111.369 35.972 104.452 55.17-39.67 98.918-65.203 141.35-78.01C175.153 198.58 24.451 361.219 6 389.85c2.076 26.286 34.588 96.842 50.496 96.842 4.841 0 8.993-2.768 13.835-7.61 45.433-51.046 82.472-96.816 115.412-140.933 4.627 64.658 36.42 143.702 125.307 143.702 79.55 0 158.408-57.414 194.377-186.767 4.149-15.911-15.22-28.362-26.286-15.22zm-90.616-104.449c0 40.81-40.118 60.87-76.782 60.87-19.596 0-34.648-5.145-46.554-11.832 21.906-33.168 43.59-67.182 66.887-103.593 41.08 6.953 56.449 29.788 56.449 54.555z"
        fill="#ffcdd2" fill-rule="nonzero"/>
</svg>