<!--
  - The MIT License (MIT)
  -
  - Copyright (c) 2015-2024 Elior "Mallowigi" Boukhobza
  -
  - Permission is hereby granted, free of charge, to any person obtaining a copy
  - of this software and associated documentation files (the "Software"), to deal
  - in the Software without restriction, including without limitation the rights
  - to use, copy, modify, merge, publish, distribute, sublicense, and/or sell
  - copies of the Software, and to permit persons to whom the Software is
  - furnished to do so, subject to the following conditions:
  -
  - The above copyright notice and this permission notice shall be included in all
  - copies or substantial portions of the Software.
  -
  - THE SOFTWARE IS PROVIDED "AS IS", WITHOUT WARRANTY OF ANY KIND, EXPRESS OR
  - IMPLIED, INCLUDING BUT NOT LIMITED TO THE WARRANTIES OF MERCHANTABILITY,
  - FITNESS FOR A PARTICULAR PURPOSE AND NONINFRINGEMENT. IN NO EVENT SHALL THE
  - AUTHORS OR COPYRIGHT HOLDERS BE LIABLE FOR ANY CLAIM, DAMAGES OR OTHER
  - LIABILITY, WHETHER IN AN ACTION OF CONTRACT, TORT OR OTHERWISE, ARISING FROM,
  - OUT OF OR IN CONNECTION WITH THE SOFTWARE OR THE USE OR OTHER DEALINGS IN THE
  - SOFTWARE.
  -
  -->

<svg width="16px" height="16px" version="1.1" xmlns="http://www.w3.org/2000/svg" viewBox="0 0 24 24">
  <path data-folderColor="Scons" fill="#EF5350"
        d="M20,18H4V8H20M20,6H12L10,4H4C2.89,4 2,4.89 2,6V18A2,2 0 0,0 4,20H20A2,2 0 0,0 22,18V8C22,6.89 21.1,6 20,6Z"/>
  <g fill="#FFCDD2" data-folderIconColor="Scons">
    <rect x="9" y="20.368" width="6.612" height="2.515"/>
    <rect x="16.519" y="8.412" transform="matrix(0.4462 -0.8949 0.8949 0.4462 -0.6419 22.3977)" width="2.515"
          height="6.612"/>
    <rect x="16.388" y="20.368" width="6.612" height="2.515"/>
    <rect x="9" y="17.345" width="3.676" height="2.515"/>
    <rect x="19.324" y="17.345" width="3.676" height="2.515"/>
    <path d="M16.55,16.962v-1.895c0-0.562,0.203-0.878,0.381-1.159c0.059-0.092,0.111-0.174,0.15-0.25l-0.976-0.508
			c-0.026,0.05-0.062,0.105-0.101,0.166c-0.207,0.325-0.554,0.868-0.554,1.751v1.895h-0.874l1.431,2.898l1.418-2.898
			C17.425,16.962,16.55,16.962,16.55,16.962z"/>
  </g>
</svg>
