<!--
  - The MIT License (MIT)
  -
  - Copyright (c) 2015-2024 Elior "Mallowigi" Boukhobza
  -
  - Permission is hereby granted, free of charge, to any person obtaining a copy
  - of this software and associated documentation files (the "Software"), to deal
  - in the Software without restriction, including without limitation the rights
  - to use, copy, modify, merge, publish, distribute, sublicense, and/or sell
  - copies of the Software, and to permit persons to whom the Software is
  - furnished to do so, subject to the following conditions:
  -
  - The above copyright notice and this permission notice shall be included in all
  - copies or substantial portions of the Software.
  -
  - THE SOFTWARE IS PROVIDED "AS IS", WITHOUT WARRANTY OF ANY KIND, EXPRESS OR
  - IMPLIED, INCLUDING BUT NOT LIMITED TO THE WARRANTIES OF MERCHANTABILITY,
  - FITNESS FOR A PARTICULAR PURPOSE AND NONINFRINGEMENT. IN NO EVENT SHALL THE
  - AUTHORS OR COPYRIGHT HOLDERS BE LIABLE FOR ANY CLAIM, DAMAGES OR OTHER
  - LIABILITY, WHETHER IN AN ACTION OF CONTRACT, TORT OR OTHERWISE, ARISING FROM,
  - OUT OF OR IN CONNECTION WITH THE SOFTWARE OR THE USE OR OTHER DEALINGS IN THE
  - SOFTWARE.
  -
  -->

<svg width="16px" height="16px" xmlns="http://www.w3.org/2000/svg" viewBox="0 0 24 24">
  <path fill="#BA68C8" data-folderColor="Styled"
        d="M20,18H4V8H20M20,6H12L10,4H4C2.89,4 2,4.89 2,6V18A2,2 0 0,0 4,20H20A2,2 0 0,0 22,18V8C22,6.89 21.1,6 20,6Z"/>
  <path fill="#E1BEE7" data-folderIconColor="Styled"
        d="M18.165 21.33a5.165 5.165 0 1 1 0-10.33c2.84 0 5.165 2.066 5.165 4.649a3.099 3.099 0 0 1-3.099 3.098h-.93c-.155 0-.258.104-.258.259 0 .051.052.103.052.155.206.258.31.568.31.878.051.723-.517 1.291-1.24 1.291Zm0-9.297a4.132 4.132 0 1 0 0 8.264c.155 0 .258-.103.258-.258 0-.104-.051-.155-.051-.207-.207-.258-.31-.516-.31-.826 0-.723.568-1.291 1.291-1.291h.878a2.066 2.066 0 0 0 2.066-2.066c0-2.015-1.86-3.616-4.132-3.616Zm-2.84 3.099c.412 0 .774.361.774.775a.794.794 0 0 1-.775.774.794.794 0 0 1-.774-.774c0-.414.361-.775.774-.775Zm1.549-2.066c.413 0 .774.361.774.775a.794.794 0 0 1-.774.775.794.794 0 0 1-.775-.775c0-.413.361-.775.775-.775Zm2.582 0c.413 0 .775.361.775.775a.794.794 0 0 1-.775.775.794.794 0 0 1-.774-.775c0-.413.361-.775.774-.775Zm1.55 2.066c.413 0 .774.361.774.775a.794.794 0 0 1-.774.774.794.794 0 0 1-.775-.774c0-.414.361-.775.775-.775Z"/>
</svg>
