<!--
  - The MIT License (MIT)
  -
  - Copyright (c) 2015-2024 Elior "Mallowigi" Boukhobza
  -
  - Permission is hereby granted, free of charge, to any person obtaining a copy
  - of this software and associated documentation files (the "Software"), to deal
  - in the Software without restriction, including without limitation the rights
  - to use, copy, modify, merge, publish, distribute, sublicense, and/or sell
  - copies of the Software, and to permit persons to whom the Software is
  - furnished to do so, subject to the following conditions:
  -
  - The above copyright notice and this permission notice shall be included in all
  - copies or substantial portions of the Software.
  -
  - THE SOFTWARE IS PROVIDED "AS IS", WITHOUT WARRANTY OF ANY KIND, EXPRESS OR
  - IMPLIED, INCLUDING BUT NOT LIMITED TO THE WARRANTIES OF MERCHANTABILITY,
  - FITNESS FOR A PARTICULAR PURPOSE AND NONINFRINGEMENT. IN NO EVENT SHALL THE
  - AUTHORS OR COPYRIGHT HOLDERS BE LIABLE FOR ANY CLAIM, DAMAGES OR OTHER
  - LIABILITY, WHETHER IN AN ACTION OF CONTRACT, TORT OR OTHERWISE, ARISING FROM,
  - OUT OF OR IN CONNECTION WITH THE SOFTWARE OR THE USE OR OTHER DEALINGS IN THE
  - SOFTWARE.
  -
  -->

<svg  width="16px" height="16px" viewBox="0 0 24 24" fill="none" xmlns="http://www.w3.org/2000/svg">
  <path fill="#1E88E5" data-folderColor="TotVS"
        d="M20,18H4V8H20M20,6H12L10,4H4C2.89,4 2,4.89 2,6V18A2,2 0 0,0 4,20H20A2,2 0 0,0 22,18V8C22,6.89 21.1,6 20,6Z"/>

  <path fill-rule="evenodd" clip-rule="evenodd" data-folderIconColor="TotVS"
        d="M15.5762 8.10678C11.1617 8.87058 8.71299 13.622 10.6961 17.5762C13.1751 22.5192 20.5138 22.4788 22.9226 17.5089C25.2879 12.6286 21.019 7.16513 15.5762 8.10678ZM16.1501 10.3331C18.6671 10.8262 21.2636 11.5945 21.3552 11.8734C21.6084 12.6439 21.6049 16.4964 21.3505 16.9654C21.2866 17.0833 20.1697 16.9536 19.3174 16.7292L18.9753 16.6391L18.9739 16.2232C18.9698 14.9752 18.8397 13.794 18.6904 13.6481C18.5189 13.4805 17.4092 13.1292 15.7087 12.7041L14.6272 12.4337L14.6129 12.179C14.5808 11.6075 14.7272 10.3201 14.8397 10.1837C14.9016 10.1087 15.1478 10.1367 16.1501 10.3331ZM12.9143 12.142C13.4035 12.2046 13.9731 12.3121 14.3724 12.4173L14.547 12.4632L14.5768 13.4018C14.6324 15.1597 14.6902 15.432 15.0397 15.5844C15.4778 15.7753 17.0754 16.2323 18.578 16.5965L18.9091 16.6768L18.8995 17.2991C18.8886 18.0001 18.8191 18.6278 18.7288 18.8414L18.6681 18.9848L18.4134 18.9559C17.4597 18.8474 14.3339 18.1009 12.9731 17.6566C12.376 17.4615 12.2314 17.3861 12.1802 17.2425C11.9553 16.6119 11.9563 12.5649 12.1814 12.1538C12.2336 12.0585 12.2592 12.0581 12.9143 12.142Z"
        fill="#ECEFF1"/>
</svg>
