<svg clip-rule="evenodd" fill-rule="evenodd" stroke-linejoin="round"
     stroke-miterlimit="1.4142" version="1.1" viewBox="0 0 24 24" width="16px" height="16px"
     xml:space="preserve" xmlns="http://www.w3.org/2000/svg">
    <path fill="#6AAB20"
          d="M20,18H4V8H20M20,6H12L10,4H4C2.89,4 2,4.89 2,6V18A2,2 0 0,0 4,20H20A2,2 0 0,0 22,18V8C22,6.89 21.1,6 20,6Z"/>
    <path fill="#F0F4C3" transform="translate(10 10)"
          d="M4.18,13H3.063L2.74,12.815V3.268H2.2L2,3.071V2.232L2.216,2H6.5L6.766,2.259V3.054L6.559,3.3H6.09V7.25L10.126,3.3H9.459l-0.234-.25V2.214l0.216-.2h4.342L14,2.232V3.018Z"
    />
</svg>
