<!--
  - The MIT License (MIT)
  -
  - Copyright (c) 2015-2024 Elior "Mallowigi" Boukhobza
  -
  - Permission is hereby granted, free of charge, to any person obtaining a copy
  - of this software and associated documentation files (the "Software"), to deal
  - in the Software without restriction, including without limitation the rights
  - to use, copy, modify, merge, publish, distribute, sublicense, and/or sell
  - copies of the Software, and to permit persons to whom the Software is
  - furnished to do so, subject to the following conditions:
  -
  - The above copyright notice and this permission notice shall be included in all
  - copies or substantial portions of the Software.
  -
  - THE SOFTWARE IS PROVIDED "AS IS", WITHOUT WARRANTY OF ANY KIND, EXPRESS OR
  - IMPLIED, INCLUDING BUT NOT LIMITED TO THE WARRANTIES OF MERCHANTABILITY,
  - FITNESS FOR A PARTICULAR PURPOSE AND NONINFRINGEMENT. IN NO EVENT SHALL THE
  - AUTHORS OR COPYRIGHT HOLDERS BE LIABLE FOR ANY CLAIM, DAMAGES OR OTHER
  - LIABILITY, WHETHER IN AN ACTION OF CONTRACT, TORT OR OTHERWISE, ARISING FROM,
  - OUT OF OR IN CONNECTION WITH THE SOFTWARE OR THE USE OR OTHER DEALINGS IN THE
  - SOFTWARE.
  -
  -->

<svg  xmlns="http://www.w3.org/2000/svg" viewBox="0 0 24 24" width="16px" height="16px">
  <path fill="#A1887F"
        d="M20,6H16V4A2,2 0 0,0 14,2H10C8.89,2 8,2.89 8,4V6H4C2.89,6 2,6.89 2,8V19A2,2 0 0,0 4,21H20A2,2 0 0,0 22,19V8A2,2 0 0,0 20,6M10,4H14V6H10V4M12,9A2.5,2.5 0 0,1 14.5,11.5A2.5,2.5 0 0,1 12,14A2.5,2.5 0 0,1 9.5,11.5A2.5,2.5 0 0,1 12,9M17,19H7V17.75C7,16.37 9.24,15.25 12,15.25C14.76,15.25 17,16.37 17,17.75V19Z"/>
</svg>
