<svg xmlns="http://www.w3.org/2000/svg" viewBox="0 0 24 24" width="16px" height="16px">
    <defs>
        <mask id="Mask">
            <path fill="white"
                  d="M14.19,14.19L6,18L9.81,9.81L18,6M12,2A10,10 0 0,0 2,12A10,10 0 0,0 12,22A10,10 0 0,0 22,12A10,10 0 0,0 12,2M12,10.9A1.1,1.1 0 0,0 10.9,12A1.1,1.1 0 0,0 12,13.1A1.1,1.1 0 0,0 13.1,12A1.1,1.1 0 0,0 12,10.9Z" />
            <circle cx="18" cy="6" r="6" fill="black" />
            <path fill="white" transform="scale(0.5) translate(24 0)"
                  d="M20,12A8,8 0 0,1 12,20A8,8 0 0,1 4,12A8,8 0 0,1 12,4C12.76,4 13.5,4.11 14.2,4.31L15.77,2.74C14.61,2.26 13.34,2 12,2A10,10 0 0,0 2,12A10,10 0 0,0 12,22A10,10 0 0,0 22,12M7.91,10.08L6.5,11.5L11,16L21,6L19.59,4.58L11,13.17L7.91,10.08Z" />
        </mask>
    </defs>
    <g mask="url(#Mask)">
        <path fill="#26C6DA"
              d="M14.19,14.19L6,18L9.81,9.81L18,6M12,2A10,10 0 0,0 2,12A10,10 0 0,0 12,22A10,10 0 0,0 22,12A10,10 0 0,0 12,2M12,10.9A1.1,1.1 0 0,0 10.9,12A1.1,1.1 0 0,0 12,13.1A1.1,1.1 0 0,0 13.1,12A1.1,1.1 0 0,0 12,10.9Z" />
        <circle cx="18" cy="6" r="6" fill="white" />
        <path fill="#26C6DA" transform="scale(0.5) translate(24 0)"
              d="M20,12A8,8 0 0,1 12,20A8,8 0 0,1 4,12A8,8 0 0,1 12,4C12.76,4 13.5,4.11 14.2,4.31L15.77,2.74C14.61,2.26 13.34,2 12,2A10,10 0 0,0 2,12A10,10 0 0,0 12,22A10,10 0 0,0 22,12M7.91,10.08L6.5,11.5L11,16L21,6L19.59,4.58L11,13.17L7.91,10.08Z" />
    </g>
</svg>