<svg xmlns="http://www.w3.org/2000/svg" viewBox="0 0 24 24" width="16px" height="16px">
    <defs>
        <mask id="Mask">
            <path fill="white"
                  d="M14.19,14.19L6,18L9.81,9.81L18,6M12,2A10,10 0 0,0 2,12A10,10 0 0,0 12,22A10,10 0 0,0 22,12A10,10 0 0,0 12,2M12,10.9A1.1,1.1 0 0,0 10.9,12A1.1,1.1 0 0,0 12,13.1A1.1,1.1 0 0,0 13.1,12A1.1,1.1 0 0,0 12,10.9Z" />
            <circle cx="18" cy="6" r="5" fill="black" />
            <circle cx="18" cy="6" r="3" fill="white" />
        </mask>
    </defs>
    <g mask="url(#Mask)">
        <path fill="#26C6DA"
              d="M14.19,14.19L6,18L9.81,9.81L18,6M12,2A10,10 0 0,0 2,12A10,10 0 0,0 12,22A10,10 0 0,0 22,12A10,10 0 0,0 12,2M12,10.9A1.1,1.1 0 0,0 10.9,12A1.1,1.1 0 0,0 12,13.1A1.1,1.1 0 0,0 13.1,12A1.1,1.1 0 0,0 12,10.9Z" />
        <circle cx="18" cy="6" r="4" fill="white" />
        <circle cx="18" cy="6" r="3" fill="#26C6DA" />
    </g>
</svg>