<svg xmlns="http://www.w3.org/2000/svg" viewBox="0 0 24 24" width="16px" height="16px">
    <defs>
        <mask id="Mask">
            <path fill="white" fill-opacity="1" stroke-linejoin="round"
                  d="M 0.911342,-0.911345L 24.9113,23.0887L 23.6385,24.3614L -0.361451,0.361448L 0.911342,-0.911345 Z " />
            <path fill="white"
                  d="M20 4H4A2 2 0 0 0 2 6V18A2 2 0 0 0 4 20H20A2 2 0 0 0 22 18V6A2 2 0 0 0 20 4M20 18H9V6H20Z" />
            <path fill-opacity="1" stroke-linejoin="round"
                  d="M 2,5.26848L 3.27711,4L 20,20.7229L 18.7315,22L 2,5.26848 Z " />
        </mask>
    </defs>
    <g mask="url(#Mask)" fill="#4DD0E1">
        <path fill-opacity="1" stroke-linejoin="round"
              d="M 0.911342,-0.911345L 24.9113,23.0887L 23.6385,24.3614L -0.361451,0.361448L 0.911342,-0.911345 Z " />
        <path fill="#4DD0E1"
              d="M20 4H4A2 2 0 0 0 2 6V18A2 2 0 0 0 4 20H20A2 2 0 0 0 22 18V6A2 2 0 0 0 20 4M20 18H9V6H20Z" />
        <path fill-opacity="1" stroke-linejoin="round"
              d="M 2,5.26848L 3.27711,4L 20,20.7229L 18.7315,22L 2,5.26848 Z " />
    </g>
</svg>