<svg xmlns="http://www.w3.org/2000/svg" viewBox="0 0 24 24" width="16px" height="16px">
    <defs>
        <mask id="Mask">
            <line x1="0" y1="0" x2="24" y2="24" stroke="white" stroke-width="2"></line>

            <path fill="white"
                  d="M20 4H4A2 2 0 0 0 2 6V18A2 2 0 0 0 4 20H20A2 2 0 0 0 22 18V6A2 2 0 0 0 20 4M20 18H9V6H20Z" />
            <line x1="2" y1="0" x2="26" y2="24" stroke="black" stroke-width="2"></line>
        </mask>
    </defs>
    <g mask="url(#Mask)">
        <line x1="0" y1="0" x2="24" y2="24" stroke="#4DD0E1" stroke-width="2"></line>

        <path fill="#4DD0E1"
              d="M20 4H4A2 2 0 0 0 2 6V18A2 2 0 0 0 4 20H20A2 2 0 0 0 22 18V6A2 2 0 0 0 20 4M20 18H9V6H20Z" />
        <line x1="2" y1="0" x2="26" y2="24" stroke="#4DD0E1" stroke-width="2"></line>
    </g>
</svg>