<svg clip-rule="evenodd" fill-rule="evenodd" stroke-linejoin="round"
     stroke-miterlimit="1.4142" version="1.1" viewBox="0 0 24 24" width="16px" height="16px"
     xml:space="preserve" xmlns="http://www.w3.org/2000/svg">
    <path d="m10 4h-6c-1.11 0-2 0.89-2 2v12c0 1.097 0.903 2 2 2h16c1.097 0 2-0.903 2-2v-10c0-1.11-0.9-2-2-2h-8l-2-2z"
          fill="#ef5350" fill-rule="nonzero"/>
    <path fill-rule="evenodd" clip-rule="evenodd" transform="scale(0.02) translate(680 512)"
          fill="#ffcdd2" d="M175.0903931,330.6751099L224.09758,512l49.0071869-181.3248901L224.09758,211.9347839L175.0903931,330.6751099z M182.8164368,0h82.5622559l182.8164673,453.7233276h-76.6649475L224.09758,107.1832428L76.6649628,453.7233276H0L182.8164368,0z"/>
</svg>
