<!--
  - The MIT License (MIT)
  -
  - Copyright (c) 2015-2024 Elior "Mallowigi" Boukhobza
  -
  - Permission is hereby granted, free of charge, to any person obtaining a copy
  - of this software and associated documentation files (the "Software"), to deal
  - in the Software without restriction, including without limitation the rights
  - to use, copy, modify, merge, publish, distribute, sublicense, and/or sell
  - copies of the Software, and to permit persons to whom the Software is
  - furnished to do so, subject to the following conditions:
  -
  - The above copyright notice and this permission notice shall be included in all
  - copies or substantial portions of the Software.
  -
  - THE SOFTWARE IS PROVIDED "AS IS", WITHOUT WARRANTY OF ANY KIND, EXPRESS OR
  - IMPLIED, INCLUDING BUT NOT LIMITED TO THE WARRANTIES OF MERCHANTABILITY,
  - FITNESS FOR A PARTICULAR PURPOSE AND NONINFRINGEMENT. IN NO EVENT SHALL THE
  - AUTHORS OR COPYRIGHT HOLDERS BE LIABLE FOR ANY CLAIM, DAMAGES OR OTHER
  - LIABILITY, WHETHER IN AN ACTION OF CONTRACT, TORT OR OTHERWISE, ARISING FROM,
  - OUT OF OR IN CONNECTION WITH THE SOFTWARE OR THE USE OR OTHER DEALINGS IN THE
  - SOFTWARE.
  -
  -->

<svg xmlns="http://www.w3.org/2000/svg" width="16px" height="16px" viewBox="0 0 1000 1000" version="1.1">
    <path
        d="M 600.500 442.060 C 538.850 447.814, 482.496 474.290, 438.983 517.946 C 409.636 547.388, 388.854 581.025, 375.955 619.960 C 366.453 648.641, 363 670.820, 363 703.169 C 363 734.561, 366.454 756.386, 375.950 785 C 389.703 826.438, 410.576 859.814, 441.629 890.019 C 483.884 931.118, 535.534 955.666, 594 962.435 C 605.744 963.794, 630.171 963.998, 781.750 963.999 L 956 964 956 898.500 L 956 833 785.378 833 C 596.463 833, 604.011 833.242, 583.541 826.536 C 547.370 814.687, 518.881 788.764, 503.936 754.097 C 487.048 714.925, 490.518 669.475, 513.149 633.419 C 557.782 562.308, 656.373 551.123, 715.500 610.464 C 721 615.984, 727.075 622.851, 729 625.724 L 732.500 630.948 803.696 630.974 L 874.892 631 873.338 625.750 C 868.075 607.967, 857.855 585.242, 847.304 567.857 C 805.689 499.292, 737.030 454.149, 658.030 443.412 C 644.576 441.583, 613.444 440.851, 600.500 442.060 M 833.145 666.740 C 758.660 666.980, 748.858 667.187, 749.366 668.511 C 753.698 679.801, 754.939 711.435, 751.659 727 C 746.568 751.167, 735.454 773.407, 720.100 790.153 C 716.745 793.813, 714 797.075, 714 797.403 C 714 797.731, 768.453 798, 835.007 798 L 956.014 798 955.757 732.250 L 955.500 666.500 936.500 666.484 C 926.050 666.475, 879.540 666.590, 833.145 666.740"
        stroke="none" fill="#FAB1C6" fill-rule="evenodd" data-folderIconColor="Appwrite" />
    <path
        d="M 154.315 167.008 C 122.009 171.731, 95.069 195.585, 85.757 227.715 L 83.500 235.500 83.500 500 L 83.500 764.500 85.760 772.299 C 90.010 786.962, 97.631 799.543, 108.635 810.061 C 119.955 820.881, 128.700 826.038, 143.693 830.735 L 152.500 833.494 274.750 833.777 C 341.988 833.933, 397 833.748, 397 833.366 C 397 832.983, 395.263 829.482, 393.140 825.585 C 379.291 800.168, 368.529 766.349, 364.537 735.699 C 362.505 720.101, 362.505 686.463, 364.536 669.970 C 373.410 597.902, 413.046 531.621, 472.588 489.277 C 566.371 422.583, 693.132 425.595, 784.500 496.689 C 825.452 528.555, 858.991 577.279, 873.338 625.750 L 874.892 631 803.696 630.974 L 732.500 630.948 729 625.724 C 727.075 622.851, 721 615.984, 715.500 610.464 C 673.551 568.363, 609.890 560.080, 557.731 589.935 C 547.416 595.839, 533.641 607.305, 525.500 616.762 C 464.164 688.014, 494.413 797.340, 583.541 826.536 C 603.446 833.057, 602.150 833, 731.266 833 L 847.776 833 856.446 830.488 C 872.005 825.979, 882.756 819.253, 894.989 806.375 L 902.469 798.500 808.235 798.245 C 756.406 798.105, 714 797.724, 714 797.398 C 714 797.073, 716.745 793.813, 720.100 790.153 C 735.454 773.407, 746.568 751.167, 751.659 727 C 754.939 711.431, 753.698 679.801, 749.364 668.505 C 748.852 667.172, 758.412 667, 832.893 667 L 917 667 916.983 495.250 C 916.968 352.959, 916.728 322.385, 915.583 317 C 908.740 284.812, 885.119 260.051, 853.590 252.016 C 845.810 250.033, 842.851 250, 673.086 250 L 500.491 250 458.500 208 L 416.509 166 288.004 166.125 C 217.327 166.193, 157.167 166.591, 154.315 167.008"
        stroke="none" fill="#FD366E" data-folderColor="Appwrite" fill-rule="evenodd" />
</svg>