<!--
  - The MIT License (MIT)
  -
  - Copyright (c) 2015-2024 Elior "Mallowigi" Boukhobza
  -
  - Permission is hereby granted, free of charge, to any person obtaining a copy
  - of this software and associated documentation files (the "Software"), to deal
  - in the Software without restriction, including without limitation the rights
  - to use, copy, modify, merge, publish, distribute, sublicense, and/or sell
  - copies of the Software, and to permit persons to whom the Software is
  - furnished to do so, subject to the following conditions:
  -
  - The above copyright notice and this permission notice shall be included in all
  - copies or substantial portions of the Software.
  -
  - THE SOFTWARE IS PROVIDED "AS IS", WITHOUT WARRANTY OF ANY KIND, EXPRESS OR
  - IMPLIED, INCLUDING BUT NOT LIMITED TO THE WARRANTIES OF MERCHANTABILITY,
  - FITNESS FOR A PARTICULAR PURPOSE AND NONINFRINGEMENT. IN NO EVENT SHALL THE
  - AUTHORS OR COPYRIGHT HOLDERS BE LIABLE FOR ANY CLAIM, DAMAGES OR OTHER
  - LIABILITY, WHETHER IN AN ACTION OF CONTRACT, TORT OR OTHERWISE, ARISING FROM,
  - OUT OF OR IN CONNECTION WITH THE SOFTWARE OR THE USE OR OTHER DEALINGS IN THE
  - SOFTWARE.
  -
  -->

<svg xmlns="http://www.w3.org/2000/svg" viewBox="0 0 16 16">
  <path
    stroke="none" fill="#FF6E40" data-folderColor="Assembly"
    d="m6.922 3.768-.644-.536A1 1 0 0 0 5.638 3H2a1 1 0 0 0-1 1v8a1 1 0 0 0 1 1h12a1 1 0 0 0 1-1V5a1 1 0 0 0-1-1H7.562a1 1 0 0 1-.64-.232"
  />
  <path
    stroke="none" fill="#FFCCBC" data-folderIconColor="Assembly"
    d="m 9,6 c 0,1 0,1 -1,1 v 1 h 1 v 2 h 1 v -4 z m 3,0 a 1,1 0 0 0 -1,1 v 2 a 1,1 0 0 0 1,1 h 1 a 1,1 0 0 0 1,-1 v -2 a 1,1 0 0 0 -1,-1 z m 0,1 h 1 v 2 h -1 z m -3,4 a 1,1 0 0 0 -1,1 v 2 a 1,1 0 0 0 1,1 h 1 a 1,1 0 0 0 1,-1 v -2 a 1,1 0 0 0 -1,-1 z m 4,0 c 0,1 0,1 -1,1 v 1 h 1 v 2 h 1 v -4 z m -4,1 h 1 v 2 h -1 z"
  />
</svg>