<!--
  - The MIT License (MIT)
  -
  - Copyright (c) 2015-2026 Elior "Mallowigi" Boukhobza
  -
  - Permission is hereby granted, free of charge, to any person obtaining a copy
  - of this software and associated documentation files (the "Software"), to deal
  - in the Software without restriction, including without limitation the rights
  - to use, copy, modify, merge, publish, distribute, sublicense, and/or sell
  - copies of the Software, and to permit persons to whom the Software is
  - furnished to do so, subject to the following conditions:
  -
  - The above copyright notice and this permission notice shall be included in all
  - copies or substantial portions of the Software.
  -
  - THE SOFTWARE IS PROVIDED "AS IS", WITHOUT WARRANTY OF ANY KIND, EXPRESS OR
  - IMPLIED, INCLUDING BUT NOT LIMITED TO THE WARRANTIES OF MERCHANTABILITY,
  - FITNESS FOR A PARTICULAR PURPOSE AND NONINFRINGEMENT. IN NO EVENT SHALL THE
  - AUTHORS OR COPYRIGHT HOLDERS BE LIABLE FOR ANY CLAIM, DAMAGES OR OTHER
  - LIABILITY, WHETHER IN AN ACTION OF CONTRACT, TORT OR OTHERWISE, ARISING FROM,
  - OUT OF OR IN CONNECTION WITH THE SOFTWARE OR THE USE OR OTHER DEALINGS IN THE
  - SOFTWARE.
  -
  -->

<svg xmlns="http://www.w3.org/2000/svg" xml:space="preserve" viewBox="0 0 32 32" width="16px" height="16px">
  <path fill="#757575" data-folderColor="Crossplane"
        d="m13.844 7.536-1.288-1.072A1.996 1.996 0 0 0 11.276 6H4c-1.097 0-2 .903-2 2v16c0 1.097.903 2 2 2h24c1.097 0 2-.903 2-2V10c0-1.097-.903-2-2-2H15.124c-.468 0-.921-.164-1.28-.464"
  />
  <g fill="#ffd180" data-folderIconColor="Crossplane" transform="scale(0.04) translate(300 300)">
    <path d="M263.8,389.5v45.3v31.4c0,10.7-7,19.4-15.5,19.4c-8.6,0-15.5-8.7-15.5-19.4v-76.7H263.8 M278,375.3h-59.4v90.9
			c0,18.6,13.3,33.6,29.7,33.6s29.7-15,29.7-33.6v-31.4V375.3L278,375.3z"/>
    <path d="M338.4,61.9c9.9,15.4,15.6,33.1,16.4,51.7c0.1,1.6,0.1,3.3,0.1,4.9c0,1.6,0,3.3-0.1,5l0,0.7l0,0.7c0,0.4,0.1,0.8,0.1,1.2
			c0,0.5,0.1,1.1,0.1,1.4v55.7L170.1,368c-15.8-9.9-25.5-27.1-25.5-46v-66.3L338.4,61.9 M339.8,41.5L131.2,250.2V322
			c0,27.9,17.2,52,41.5,62.3l195.6-195.6v-61.2c0-1.1-0.1-2.2-0.2-3.3c0.1-1.9,0.1-3.8,0.1-5.7c0-1.9,0-3.7-0.1-5.5
			C366.9,85.8,356.4,60.9,339.8,41.5L339.8,41.5z"/>
    <g>
      <path d="M249.7,0c-63.6,0-115.5,50.1-118.4,113c-0.1,1.8-0.1,3.7-0.1,5.5c0,2,0,4,0.2,6c0,1-0.2,2-0.2,3v122.6L339.8,41.5
				C318.1,16.1,285.8,0,249.7,0z"/>
    </g>
    <g>
      <path d="M198.9,389.7h101.8c37.2,0,67.6-30.4,67.6-67.6V188.3L172.4,384.2C180.5,387.7,189.5,389.7,198.9,389.7z"/>
    </g>
  </g>
</svg>