<!--
  - The MIT License (MIT)
  -
  - Copyright (c) 2015-2024 Elior "Mallowigi" Boukhobza
  -
  - Permission is hereby granted, free of charge, to any person obtaining a copy
  - of this software and associated documentation files (the "Software"), to deal
  - in the Software without restriction, including without limitation the rights
  - to use, copy, modify, merge, publish, distribute, sublicense, and/or sell
  - copies of the Software, and to permit persons to whom the Software is
  - furnished to do so, subject to the following conditions:
  -
  - The above copyright notice and this permission notice shall be included in all
  - copies or substantial portions of the Software.
  -
  - THE SOFTWARE IS PROVIDED "AS IS", WITHOUT WARRANTY OF ANY KIND, EXPRESS OR
  - IMPLIED, INCLUDING BUT NOT LIMITED TO THE WARRANTIES OF MERCHANTABILITY,
  - FITNESS FOR A PARTICULAR PURPOSE AND NONINFRINGEMENT. IN NO EVENT SHALL THE
  - AUTHORS OR COPYRIGHT HOLDERS BE LIABLE FOR ANY CLAIM, DAMAGES OR OTHER
  - LIABILITY, WHETHER IN AN ACTION OF CONTRACT, TORT OR OTHERWISE, ARISING FROM,
  - OUT OF OR IN CONNECTION WITH THE SOFTWARE OR THE USE OR OTHER DEALINGS IN THE
  - SOFTWARE.
  -
  -->

<svg width="16px" height="16px" viewBox="0 0 24 24" fill="none" xmlns="http://www.w3.org/2000/svg" >
  <path data-folderColor="Dart"
        d="M10 4H4C2.89 4 2 4.89 2 6V18C2 18.5304 2.21071 19.0391 2.58579 19.4142C2.96086 19.7893 3.46957 20 4 20H20C20.5304 20 21.0391 19.7893 21.4142 19.4142C21.7893 19.0391 22 18.5304 22 18V8C22 6.89 21.1 6 20 6H12L10 4Z"
        fill="#47C5FB"/>
  <g fill='#bbdefb' data-folderIconColor="Dart" transform="translate(2 2)">
    <path d="M12.9166 9.5L13.7916 16.7917L11.4528 14.4528C11.106 14.106 11.0129 13.579 11.2206 13.1345L12.9166 9.5Z"/>
    <path
        d="M17.9681 7.84308C17.7216 7.59662 17.3876 7.45837 17.0394 7.45837C16.8221 7.45837 16.608 7.51233 16.4167 7.61529L12.9167 9.50004V15.4334C12.9167 15.7429 13.0395 16.0395 13.2585 16.2582L13.7917 16.7917H20.2084V15.3334L22.25 12.125L17.9681 7.84308Z"
    />
    <path d="M12.9167 9.5H19.1417C19.4512 9.5 19.7478 9.62279 19.9666 9.84183L22.25 12.125V16.7917H20.2084L12.9167 9.5Z"/>
    <path d="M20.2084 16.7916H13.7917L15.5417 18.5416H20.2084V16.7916Z"/>
  </g>
</svg>
