<!--
  - The MIT License (MIT)
  -
  - Copyright (c) 2015-2024 Elior "Mallowigi" Boukhobza
  -
  - Permission is hereby granted, free of charge, to any person obtaining a copy
  - of this software and associated documentation files (the "Software"), to deal
  - in the Software without restriction, including without limitation the rights
  - to use, copy, modify, merge, publish, distribute, sublicense, and/or sell
  - copies of the Software, and to permit persons to whom the Software is
  - furnished to do so, subject to the following conditions:
  -
  - The above copyright notice and this permission notice shall be included in all
  - copies or substantial portions of the Software.
  -
  - THE SOFTWARE IS PROVIDED "AS IS", WITHOUT WARRANTY OF ANY KIND, EXPRESS OR
  - IMPLIED, INCLUDING BUT NOT LIMITED TO THE WARRANTIES OF MERCHANTABILITY,
  - FITNESS FOR A PARTICULAR PURPOSE AND NONINFRINGEMENT. IN NO EVENT SHALL THE
  - AUTHORS OR COPYRIGHT HOLDERS BE LIABLE FOR ANY CLAIM, DAMAGES OR OTHER
  - LIABILITY, WHETHER IN AN ACTION OF CONTRACT, TORT OR OTHERWISE, ARISING FROM,
  - OUT OF OR IN CONNECTION WITH THE SOFTWARE OR THE USE OR OTHER DEALINGS IN THE
  - SOFTWARE.
  -
  -->

<svg version="1.1" xmlns="http://www.w3.org/2000/svg" width="16px" height="16px"
     viewBox="0 0 32 32" xml:space="preserve">
  <path d="M10 4H4c-1.11 0-2 .89-2 2v12c0 1.097.903 2 2 2h16c1.097 0 2-.903 2-2V8a2 2 0 0 0-2-2h-8l-2-2z"
        fill="#8690BA" fill-rule="nonzero" data-folderColor="Empties" transform="scale(1.3)"/>
  <path fill="#E9EAEA" data-folderIconColor="Empties"
        d="M16.8,25.3c-2.2-3.4-1.2-7,0.9-9c2.2-2,5.6-2.4,8.1-0.8c-0.5,0.4-0.9,0.9-1.4,1.3c-0.2,0.1-0.5,0.1-0.8,0.1
	c-1.8-0.5-3.4,0-4.7,1.4c-1.2,1.4-1.5,3-0.9,4.7c0.1,0.2,0.2,0.4,0.3,0.7c0.2-0.2,0.4-0.3,0.5-0.5c2.9-2.9,5.8-5.8,8.7-8.7
	c0.1-0.1,0.3-0.3,0.4-0.4c0.6-0.6,1.3-0.7,1.7-0.2c0.5,0.5,0.4,1.1-0.2,1.7c-0.4,0.5-0.9,0.9-1.4,1.3c-0.3,0.3-0.4,0.5-0.1,0.9
	c1.4,2.4,1.4,4.8-0.1,7.1c-1.5,2.3-3.7,3.3-6.4,3.1c-0.9-0.1-1.8-0.5-2.7-0.7c0-0.1-0.1-0.2-0.1-0.3c0.5-0.4,1-0.9,1.5-1.3
	c0.2-0.1,0.5-0.1,0.7,0c1.9,0.4,3.5,0,4.8-1.5c1.2-1.5,1.4-3.1,0.7-4.9c-0.1-0.1-0.1-0.2-0.4-0.6c-0.2,0.3-0.3,0.6-0.5,0.8
	c-2.9,3-5.9,5.9-8.9,8.9c-0.1,0.1-0.2,0.2-0.3,0.3c-0.5,0.4-1.1,0.4-1.5,0c-0.4-0.4-0.5-1.1,0-1.5C15.4,26.5,16.1,25.9,16.8,25.3z"
  />
</svg>
