<?xml version="1.0" encoding="UTF-8" standalone="no"?>
<!--
  - The MIT License (MIT)
  -
  - Copyright (c) 2015-2026 Elior "Mallowigi" Boukhobza
  -
  - Permission is hereby granted, free of charge, to any person obtaining a copy
  - of this software and associated documentation files (the "Software"), to deal
  - in the Software without restriction, including without limitation the rights
  - to use, copy, modify, merge, publish, distribute, sublicense, and/or sell
  - copies of the Software, and to permit persons to whom the Software is
  - furnished to do so, subject to the following conditions:
  -
  - The above copyright notice and this permission notice shall be included in all
  - copies or substantial portions of the Software.
  -
  - THE SOFTWARE IS PROVIDED "AS IS", WITHOUT WARRANTY OF ANY KIND, EXPRESS OR
  - IMPLIED, INCLUDING BUT NOT LIMITED TO THE WARRANTIES OF MERCHANTABILITY,
  - FITNESS FOR A PARTICULAR PURPOSE AND NONINFRINGEMENT. IN NO EVENT SHALL THE
  - AUTHORS OR COPYRIGHT HOLDERS BE LIABLE FOR ANY CLAIM, DAMAGES OR OTHER
  - LIABILITY, WHETHER IN AN ACTION OF CONTRACT, TORT OR OTHERWISE, ARISING FROM,
  - OUT OF OR IN CONNECTION WITH THE SOFTWARE OR THE USE OR OTHER DEALINGS IN THE
  - SOFTWARE.
  -
  -->

<svg viewBox="0 0 16 16" width="16px" height="16px" xmlns="http://www.w3.org/2000/svg">
  <path fill="#0091EA" data-folderColor="Go"
        d="M 6.922,3.768 6.278,3.232 A 1,1 0 0 0 5.638,3 H 2 A 1,1 0 0 0 1,4 v 8 a 1,1 0 0 0 1,1 h 12 a 1,1 0 0 0 1,-1 V 5 A 1,1 0 0 0 14,4 H 7.562 A 1,1 0 0 1 6.922,3.768"
  />
  <g fill="#80deea" data-folderIconColor="Go"
     transform="matrix(0.06623486,0,0,0.06507246,0.75668724,4.9306866)">
    <path
      d="m 153.14589,99.380523 c -6.30391,1.606007 -10.60658,2.810517 -16.81043,4.416537 -1.50093,0.4015 -1.601,0.50187 -2.9018,-1.00377 -1.50093,-1.70639 -2.60162,-2.810514 -4.70292,-3.81427 -6.30392,-3.111646 -12.4077,-2.208264 -18.11125,1.50563 -6.80422,4.41653 -10.30639,10.94095 -10.20633,19.07138 0.10006,8.03005 5.60348,14.65485 13.50838,15.75898 6.80423,0.90338 12.50777,-1.50563 17.01056,-6.62479 0.90056,-1.10414 1.70106,-2.30864 2.70168,-3.71391 -3.60224,0 -8.10503,0 -19.31199,0 -2.1013,0 -2.60161,-1.30488 -1.90118,-3.01126 1.30081,-3.11165 3.7023,-8.33119 5.10317,-10.94095 0.30019,-0.60225 1.00062,-1.60601 2.50155,-1.60601 5.10317,0 23.91485,0 36.42261,0 -0.20012,2.71014 -0.20012,5.42028 -0.60037,8.13043 -1.10068,7.22705 -3.80236,13.85184 -8.20509,19.67363 -7.20448,9.53569 -16.61031,15.45785 -28.51771,17.06387 -9.80608,1.30488 -18.91174,-0.60226 -26.916704,-6.6248 -7.404597,-5.62103 -11.607206,-13.04883 -12.707889,-22.2834 -1.300807,-10.94095 1.90118,-20.77776 8.50528,-29.41007 7.10441,-9.334938 16.510253,-15.257102 28.017393,-17.364991 9.40584,-1.706387 18.41143,-0.602254 26.51646,4.918408 5.30329,3.513149 9.10565,8.33118 11.6072,14.152969 0.60038,0.903381 0.20013,1.40526 -1.00062,1.706387 z"/>
    <path
      d="m 186.2,154.70309 c -9.1,-0.20264 -17.4,-2.83703 -24.4,-8.91635 -5.9,-5.16743 -9.6,-11.75337 -10.8,-19.55518 -1.8,-11.44941 1.3,-21.58162 8.1,-30.599298 7.3,-9.726929 16.1,-14.793039 28,-16.920805 10.2,-1.823799 19.8,-0.810577 28.5,5.167431 7.9,5.471398 12.8,12.867916 14.1,22.594842 1.7,13.6785 -2.2,24.82394 -11.5,34.34822 -6.6,6.78859 -14.7,11.04411 -24,12.96923 -2.7,0.50663 -5.4,0.60794 -8,0.91191 z M 210,113.76893 c -0.1,-1.31719 -0.1,-2.33041 -0.3,-3.34363 -1.8,-10.03089 -10.9,-15.704939 -20.4,-13.475851 -9.3,2.127767 -15.3,8.105781 -17.5,17.630061 -1.8,7.90313 2,15.90758 9.2,19.14989 5.5,2.43174 11,2.12777 16.3,-0.60794 7.9,-4.1542 12.2,-10.63882 12.7,-19.35253 z"/>
  </g>
</svg>