<?xml version="1.0" encoding="UTF-8" standalone="no"?>
<!--
  - The MIT License (MIT)
  -
  - Copyright (c) 2015-2026 Elior "Mallowigi" Boukhobza
  -
  - Permission is hereby granted, free of charge, to any person obtaining a copy
  - of this software and associated documentation files (the "Software"), to deal
  - in the Software without restriction, including without limitation the rights
  - to use, copy, modify, merge, publish, distribute, sublicense, and/or sell
  - copies of the Software, and to permit persons to whom the Software is
  - furnished to do so, subject to the following conditions:
  -
  - The above copyright notice and this permission notice shall be included in all
  - copies or substantial portions of the Software.
  -
  - THE SOFTWARE IS PROVIDED "AS IS", WITHOUT WARRANTY OF ANY KIND, EXPRESS OR
  - IMPLIED, INCLUDING BUT NOT LIMITED TO THE WARRANTIES OF MERCHANTABILITY,
  - FITNESS FOR A PARTICULAR PURPOSE AND NONINFRINGEMENT. IN NO EVENT SHALL THE
  - AUTHORS OR COPYRIGHT HOLDERS BE LIABLE FOR ANY CLAIM, DAMAGES OR OTHER
  - LIABILITY, WHETHER IN AN ACTION OF CONTRACT, TORT OR OTHERWISE, ARISING FROM,
  - OUT OF OR IN CONNECTION WITH THE SOFTWARE OR THE USE OR OTHER DEALINGS IN THE
  - SOFTWARE.
  -
  -->

<svg viewBox="0 0 16 16" width="16px" height="16px" xmlns="http://www.w3.org/2000/svg">
  <path fill="#536DFE" data-folderColor="GritQL"
        d="M 6.922,3.768 6.278,3.232 A 1,1 0 0 0 5.638,3 H 2 A 1,1 0 0 0 1,4 v 8 a 1,1 0 0 0 1,1 h 12 a 1,1 0 0 0 1,-1 V 5 A 1,1 0 0 0 14,4 H 7.562 A 1,1 0 0 1 6.922,3.768"
  />
  <g fill="#D1C4E9" data-folderIconColor="GritQL" transform="scale(0.1) translate(60,60)">
    <path
      d="M47.4903 0C21.264 0 0 21.264 0 47.4903C0 56.6782 2.61681 65.2653 7.13324 72.5342L20.2561 70.0143L27.2149 46.2304C28.8431 40.6478 34.4256 37.1394 40.1632 38.1667C41.0549 38.3218 41.9659 38.5156 42.9157 38.7482C45.1836 33.1269 47.2189 23.4544 42.1598 11.6109C41.5783 10.2346 42.2179 8.64517 43.5748 8.06366C44.951 7.48215 46.5405 8.12181 47.122 9.47868C52.7821 22.6984 50.6693 33.6697 48.0912 40.3377C54.8562 42.9351 61.9894 47.9168 66.1569 57.5505C76.2559 80.908 61.4079 85.5795 46.4242 83.0596C46.4242 83.0596 34.6195 80.4815 28.9982 72.1659C28.9982 72.1659 30.7621 81.2569 45.1255 85.7152L40.8417 94.5154C43.0127 94.8255 45.2418 94.9806 47.5097 94.9806C73.736 94.9806 95 73.7166 95 47.4903C95 21.264 73.736 0 47.4903 0ZM60.0316 45.0092C58.7135 43.8074 57.2985 42.7025 55.7672 41.7139C59.4889 36.9261 63.4626 29.1145 62.9198 17.8912C62.8423 16.3987 63.9859 15.1387 65.4785 15.0612C66.971 14.9837 68.231 16.1273 68.3085 17.6199C68.9482 30.4326 64.393 39.4266 60.0316 45.0092Z"
    />
    <path
      d="M45.8039 53.2279C45.8039 50.4754 43.5747 48.2269 40.8028 48.2269C38.0503 48.2269 35.8018 50.456 35.8018 53.2279C35.8018 55.9804 38.031 58.2289 40.8028 58.2289C43.5553 58.2289 45.8039 55.9804 45.8039 53.2279Z"
    />
  </g>
</svg>