<!--
  - The MIT License (MIT)
  -
  - Copyright (c) 2015-2026 Elior "Mallowigi" Boukhobza
  -
  - Permission is hereby granted, free of charge, to any person obtaining a copy
  - of this software and associated documentation files (the "Software"), to deal
  - in the Software without restriction, including without limitation the rights
  - to use, copy, modify, merge, publish, distribute, sublicense, and/or sell
  - copies of the Software, and to permit persons to whom the Software is
  - furnished to do so, subject to the following conditions:
  -
  - The above copyright notice and this permission notice shall be included in all
  - copies or substantial portions of the Software.
  -
  - THE SOFTWARE IS PROVIDED "AS IS", WITHOUT WARRANTY OF ANY KIND, EXPRESS OR
  - IMPLIED, INCLUDING BUT NOT LIMITED TO THE WARRANTIES OF MERCHANTABILITY,
  - FITNESS FOR A PARTICULAR PURPOSE AND NONINFRINGEMENT. IN NO EVENT SHALL THE
  - AUTHORS OR COPYRIGHT HOLDERS BE LIABLE FOR ANY CLAIM, DAMAGES OR OTHER
  - LIABILITY, WHETHER IN AN ACTION OF CONTRACT, TORT OR OTHERWISE, ARISING FROM,
  - OUT OF OR IN CONNECTION WITH THE SOFTWARE OR THE USE OR OTHER DEALINGS IN THE
  - SOFTWARE.
  -
  -->

<svg version="1.1" viewBox="0 0 24 24" xmlns="http://www.w3.org/2000/svg" width="16px" height="16px">
  <path d="m10 4h-6c-1.11 0-2 0.89-2 2v12c0 1.097 0.903 2 2 2h16c1.097 0 2-0.903 2-2v-10c0-1.11-0.9-2-2-2h-8l-2-2z"
        fill="#AC7B69" fill-rule="nonzero" data-folderColor="Metro"/>
  <g transform="translate(9 9)" fill="#EFEBE9" data-folderIconColor="Metro">
    <path
      d="m8 1.2578a2.1878 2.1878 0 0 0-0.97852 0.23047l-4.043 2.0234a1.77 1.77 0 0 0-0.97852 1.582v5.8125a1.77 1.77 0 0 0 0.97852 1.582l4.043 2.0234a2.1878 2.1878 0 0 0 1.957 0l4.043-2.0234a1.77 1.77 0 0 0 0.97852-1.582v-5.8125a1.77 1.77 0 0 0-0.97852-1.582l-4.043-2.0234a2.1878 2.1878 0 0 0-0.97852-0.23047zm0 0.99609a2.156 2.156 0 0 1 0.96484 0.22852l3.0352 1.5176-1.25 0.625-2.75-1.375-2.75 1.375-1.25-0.625 3.0352-1.5176a2.156 2.156 0 0 1 0.96484-0.22852zm-4.3008 2.6562a0.6612 0.6612 0 0 1 0.25781 0.068359l4.043 2.0215 4.043-2.0215a0.6612 0.6612 0 0 1 0.23438-0.066406 0.6612 0.6612 0 0 1 0.72266 0.6582v4.6094a1.731 1.731 0 0 1-0.95703 1.5488l-3.0859 1.543a2.1397 2.1397 0 0 1-1.9141 0l-3.0859-1.543a1.731 1.731 0 0 1-0.95703-1.5488v-4.6094a0.6612 0.6612 0 0 1 0.69922-0.66016zm0.30078 1.3398v4.25l4 2 4-2v-4.25l-3.0996 1.5508a2.0125 2.0125 0 0 1-1.8008 0z"
      stroke-width="0"/>
  </g>
</svg>