<!--
  - The MIT License (MIT)
  -
  - Copyright (c) 2015-2024 Elior "Mallowigi" Boukhobza
  -
  - Permission is hereby granted, free of charge, to any person obtaining a copy
  - of this software and associated documentation files (the "Software"), to deal
  - in the Software without restriction, including without limitation the rights
  - to use, copy, modify, merge, publish, distribute, sublicense, and/or sell
  - copies of the Software, and to permit persons to whom the Software is
  - furnished to do so, subject to the following conditions:
  -
  - The above copyright notice and this permission notice shall be included in all
  - copies or substantial portions of the Software.
  -
  - THE SOFTWARE IS PROVIDED "AS IS", WITHOUT WARRANTY OF ANY KIND, EXPRESS OR
  - IMPLIED, INCLUDING BUT NOT LIMITED TO THE WARRANTIES OF MERCHANTABILITY,
  - FITNESS FOR A PARTICULAR PURPOSE AND NONINFRINGEMENT. IN NO EVENT SHALL THE
  - AUTHORS OR COPYRIGHT HOLDERS BE LIABLE FOR ANY CLAIM, DAMAGES OR OTHER
  - LIABILITY, WHETHER IN AN ACTION OF CONTRACT, TORT OR OTHERWISE, ARISING FROM,
  - OUT OF OR IN CONNECTION WITH THE SOFTWARE OR THE USE OR OTHER DEALINGS IN THE
  - SOFTWARE.
  -
  -->

<svg version="1.1" xmlns="http://www.w3.org/2000/svg" width="16px" height="16px"
     viewBox="0 0 32 32" xml:space="preserve">
  <path d="M10 4H4c-1.11 0-2 .89-2 2v12c0 1.097.903 2 2 2h16c1.097 0 2-.903 2-2V8a2 2 0 0 0-2-2h-8l-2-2z"
        fill="#D65C75" fill-rule="nonzero" data-folderColor="Orders" transform="scale(1.3)"/>
  <path fill="#EBEBEB" d="M27.9,16c0,3.2,0,6.5,0,9.7c0,0.2,0,0.3-0.1,0.5c-0.1,1-0.6,1.5-1.6,1.6c-0.1,0-0.3,0-0.4,0.1
	c-2.6,0-5.1,0-7.7,0c-0.1,0-0.3,0-0.4-0.1c-0.9-0.1-1.4-0.5-1.5-1.4c0-0.2-0.1-0.5-0.1-0.7c0-3.3,0-6.6,0-9.9c0-0.2,0-0.3,0.1-0.5
	c0.1-1,0.5-1.5,1.5-1.6c0.2,0,0.3,0,0.5-0.1c2.5,0,5,0,7.5,0c0.1,0,0.3,0,0.4,0.1c1,0.1,1.4,0.5,1.6,1.4
	C27.8,15.4,27.8,15.7,27.9,16z M22,18.7c0.8,0,1.6,0,2.4,0c0.2,0,0.3,0,0.4-0.1c0.4-0.1,0.6-0.5,0.5-0.9c-0.1-0.4-0.4-0.7-0.8-0.7
	c-1.6,0-3.2,0-4.9,0c-0.6,0-1,0.3-1,0.8c0,0.5,0.4,0.8,0.9,0.8C20.4,18.7,21.2,18.7,22,18.7z M22.1,20.4c-0.8,0-1.6,0-2.4,0
	c-0.6,0-0.9,0.3-0.9,0.9c0,0.5,0.4,0.8,0.9,0.8c1.6,0,3.2,0,4.8,0c0.6,0,0.9-0.3,0.9-0.8c0-0.5-0.4-0.9-0.9-0.9
	C23.6,20.4,22.9,20.4,22.1,20.4z M21.2,23.7c-0.5,0-1,0-1.6,0c-0.5,0-0.9,0.3-0.9,0.8c0,0.5,0.4,0.8,0.9,0.8c1.1,0,2.1,0,3.2,0
	c0.6,0,0.9-0.3,0.9-0.8c0-0.5-0.4-0.8-0.9-0.8C22.3,23.7,21.7,23.7,21.2,23.7z"/>
</svg>
