<!--
  - The MIT License (MIT)
  -
  - Copyright (c) 2015-2024 Elior "Mallowigi" Boukhobza
  -
  - Permission is hereby granted, free of charge, to any person obtaining a copy
  - of this software and associated documentation files (the "Software"), to deal
  - in the Software without restriction, including without limitation the rights
  - to use, copy, modify, merge, publish, distribute, sublicense, and/or sell
  - copies of the Software, and to permit persons to whom the Software is
  - furnished to do so, subject to the following conditions:
  -
  - The above copyright notice and this permission notice shall be included in all
  - copies or substantial portions of the Software.
  -
  - THE SOFTWARE IS PROVIDED "AS IS", WITHOUT WARRANTY OF ANY KIND, EXPRESS OR
  - IMPLIED, INCLUDING BUT NOT LIMITED TO THE WARRANTIES OF MERCHANTABILITY,
  - FITNESS FOR A PARTICULAR PURPOSE AND NONINFRINGEMENT. IN NO EVENT SHALL THE
  - AUTHORS OR COPYRIGHT HOLDERS BE LIABLE FOR ANY CLAIM, DAMAGES OR OTHER
  - LIABILITY, WHETHER IN AN ACTION OF CONTRACT, TORT OR OTHERWISE, ARISING FROM,
  - OUT OF OR IN CONNECTION WITH THE SOFTWARE OR THE USE OR OTHER DEALINGS IN THE
  - SOFTWARE.
  -
  -->

<svg version="1.1" xmlns="http://www.w3.org/2000/svg" width="16px" height="16px"
     viewBox="0 0 32 32" xml:space="preserve">
  <path d="M10 4H4c-1.11 0-2 .89-2 2v12c0 1.097.903 2 2 2h16c1.097 0 2-.903 2-2V8a2 2 0 0 0-2-2h-8l-2-2z"
        fill="#6F6D59" fill-rule="nonzero" data-folderColor="Skeletons" transform="scale(1.3)"/>
  <path fill="#EBEBEB" data-folderIconColor="Skeletons" d="M21.6,28.8c-1,0-1.9-0.2-2.9-0.5c-0.3-0.1-0.5-0.4-0.6-0.7c-0.1-0.3-0.2-0.7-0.2-1c-0.1-0.5-0.4-0.7-1-0.7
	c-0.2,0-0.4,0-0.6-0.1c-0.6-0.1-0.9-0.5-1-1.1c-0.1-0.4,0-0.7,0.2-1c0.2-0.3,0.4-0.6,0.4-0.9c0-0.3,0-0.6-0.1-0.9
	c-0.6-1.4-0.5-2.7,0-4.1c0.6-1.5,1.6-2.7,3.1-3.4c2.3-1,4.5-0.8,6.5,0.8c1.3,1,2,2.5,2.2,4.1c0.1,0.8-0.1,1.7-0.4,2.4
	c-0.2,0.7-0.2,1.3,0.2,1.9c0.4,0.5,0.4,1,0.1,1.6c-0.2,0.3-0.4,0.5-0.8,0.5c-0.2,0-0.4,0.1-0.6,0.1c-0.5,0-0.8,0.3-1,0.7
	c-0.1,0.3-0.2,0.6-0.2,0.9c-0.1,0.4-0.3,0.7-0.7,0.8C23.5,28.6,22.6,28.8,21.6,28.8z M18.8,24.5c0.2,0,0.4,0,0.6-0.1
	c0.7-0.1,1.2-0.5,1.4-1.2c0.2-0.8,0-1.3-0.8-1.6c-0.6-0.2-1.1-0.3-1.7-0.2c-0.4,0.1-0.8,0.3-1,0.7c-0.1,0.2-0.1,0.3-0.2,0.5
	c-0.2,0.8,0.1,1.4,0.8,1.7C18.2,24.5,18.5,24.5,18.8,24.5z M24.5,21.4c-0.5,0-1,0.1-1.4,0.3c-0.6,0.3-0.8,0.7-0.8,1.3
	c0.1,0.6,0.4,1.1,1,1.4c0.5,0.2,1,0.3,1.5,0.2c0.7-0.1,1.2-0.6,1.3-1.3c0-0.4,0-0.8-0.2-1.1c-0.2-0.3-0.4-0.5-0.8-0.6
	C24.9,21.4,24.7,21.4,24.5,21.4z M22.6,26.6C22.6,26.6,22.6,26.6,22.6,26.6c0-0.1-0.1-0.2-0.1-0.3c-0.2-0.3-0.5-0.6-0.5-1
	c0-0.2-0.2-0.4-0.4-0.4c-0.2,0-0.4,0.2-0.4,0.4c0,0.2-0.1,0.3-0.1,0.5c-0.1,0.2-0.2,0.4-0.4,0.5c-0.2,0.2-0.1,0.4,0,0.6
	c0.2,0.2,0.4,0.2,0.6,0c0.2-0.2,0.4-0.2,0.7,0c0.1,0.1,0.3,0.2,0.5,0.1C22.5,27,22.6,26.8,22.6,26.6z"/>
</svg>
