<svg clip-rule="evenodd" fill-rule="evenodd" stroke-linejoin="round"
     stroke-miterlimit="1.4142" version="1.1" width="16px" height="16px"
     viewBox="0 0 24 24" xml:space="preserve" xmlns="http://www.w3.org/2000/svg">
    <path d="m10 4h-6c-1.11 0-2 .89-2 2v12c0 1.097.903 2 2 2h16c1.097 0 2-.903 2-2v-10c0-1.11-.9-2-2-2h-8l-2-2z"
          fill="#ec407a"/>
    <path transform="scale(0.7) translate(10 10)"
          d="m15.787 13.71c-.27458 0-.58704 0-.91844.04734 1.0983.79535 1.8653 1.8463 1.8653 3.2666v2.3671h5.681v-2.3671c0-2.2061-4.4217-3.3139-6.6279-3.3139m-7.5747 0c-2.2061 0-6.6279 1.1078-6.6279 3.3139v2.3671h13.256v-2.3671c0-2.2061-4.4217-3.3139-6.6279-3.3139m0-1.8937a2.8405 2.8405 0 0 0 2.8405 -2.8405 2.8405 2.8405 0 0 0 -2.8405 -2.8405 2.8405 2.8405 0 0 0 -2.8405 2.8405 2.8405 2.8405 0 0 0 2.8405 2.8405m7.5747 0a2.8405 2.8405 0 0 0 2.8405 -2.8405 2.8405 2.8405 0 0 0 -2.8405 -2.8405 2.8405 2.8405 0 0 0 -2.8405 2.8405 2.8405 2.8405 0 0 0 2.8405 2.8405z"
          stroke-width=".94684" fill="#f8bbd0"/>
</svg>