<svg clip-rule="evenodd" fill-rule="evenodd" stroke-linejoin="round" stroke-miterlimit="1.414" version="1.1"
     viewBox="0 0 24 24" xmlns="http://www.w3.org/2000/svg" width="16px" height="16px">
    <path d="m10 4h-6c-1.11 0-2 .89-2 2v12c0 1.097.903 2 2 2h16c1.097 0 2-.903 2-2v-10c0-1.11-.9-2-2-2h-8l-2-2z"
          fill="#26A69A" fill-rule="nonzero"/>
    <path fill="#B2DFDB" transform="scale(0.03) translate(280 280)"
          d="M506.9 36.7l-63.1-36.7-126.1 73.4v34.5l-64 166.8-63.6-165v-36.2l-126.7-73.5-63.3 36.6-0.1 37.3 158.6 383.6 95.1 54.4 94.9-54.7 158.7-384-0.4-36.5z"/>
</svg>
