<svg clip-rule="evenodd" fill-rule="evenodd" stroke-linejoin="round"
     stroke-miterlimit="1.4142" version="1.1" viewBox="0 0 24 24" width="16px" height="16px"
     xml:space="preserve" xmlns="http://www.w3.org/2000/svg">
    <path d="m10 4h-6c-1.11 0-2 0.89-2 2v12c0 1.097 0.903 2 2 2h16c1.097 0 2-0.903 2-2v-10c0-1.11-0.9-2-2-2h-8l-2-2z"
          fill="#6AAB20" fill-rule="nonzero"/>
    <path fill="#F0F4C3" transform="translate(10 10)"
          d="M4.18,13H3.063L2.74,12.815V3.268H2.2L2,3.071V2.232L2.216,2H6.5L6.766,2.259V3.054L6.559,3.3H6.09V7.25L10.126,3.3H9.459l-0.234-.25V2.214l0.216-.2h4.342L14,2.232V3.018Z"
    />
</svg>
