<!--
  - The MIT License (MIT)
  -
  - Copyright (c) 2015-2026 Elior "Mallowigi" Boukhobza
  -
  - Permission is hereby granted, free of charge, to any person obtaining a copy
  - of this software and associated documentation files (the "Software"), to deal
  - in the Software without restriction, including without limitation the rights
  - to use, copy, modify, merge, publish, distribute, sublicense, and/or sell
  - copies of the Software, and to permit persons to whom the Software is
  - furnished to do so, subject to the following conditions:
  -
  - The above copyright notice and this permission notice shall be included in all
  - copies or substantial portions of the Software.
  -
  - THE SOFTWARE IS PROVIDED "AS IS", WITHOUT WARRANTY OF ANY KIND, EXPRESS OR
  - IMPLIED, INCLUDING BUT NOT LIMITED TO THE WARRANTIES OF MERCHANTABILITY,
  - FITNESS FOR A PARTICULAR PURPOSE AND NONINFRINGEMENT. IN NO EVENT SHALL THE
  - AUTHORS OR COPYRIGHT HOLDERS BE LIABLE FOR ANY CLAIM, DAMAGES OR OTHER
  - LIABILITY, WHETHER IN AN ACTION OF CONTRACT, TORT OR OTHERWISE, ARISING FROM,
  - OUT OF OR IN CONNECTION WITH THE SOFTWARE OR THE USE OR OTHER DEALINGS IN THE
  - SOFTWARE.
  -
  -->

<svg viewBox="0 0 16 16" xmlns="http://www.w3.org/2000/svg" width="16px" height="16px">
  <path data-iconColor="Bashly"
        d="M1 2v12a1 1 0 001 1h4v-3H3v-2h5.5c.288 0 .5-.212.5-.5 0-.288-.212-.5-.5-.5h-3A2.515 2.515 0 013 6.5C3 5.131 4.131 4 5.5 4H6V1H2a1 1 0 00-1 1zm7-1v3h3v2H5.5c-.288 0-.5.212-.5.5 0 .288.212.5.5.5h3C9.869 7 11 8.131 11 9.5S9.869 12 8.5 12H8v3h2a1.723 1.723 0 001.496-.868L15 8l-3.504-6.132A1.723 1.723 0 0010 1z"
        fill="#ff7043"/>
</svg>