<!--
  - The MIT License (MIT)
  -
  - Copyright (c) 2015-2026 Elior "Mallowigi" Boukhobza
  -
  - Permission is hereby granted, free of charge, to any person obtaining a copy
  - of this software and associated documentation files (the "Software"), to deal
  - in the Software without restriction, including without limitation the rights
  - to use, copy, modify, merge, publish, distribute, sublicense, and/or sell
  - copies of the Software, and to permit persons to whom the Software is
  - furnished to do so, subject to the following conditions:
  -
  - The above copyright notice and this permission notice shall be included in all
  - copies or substantial portions of the Software.
  -
  - THE SOFTWARE IS PROVIDED "AS IS", WITHOUT WARRANTY OF ANY KIND, EXPRESS OR
  - IMPLIED, INCLUDING BUT NOT LIMITED TO THE WARRANTIES OF MERCHANTABILITY,
  - FITNESS FOR A PARTICULAR PURPOSE AND NONINFRINGEMENT. IN NO EVENT SHALL THE
  - AUTHORS OR COPYRIGHT HOLDERS BE LIABLE FOR ANY CLAIM, DAMAGES OR OTHER
  - LIABILITY, WHETHER IN AN ACTION OF CONTRACT, TORT OR OTHERWISE, ARISING FROM,
  - OUT OF OR IN CONNECTION WITH THE SOFTWARE OR THE USE OR OTHER DEALINGS IN THE
  - SOFTWARE.
  -
  -->

<svg xmlns="http://www.w3.org/2000/svg" width="16px" height="16px" viewBox="0 0 24 24">
  <path data-iconColor="Crush" fill="#e91e63"
        d="M7.5 4A5.5 5.5 0 0 0 2 9.5c0 .5.09 1 .22 1.5H6.3l1.27-3.37c.3-.8 1.48-.88 1.86 0L11.5 13l.59-1.42c.13-.33.48-.58.91-.58h8.78c.13-.5.22-1 .22-1.5A5.5 5.5 0 0 0 16.5 4c-1.86 0-3.5.93-4.5 2.34C11 4.93 9.36 4 7.5 4M3 12.5a1 1 0 0 0-1 1a1 1 0 0 0 1 1h2.44L11 20c1 .9 1 .9 2 0l5.56-5.5H21a1 1 0 0 0 1-1a1 1 0 0 0-1-1h-7.6l-.93 2.3c-.4 1.01-1.55.87-1.92.03L8.5 9.5l-.96 2.33c-.15.38-.49.67-.94.67z"/>
</svg>