<!--
  - The MIT License (MIT)
  -
  - Copyright (c) 2015-2026 Elior "Mallowigi" Boukhobza
  -
  - Permission is hereby granted, free of charge, to any person obtaining a copy
  - of this software and associated documentation files (the "Software"), to deal
  - in the Software without restriction, including without limitation the rights
  - to use, copy, modify, merge, publish, distribute, sublicense, and/or sell
  - copies of the Software, and to permit persons to whom the Software is
  - furnished to do so, subject to the following conditions:
  -
  - The above copyright notice and this permission notice shall be included in all
  - copies or substantial portions of the Software.
  -
  - THE SOFTWARE IS PROVIDED "AS IS", WITHOUT WARRANTY OF ANY KIND, EXPRESS OR
  - IMPLIED, INCLUDING BUT NOT LIMITED TO THE WARRANTIES OF MERCHANTABILITY,
  - FITNESS FOR A PARTICULAR PURPOSE AND NONINFRINGEMENT. IN NO EVENT SHALL THE
  - AUTHORS OR COPYRIGHT HOLDERS BE LIABLE FOR ANY CLAIM, DAMAGES OR OTHER
  - LIABILITY, WHETHER IN AN ACTION OF CONTRACT, TORT OR OTHERWISE, ARISING FROM,
  - OUT OF OR IN CONNECTION WITH THE SOFTWARE OR THE USE OR OTHER DEALINGS IN THE
  - SOFTWARE.
  -
  -->

<svg width="16px" height="16px" viewBox="0 0 24 24" role="img" xmlns="http://www.w3.org/2000/svg">
  <path fill="#FF6E40" data-iconColor="DBT"
        d="M17.9 9.376a8.149 8.149 0 0 0-3.042-3.12l1.771.838a10.287 10.287 0 0 1 3.74 3l3.234-5.929a2.855 2.855 0 0 0-.061-2.96 2.726 2.726 0 0 0-3.567-.872L14.1 3.543a4.361 4.361 0 0 1-4.176 0L4.177.408a2.854 2.854 0 0 0-2.96.063 2.726 2.726 0 0 0-.872 3.566L3.55 9.91a4.361 4.361 0 0 1 0 4.177L.423 19.83a2.86 2.86 0 0 0 .085 2.997 2.726 2.726 0 0 0 3.545.839l6.058-3.305a10.288 10.288 0 0 1-3.005-3.746l-.838-1.77a8.148 8.148 0 0 0 3.12 3.042l10.584 5.779a2.726 2.726 0 0 0 3.543-.837 2.87 2.87 0 0 0 .08-3.001L17.9 9.376zm3.38-7.735a1.09 1.09 0 1 1 0 2.181 1.09 1.09 0 0 1 0-2.18zM2.744 3.822a1.09 1.09 0 1 1 0-2.18 1.09 1.09 0 0 1 0 2.18zm0 18.536a1.09 1.09 0 1 1 0-2.18 1.09 1.09 0 0 1 0 2.18zM13.103 10.91a2.174 2.174 0 0 0-2.18 2.168 2.174 2.174 0 0 0 .704 1.61 2.72 2.72 0 1 1 .758-5.386 2.72 2.72 0 0 1 2.314 2.314 2.162 2.162 0 0 0-1.596-.706zm8.177 11.45a1.09 1.09 0 1 1 0-2.182 1.09 1.09 0 0 1 0 2.181z"/>
</svg>