<!--
  - The MIT License (MIT)
  -
  - Copyright (c) 2015-2026 Elior "Mallowigi" Boukhobza
  -
  - Permission is hereby granted, free of charge, to any person obtaining a copy
  - of this software and associated documentation files (the "Software"), to deal
  - in the Software without restriction, including without limitation the rights
  - to use, copy, modify, merge, publish, distribute, sublicense, and/or sell
  - copies of the Software, and to permit persons to whom the Software is
  - furnished to do so, subject to the following conditions:
  -
  - The above copyright notice and this permission notice shall be included in all
  - copies or substantial portions of the Software.
  -
  - THE SOFTWARE IS PROVIDED "AS IS", WITHOUT WARRANTY OF ANY KIND, EXPRESS OR
  - IMPLIED, INCLUDING BUT NOT LIMITED TO THE WARRANTIES OF MERCHANTABILITY,
  - FITNESS FOR A PARTICULAR PURPOSE AND NONINFRINGEMENT. IN NO EVENT SHALL THE
  - AUTHORS OR COPYRIGHT HOLDERS BE LIABLE FOR ANY CLAIM, DAMAGES OR OTHER
  - LIABILITY, WHETHER IN AN ACTION OF CONTRACT, TORT OR OTHERWISE, ARISING FROM,
  - OUT OF OR IN CONNECTION WITH THE SOFTWARE OR THE USE OR OTHER DEALINGS IN THE
  - SOFTWARE.
  -
  -->

<svg xmlns="http://www.w3.org/2000/svg" width="16px" height="16px" viewBox="0 0 32 32">
  <path fill="#F06292" data-iconColor="Glow"
        d="M11.998 21a2.07 2.07 0 0 1-1.96-1.391l-.791-2.431a3.8 3.8 0 0 0-.927-1.504a3.85 3.85 0 0 0-1.505-.934l-2.401-.781a2.076 2.076 0 0 1-1.037-3.163c.248-.354.6-.622 1.008-.766l2.439-.79a3.85 3.85 0 0 0 2.36-2.381l.798-2.454c.14-.417.41-.778.77-1.031a2.11 2.11 0 0 1 2.4 0c.35.247.614.596.756 1l.795 2.44a3.83 3.83 0 0 0 2.43 2.426l2.405.78c.436.139.815.415 1.082.787a2.07 2.07 0 0 1 0 2.393c-.247.35-.596.615-1 .759l-2.443.794a3.8 3.8 0 0 0-1.496.925c-.421.423-.74.938-.929 1.504l-.78 2.402a2.2 2.2 0 0 1-.768 1.033c-.352.25-.774.385-1.206.383m11.506 9a1.73 1.73 0 0 1-1.64-1.16l-.548-1.676a2.3 2.3 0 0 0-.559-.914a2.36 2.36 0 0 0-.914-.565l-1.653-.535a1.75 1.75 0 0 1-.867-.65a1.732 1.732 0 0 1 .841-2.643l1.681-.548a2.33 2.33 0 0 0 1.439-1.47l.535-1.65a1.732 1.732 0 0 1 2.654-.866c.295.207.517.502.634.842l.546 1.676a2.33 2.33 0 0 0 1.474 1.468l1.655.54a1.732 1.732 0 0 1 .05 3.292l-1.673.546a2.3 2.3 0 0 0-.91.56a2.36 2.36 0 0 0-.563.912l-.538 1.65a1.76 1.76 0 0 1-.65.866a1.73 1.73 0 0 1-.994.325"/>
</svg>