<!--
  - The MIT License (MIT)
  -
  - Copyright (c) 2015-2026 Elior "Mallowigi" Boukhobza
  -
  - Permission is hereby granted, free of charge, to any person obtaining a copy
  - of this software and associated documentation files (the "Software"), to deal
  - in the Software without restriction, including without limitation the rights
  - to use, copy, modify, merge, publish, distribute, sublicense, and/or sell
  - copies of the Software, and to permit persons to whom the Software is
  - furnished to do so, subject to the following conditions:
  -
  - The above copyright notice and this permission notice shall be included in all
  - copies or substantial portions of the Software.
  -
  - THE SOFTWARE IS PROVIDED "AS IS", WITHOUT WARRANTY OF ANY KIND, EXPRESS OR
  - IMPLIED, INCLUDING BUT NOT LIMITED TO THE WARRANTIES OF MERCHANTABILITY,
  - FITNESS FOR A PARTICULAR PURPOSE AND NONINFRINGEMENT. IN NO EVENT SHALL THE
  - AUTHORS OR COPYRIGHT HOLDERS BE LIABLE FOR ANY CLAIM, DAMAGES OR OTHER
  - LIABILITY, WHETHER IN AN ACTION OF CONTRACT, TORT OR OTHERWISE, ARISING FROM,
  - OUT OF OR IN CONNECTION WITH THE SOFTWARE OR THE USE OR OTHER DEALINGS IN THE
  - SOFTWARE.
  -
  -->

<svg version="1.1" viewBox="0 0 16 16" xmlns="http://www.w3.org/2000/svg" width="16px" height="16px">
  <path data-iconColor="Happo"
        d="m7.3322 4.707c-1.6414 0-1.459-1.7142-0.63831-1.7142 0.82068 0 1.2766 0.99245 1.2766 0.99245 0.18237-0.18045 0.91187-1.1729 1.2766-0.81201 0.27356 0.36089 0.63831 0.63156 0.72949 0.63156 1.8237-1.7142 2.3709-1.9849 3.1003-1.7142 2.0061 0.72178 2.462 3.0676 1.2766 4.2405-0.82068 0.90223-3.1003 0.54134-3.1003 0.54134l0.82068 0.99245c-0.72949 0.99245-2.0973 0.54134-2.0973 0.54134 1.459 3.0676-0.72949 5.5938-0.72949 5.5938h-2.0973s0.27356-1.624-1.3678-1.5338c-1.459 0-1.1854 1.5338-1.1854 1.5338h-2.2797c-0.18237-0.45112-2.5532-3.4285-0.45593-6.4961 2.0061-2.8871 5.1065-1.9849 5.1065-1.9849l0.45593-0.72178zm1.8237-0.45112c-0.27356 0-0.54712 0.27067-0.54712 0.54134 0 0.27067 0.27356 0.54134 0.54712 0.54134 0.27356 0 0.54712-0.27067 0.54712-0.54134 0-0.27067-0.27356-0.54134-0.54712-0.54134z"
        fill="#00bfa5" stroke-width=".90704"/>
</svg>