<!--
  - The MIT License (MIT)
  -
  - Copyright (c) 2015-2024 Elior "Mallowigi" Boukhobza
  -
  - Permission is hereby granted, free of charge, to any person obtaining a copy
  - of this software and associated documentation files (the "Software"), to deal
  - in the Software without restriction, including without limitation the rights
  - to use, copy, modify, merge, publish, distribute, sublicense, and/or sell
  - copies of the Software, and to permit persons to whom the Software is
  - furnished to do so, subject to the following conditions:
  -
  - The above copyright notice and this permission notice shall be included in all
  - copies or substantial portions of the Software.
  -
  - THE SOFTWARE IS PROVIDED "AS IS", WITHOUT WARRANTY OF ANY KIND, EXPRESS OR
  - IMPLIED, INCLUDING BUT NOT LIMITED TO THE WARRANTIES OF MERCHANTABILITY,
  - FITNESS FOR A PARTICULAR PURPOSE AND NONINFRINGEMENT. IN NO EVENT SHALL THE
  - AUTHORS OR COPYRIGHT HOLDERS BE LIABLE FOR ANY CLAIM, DAMAGES OR OTHER
  - LIABILITY, WHETHER IN AN ACTION OF CONTRACT, TORT OR OTHERWISE, ARISING FROM,
  - OUT OF OR IN CONNECTION WITH THE SOFTWARE OR THE USE OR OTHER DEALINGS IN THE
  - SOFTWARE.
  -->

<svg data-big="true" width="16px" height="16px" xmlns="http://www.w3.org/2000/svg" fill="none" viewBox="0 0 24 24">
  <path fill="#EF6C00" data-iconColor="Knip"
        d="m18.957 2.998-5.985 5.984 1.995 1.995 6.983-6.982v-.998m-9.975 9.477a.5.5 0 1 1 0-.998.5.5 0 0 1 0 .998ZM5.99 19.955a1.995 1.995 0 1 1 0-3.99 1.995 1.995 0 0 1 0 3.99Zm0-11.97a1.995 1.995 0 1 1 0-3.99 1.995 1.995 0 0 1 0 3.99Zm3.63-.36c.23-.498.36-1.046.36-1.635a3.99 3.99 0 1 0-3.99 3.99c.589 0 1.137-.13 1.636-.36l2.354 2.355-2.354 2.354a3.887 3.887 0 0 0-1.636-.359 3.99 3.99 0 1 0 3.99 3.99c0-.588-.13-1.137-.36-1.636l2.355-2.354 6.982 6.982h2.993v-.997L9.62 7.625Z"/>
</svg>
