<!--
  - The MIT License (MIT)
  -
  - Copyright (c) 2015-2025 Elior "Mallowigi" Boukhobza
  -
  - Permission is hereby granted, free of charge, to any person obtaining a copy
  - of this software and associated documentation files (the "Software"), to deal
  - in the Software without restriction, including without limitation the rights
  - to use, copy, modify, merge, publish, distribute, sublicense, and/or sell
  - copies of the Software, and to permit persons to whom the Software is
  - furnished to do so, subject to the following conditions:
  -
  - The above copyright notice and this permission notice shall be included in all
  - copies or substantial portions of the Software.
  -
  - THE SOFTWARE IS PROVIDED "AS IS", WITHOUT WARRANTY OF ANY KIND, EXPRESS OR
  - IMPLIED, INCLUDING BUT NOT LIMITED TO THE WARRANTIES OF MERCHANTABILITY,
  - FITNESS FOR A PARTICULAR PURPOSE AND NONINFRINGEMENT. IN NO EVENT SHALL THE
  - AUTHORS OR COPYRIGHT HOLDERS BE LIABLE FOR ANY CLAIM, DAMAGES OR OTHER
  - LIABILITY, WHETHER IN AN ACTION OF CONTRACT, TORT OR OTHERWISE, ARISING FROM,
  - OUT OF OR IN CONNECTION WITH THE SOFTWARE OR THE USE OR OTHER DEALINGS IN THE
  - SOFTWARE.
  -
  -->

<svg viewBox="0 0 32 32" xmlns="http://www.w3.org/2000/svg" width="16px" height="16px" data-big="true" data-iconColor="Lyric">
    <path fill="#50c5ef" data-iconColor="Lyric"
          d="M26,7.7L26,7.7c0-0.1-0.1-0.2-0.2-0.3l-5.2-5.2C20.5,2.1,20.3,2,20.2,2h-0.1c-0.1,0-0.1,0,0,0c0,0,0,0-0.1,0H7.7C6.7,2.1,6,2.8,6,3.8v24.5c0,1,0.8,1.7,1.7,1.7h16.6c1,0,1.7-0.8,1.7-1.7V7.9V7.7C26,7.8,26,7.8,26,7.7z M22,12h-4v8c0,2.2-1.8,4-4,4s-4-1.8-4-4s1.8-4,4-4c0.7,0,1.4,0.2,2,0.6V8h6V12z"/>
</svg>
