<!--
  - The MIT License (MIT)
  -
  - Copyright (c) 2015-2022 Elior "Mallowigi" Boukhobza
  -
  - Permission is hereby granted, free of charge, to any person obtaining a copy
  - of this software and associated documentation files (the "Software"), to deal
  - in the Software without restriction, including without limitation the rights
  - to use, copy, modify, merge, publish, distribute, sublicense, and/or sell
  - copies of the Software, and to permit persons to whom the Software is
  - furnished to do so, subject to the following conditions:
  -
  - The above copyright notice and this permission notice shall be included in all
  - copies or substantial portions of the Software.
  -
  - THE SOFTWARE IS PROVIDED "AS IS", WITHOUT WARRANTY OF ANY KIND, EXPRESS OR
  - IMPLIED, INCLUDING BUT NOT LIMITED TO THE WARRANTIES OF MERCHANTABILITY,
  - FITNESS FOR A PARTICULAR PURPOSE AND NONINFRINGEMENT. IN NO EVENT SHALL THE
  - AUTHORS OR COPYRIGHT HOLDERS BE LIABLE FOR ANY CLAIM, DAMAGES OR OTHER
  - LIABILITY, WHETHER IN AN ACTION OF CONTRACT, TORT OR OTHERWISE, ARISING FROM,
  - OUT OF OR IN CONNECTION WITH THE SOFTWARE OR THE USE OR OTHER DEALINGS IN THE
  - SOFTWARE.
  -
  -
  -->

<svg big="true" version="1.1" xmlns="http://www.w3.org/2000/svg" viewBox="0 0 16 16"><g iconColor="Netlify Dark"><path fill="#fff" d="M15.65,6.85L9.15,.35l-.24-.24-.27-.11h-1.29l-.27,.11-.24,.24L.35,6.85l-.24,.24-.11,.27v1.29l.11,.27,.24,.24,6.5,6.5,.24,.24,.27,.11h1.29l.27-.11,.24-.24,6.5-6.5,.24-.24,.11-.27v-1.29l-.11-.27-.24-.24Z"/><path fill="#05bdba" d="M7.42,14.5v-3.12l.08-.08h.99l.08,.08v3.12l-.08,.08h-.99l-.08-.08Z"/><path fill="#05bdba" d="M7.42,4.62V1.5l.08-.08h.99l.08,.08v3.12l-.08,.08h-.99l-.08-.08Z"/><path fill="#05bdba" d="M4.8,12.19h-.14l-.68-.68v-.14l.91-.91h.72s.1,.1,.1,.1v.72l-.91,.91Z"/><path fill="#05bdba" d="M3.98,4.66v-.14l.68-.68h.14l.91,.91v.72l-.1,.1h-.72l-.91-.91Z"/><path fill="#05bdba" d="M1.23,7.42h3.51l.08,.08v.99l-.08,.08H1.23l-.08-.08v-.99l.08-.08Z"/><path fill="#014847" d="M9.86,10.07h-.99l-.08-.08v-2.32c0-.41-.16-.73-.66-.74-.26,0-.55,0-.86,.01l-.05,.05v3.01s-.08,.08-.08,.08h-.99l-.08-.08v-3.97l.08-.08h2.23c.87,0,1.57,.7,1.57,1.57v2.48l-.08,.08h0Z"/><path fill="#05bdba" d="M14.77,8.58h-3.51l-.08-.08v-.99l.08-.08h3.51l.08,.08v.99l-.08,.08Z"/></g></svg>