<?xml version="1.0" encoding="utf-8"?>
<!--
  - The MIT License (MIT)
  -
  - Copyright (c) 2015-2024 Elior "Mallowigi" Boukhobza
  -
  - Permission is hereby granted, free of charge, to any person obtaining a copy
  - of this software and associated documentation files (the "Software"), to deal
  - in the Software without restriction, including without limitation the rights
  - to use, copy, modify, merge, publish, distribute, sublicense, and/or sell
  - copies of the Software, and to permit persons to whom the Software is
  - furnished to do so, subject to the following conditions:
  -
  - The above copyright notice and this permission notice shall be included in all
  - copies or substantial portions of the Software.
  -
  - THE SOFTWARE IS PROVIDED "AS IS", WITHOUT WARRANTY OF ANY KIND, EXPRESS OR
  - IMPLIED, INCLUDING BUT NOT LIMITED TO THE WARRANTIES OF MERCHANTABILITY,
  - FITNESS FOR A PARTICULAR PURPOSE AND NONINFRINGEMENT. IN NO EVENT SHALL THE
  - AUTHORS OR COPYRIGHT HOLDERS BE LIABLE FOR ANY CLAIM, DAMAGES OR OTHER
  - LIABILITY, WHETHER IN AN ACTION OF CONTRACT, TORT OR OTHERWISE, ARISING FROM,
  - OUT OF OR IN CONNECTION WITH THE SOFTWARE OR THE USE OR OTHER DEALINGS IN THE
  - SOFTWARE.
  -
  -->

<svg version="1.1"  width="16px" height="16px" xmlns="http://www.w3.org/2000/svg" xmlns:xlink="http://www.w3.org/1999/xlink"
     x="0px" y="0px" viewBox="0 0 300 300" style="enable-background:new 0 0 300 300;" xml:space="preserve">
  <g fill="#D82619" data-iconColor="NextJS Error">
	<path class="st0" d="M124.9,188.3L112,36.9c-0.8-8.7,6.3-16.3,15.4-16.3h45.6c8.9,0,16,7.4,15.4,16.2l-11.2,151.3
		c-0.6,7.9-7.2,14-15.4,14h-21.4C132.3,202.1,125.7,196.1,124.9,188.3z M130.6,224.8H170c6,0,10.8,5.4,10.8,11.9v31
		c0,6.6-4.8,11.9-10.8,11.9h-39.4c-6,0-10.8-5.4-10.8-11.9v-31C119.8,230.2,124.6,224.8,130.6,224.8z"/>
</g>
</svg>
