<?xml version="1.0" encoding="UTF-8" standalone="no"?>
<!--
  - The MIT License (MIT)
  -
  - Copyright (c) 2015-2026 Elior "Mallowigi" Boukhobza
  -
  - Permission is hereby granted, free of charge, to any person obtaining a copy
  - of this software and associated documentation files (the "Software"), to deal
  - in the Software without restriction, including without limitation the rights
  - to use, copy, modify, merge, publish, distribute, sublicense, and/or sell
  - copies of the Software, and to permit persons to whom the Software is
  - furnished to do so, subject to the following conditions:
  -
  - The above copyright notice and this permission notice shall be included in all
  - copies or substantial portions of the Software.
  -
  - THE SOFTWARE IS PROVIDED "AS IS", WITHOUT WARRANTY OF ANY KIND, EXPRESS OR
  - IMPLIED, INCLUDING BUT NOT LIMITED TO THE WARRANTIES OF MERCHANTABILITY,
  - FITNESS FOR A PARTICULAR PURPOSE AND NONINFRINGEMENT. IN NO EVENT SHALL THE
  - AUTHORS OR COPYRIGHT HOLDERS BE LIABLE FOR ANY CLAIM, DAMAGES OR OTHER
  - LIABILITY, WHETHER IN AN ACTION OF CONTRACT, TORT OR OTHERWISE, ARISING FROM,
  - OUT OF OR IN CONNECTION WITH THE SOFTWARE OR THE USE OR OTHER DEALINGS IN THE
  - SOFTWARE.
  -
  -->

<svg viewBox="0 0 32 32" xmlns="http://www.w3.org/2000/svg" width="16px" height="16px">
  <g fill="#FFCA28" data-iconColor="OpenTofu">
    <path
      d="m 15.728601,1.0694958 c 0.167017,-0.0926611 0.367432,-0.0926611 0.534448,0 l 11.858036,6.5788985 c 0.384135,0.2105921 0.384135,0.7665552 0,0.9771475 L 16.263049,15.20444 c -0.167016,0.09266 -0.367431,0.09266 -0.534448,0 L 3.8705637,8.625542 C 3.48643,8.4149496 3.48643,7.8589864 3.8705637,7.6483943 Z"
    />
    <path
      d="M 29.18163,10.167075 C 29.549061,9.9649091 30,10.234466 30,10.655649 v 13.149376 c 0,0.202167 -0.108559,0.395912 -0.283925,0.488571 L 17.74113,30.931463 C 17.373694,31.13363 16.922754,30.86408 16.922754,30.44289 V 17.293515 c 0,-0.202168 0.108562,-0.395912 0.283925,-0.488573 z"
    />
    <path
      d="M 14.784967,16.804942 2.8183714,10.167075 C 2.4509394,9.9649091 2,10.234464 2,10.655649 v 13.149376 c 0,0.202167 0.1085596,0.395912 0.2839249,0.488571 l 11.9749461,6.637867 c 0.367435,0.202167 0.818375,-0.06738 0.818375,-0.488573 V 17.293515 c 0,-0.202168 -0.108562,-0.395912 -0.283925,-0.488573 z M 7.0187893,20.991511 4.2129436,19.50052 c 0,0 0,-0.0086 0,-0.01684 0.066804,-0.88449 0.7432151,-1.263555 1.5198331,-0.850794 0.7766179,0.41276 1.3528184,1.457297 1.2860126,2.341785 0,0 0,0.0086 0,0.01684 z M 11.436326,23.560738 8.63048,22.069746 c 0,0 0,-0.0086 0,-0.01684 0.066804,-0.884486 0.7432153,-1.263552 1.519834,-0.850793 0.776617,0.412761 1.352816,1.457298 1.286012,2.341784 0,0 0,0.0086 0,0.01684 z"
    />
  </g>
</svg>