<!--
  - The MIT License (MIT)
  -
  - Copyright (c) 2015-2021 Elior "Mallowigi" Boukhobza
  -
  - Permission is hereby granted, free of charge, to any person obtaining a copy
  - of this software and associated documentation files (the "Software"), to deal
  - in the Software without restriction, including without limitation the rights
  - to use, copy, modify, merge, publish, distribute, sublicense, and/or sell
  - copies of the Software, and to permit persons to whom the Software is
  - furnished to do so, subject to the following conditions:
  -
  - The above copyright notice and this permission notice shall be included in all
  - copies or substantial portions of the Software.
  -
  - THE SOFTWARE IS PROVIDED "AS IS", WITHOUT WARRANTY OF ANY KIND, EXPRESS OR
  - IMPLIED, INCLUDING BUT NOT LIMITED TO THE WARRANTIES OF MERCHANTABILITY,
  - FITNESS FOR A PARTICULAR PURPOSE AND NONINFRINGEMENT. IN NO EVENT SHALL THE
  - AUTHORS OR COPYRIGHT HOLDERS BE LIABLE FOR ANY CLAIM, DAMAGES OR OTHER
  - LIABILITY, WHETHER IN AN ACTION OF CONTRACT, TORT OR OTHERWISE, ARISING FROM,
  - OUT OF OR IN CONNECTION WITH THE SOFTWARE OR THE USE OR OTHER DEALINGS IN THE
  - SOFTWARE.
  -
  -
  -->

<svg big="true" version="1.1" xmlns="http://www.w3.org/2000/svg" viewBox="0 0 512 512" width="16px" height="16px">
    <path fill="#0da8e8"
          d="M485.3173828,146.6230621H26.6821861c-35.5762482,0-35.5762482-59.3741379,0-59.3741379c0,0,458.6351929,0,458.6356812,0C520.894104,87.2489243,520.894104,146.6230621,485.3173828,146.6230621z M485.3173828,285.6865234L26.6821861,285.686554c-35.5762482,0-35.5762482-59.3741608,0-59.3741608c0,0,458.6351929,0,458.6356812,0C520.894104,226.3123932,520.894104,285.686554,485.3173828,285.6865234z M485.3173828,424.7510681H26.6821861c-35.5762482,0-35.5762482-59.3741455,0-59.3741455c0,0,458.6351929,0,458.6356812,0C520.894104,365.3769226,520.894104,424.7510681,485.3173828,424.7510681z" />
</svg>
