<!--
  - The MIT License (MIT)
  -
  - Copyright (c) 2015-2021 Elior "Mallowigi" Boukhobza
  -
  - Permission is hereby granted, free of charge, to any person obtaining a copy
  - of this software and associated documentation files (the "Software"), to deal
  - in the Software without restriction, including without limitation the rights
  - to use, copy, modify, merge, publish, distribute, sublicense, and/or sell
  - copies of the Software, and to permit persons to whom the Software is
  - furnished to do so, subject to the following conditions:
  -
  - The above copyright notice and this permission notice shall be included in all
  - copies or substantial portions of the Software.
  -
  - THE SOFTWARE IS PROVIDED "AS IS", WITHOUT WARRANTY OF ANY KIND, EXPRESS OR
  - IMPLIED, INCLUDING BUT NOT LIMITED TO THE WARRANTIES OF MERCHANTABILITY,
  - FITNESS FOR A PARTICULAR PURPOSE AND NONINFRINGEMENT. IN NO EVENT SHALL THE
  - AUTHORS OR COPYRIGHT HOLDERS BE LIABLE FOR ANY CLAIM, DAMAGES OR OTHER
  - LIABILITY, WHETHER IN AN ACTION OF CONTRACT, TORT OR OTHERWISE, ARISING FROM,
  - OUT OF OR IN CONNECTION WITH THE SOFTWARE OR THE USE OR OTHER DEALINGS IN THE
  - SOFTWARE.
  -
  -
  -->

<svg big="true" version="1.1" viewBox="0 0 300 300" xml:space="preserve" xmlns="http://www.w3.org/2000/svg" width="16px"
     height="16px" fill="#949a9d">
    <g transform="matrix(13.507 0 0 13.507 -18.982 -9.1065)">
        <path d="m6.7 8.6h2.1 2.3v11.1c.7.1 1.4.2 2.1.3v1.2h-6.4v-1.3c.7-.1 1.4-.2 2.1-.3v-9.6c-.3 0-.7 0-1.1-.1s-.7-.1-1-.2c0-.3-.1-.7-.1-1.1z" />
        <path d="m11.3 5.7v-2.8c.4-.1.9-.3 1.5-.4.5-.1 1.3-.2 2.2-.1.5.1 1.1.2 1.7.6.2.2.7.6 1 1.3.5 1.1.1 2.2-.1 2.6-.6 1.4-2 1.9-2.2 2 .4.1 1 .2 1.6.7 1.1.9 1.2 2.1 1.3 2.4.2 1.7-1.1 2.9-1.3 3.2-.8.8-1.6 1-2.1 1.2-.8.3-1.6.3-2.1.3v-1.6h.9c.4-.1 1.1-.2 1.8-.7.2-.2.8-.7.8-1.7 0-.2.1-1.1-.6-1.8-.4-.4-.8-.5-1.4-.7s-1.2-.2-1.5-.2v-1.4c.3 0 .7-.1 1.2-.3s1-.3 1.4-.8c.2-.2.8-.9.7-1.9 0-.2-.1-.8-.6-1.2-.5-.5-1.2-.5-1.6-.5-.6 0-1.1.2-1.3.3-.1.5-.1 1.1-.2 1.6-.3-.1-.7-.1-1.1-.1z" />
    </g>
</svg>
