<!--
  - The MIT License (MIT)
  -
  - Copyright (c) 2015-2026 Elior "Mallowigi" Boukhobza
  -
  - Permission is hereby granted, free of charge, to any person obtaining a copy
  - of this software and associated documentation files (the "Software"), to deal
  - in the Software without restriction, including without limitation the rights
  - to use, copy, modify, merge, publish, distribute, sublicense, and/or sell
  - copies of the Software, and to permit persons to whom the Software is
  - furnished to do so, subject to the following conditions:
  -
  - The above copyright notice and this permission notice shall be included in all
  - copies or substantial portions of the Software.
  -
  - THE SOFTWARE IS PROVIDED "AS IS", WITHOUT WARRANTY OF ANY KIND, EXPRESS OR
  - IMPLIED, INCLUDING BUT NOT LIMITED TO THE WARRANTIES OF MERCHANTABILITY,
  - FITNESS FOR A PARTICULAR PURPOSE AND NONINFRINGEMENT. IN NO EVENT SHALL THE
  - AUTHORS OR COPYRIGHT HOLDERS BE LIABLE FOR ANY CLAIM, DAMAGES OR OTHER
  - LIABILITY, WHETHER IN AN ACTION OF CONTRACT, TORT OR OTHERWISE, ARISING FROM,
  - OUT OF OR IN CONNECTION WITH THE SOFTWARE OR THE USE OR OTHER DEALINGS IN THE
  - SOFTWARE.
  -
  -->

<svg xmlns="http://www.w3.org/2000/svg" viewBox="0 0 32 32" width="16px" height="16px">
  <path fill="#7986cb" data-iconColor="Prompt.MD"
        d="M24.694 3.442a5 5 0 0 0 1.345 2.52 5 5 0 0 0 2.52 1.344A1.775 1.775 0 0 1 30 9.003a1.775 1.775 0 0 1-1.44 1.691 4.91 4.91 0 0 0-3.865 3.866 1.716 1.716 0 0 1-3.388 0 4.91 4.91 0 0 0-3.864-3.866 1.774 1.774 0 0 1-1.44-1.692 1.775 1.775 0 0 1 1.44-1.696 5 5 0 0 0 2.52-1.346 5 5 0 0 0 1.344-2.52 1.715 1.715 0 0 1 3.386 0m3.034 13.177a2.1 2.1 0 0 0 1.657 1.657.736.736 0 0 1 0 1.452 2.1 2.1 0 0 0-1.657 1.657.736.736 0 0 1-1.452 0 2.1 2.1 0 0 0-1.657-1.657.736.736 0 0 1 0-1.452 2.1 2.1 0 0 0 1.657-1.657.735.735 0 0 1 1.451 0m-14-14a2.1 2.1 0 0 0 1.658 1.657.736.736 0 0 1 0 1.452 2.1 2.1 0 0 0-1.657 1.657.736.736 0 0 1-1.452 0 2.1 2.1 0 0 0-1.657-1.657.736.736 0 0 1 0-1.452 2.1 2.1 0 0 0 1.657-1.657.735.735 0 0 1 1.451 0M4 13v12a3 3 0 0 0 3 3h12a3 3 0 0 0 3-3v-4a1 1 0 0 0-1-1 1 1 0 0 0-1 1v4a1 1 0 0 1-1 1H7a1 1 0 0 1-1-1V13a1 1 0 0 1 1-1h4a1 1 0 0 0 1-1 1 1 0 0 0-1-1H7a3 3 0 0 0-3 3m14 2a1 1 0 0 0-1-1H9a1 1 0 0 0-1 1 1 1 0 0 0 1 1h8a1 1 0 0 0 1-1m0 4a1 1 0 0 0-1-1H9a1 1 0 0 0-1 1 1 1 0 0 0 1 1h8a1 1 0 0 0 1-1m0 4a1 1 0 0 0-1-1H9a1 1 0 0 0-1 1 1 1 0 0 0 1 1h8a1 1 0 0 0 1-1"/>
</svg>