<!--
  - The MIT License (MIT)
  -
  - Copyright (c) 2015-2024 Elior "Mallowigi" Boukhobza
  -
  - Permission is hereby granted, free of charge, to any person obtaining a copy
  - of this software and associated documentation files (the "Software"), to deal
  - in the Software without restriction, including without limitation the rights
  - to use, copy, modify, merge, publish, distribute, sublicense, and/or sell
  - copies of the Software, and to permit persons to whom the Software is
  - furnished to do so, subject to the following conditions:
  -
  - The above copyright notice and this permission notice shall be included in all
  - copies or substantial portions of the Software.
  -
  - THE SOFTWARE IS PROVIDED "AS IS", WITHOUT WARRANTY OF ANY KIND, EXPRESS OR
  - IMPLIED, INCLUDING BUT NOT LIMITED TO THE WARRANTIES OF MERCHANTABILITY,
  - FITNESS FOR A PARTICULAR PURPOSE AND NONINFRINGEMENT. IN NO EVENT SHALL THE
  - AUTHORS OR COPYRIGHT HOLDERS BE LIABLE FOR ANY CLAIM, DAMAGES OR OTHER
  - LIABILITY, WHETHER IN AN ACTION OF CONTRACT, TORT OR OTHERWISE, ARISING FROM,
  - OUT OF OR IN CONNECTION WITH THE SOFTWARE OR THE USE OR OTHER DEALINGS IN THE
  - SOFTWARE.
  -
  -->

<svg  version="1.1" viewBox="0 0 24 24" xml:space="preserve" xmlns="http://www.w3.org/2000/svg" width="16px" height="16px">
  <path fill="#00bfa5" data-iconColor="Puppeteer"
        d="m2.8224 19.073q-0.15938 0-0.15938-0.2922l-0.013282-2.1383q0-0.15938 0.013282-0.17266 0.066409-0.19923 3.3071-2.2978 3.2407-2.0852 3.254-2.1517-0.17267-0.23907-3.4134-2.3509-3.1477-2.0321-3.1477-2.2313v-2.2048q0-0.30548 0.2125-0.30548h1.9126q0.25235 0 3.5595 2.497 3.3204 2.497 3.586 2.497 0.2922 0 3.6392-2.4837 3.347-2.4837 3.5462-2.4837h2.0454q0.18594 0 0.18594 0.3586 0 0.37189-0.02657 1.1157t-0.02657 1.1157q0 0.066409-0.61095 0.49142-1.9657 1.2484-5.8705 3.7719-0.09297 0.06641-0.19922 0.22579 0.09297 0.18594 3.4134 2.2977 3.2673 2.0852 3.2673 2.2711v2.0985q0 0.34532-0.18594 0.34532h-2.0454q-0.33204 0-3.6259-2.4837-3.2938-2.4704-3.4665-2.4704-0.2125 0-3.6126 2.4837-3.3868 2.497-3.6259 2.497z"
        stroke-width=".72859" aria-label="X"/>
</svg>
