<!--
  - The MIT License (MIT)
  -
  - Copyright (c) 2015-2021 Elior "Mallowigi" Boukhobza
  -
  - Permission is hereby granted, free of charge, to any person obtaining a copy
  - of this software and associated documentation files (the "Software"), to deal
  - in the Software without restriction, including without limitation the rights
  - to use, copy, modify, merge, publish, distribute, sublicense, and/or sell
  - copies of the Software, and to permit persons to whom the Software is
  - furnished to do so, subject to the following conditions:
  -
  - The above copyright notice and this permission notice shall be included in all
  - copies or substantial portions of the Software.
  -
  - THE SOFTWARE IS PROVIDED "AS IS", WITHOUT WARRANTY OF ANY KIND, EXPRESS OR
  - IMPLIED, INCLUDING BUT NOT LIMITED TO THE WARRANTIES OF MERCHANTABILITY,
  - FITNESS FOR A PARTICULAR PURPOSE AND NONINFRINGEMENT. IN NO EVENT SHALL THE
  - AUTHORS OR COPYRIGHT HOLDERS BE LIABLE FOR ANY CLAIM, DAMAGES OR OTHER
  - LIABILITY, WHETHER IN AN ACTION OF CONTRACT, TORT OR OTHERWISE, ARISING FROM,
  - OUT OF OR IN CONNECTION WITH THE SOFTWARE OR THE USE OR OTHER DEALINGS IN THE
  - SOFTWARE.
  -
  -
  -->


<svg big="true" xmlns="http://www.w3.org/2000/svg" viewBox="0 0 32 32" width="16px" height="16px">
    <g fill="#3F51B5">
        <path d="M19.451,6.218h2.638V8.856h2.637V6.218h2.637V8.856H30V11.5H27.364v2.636H30V16.77H27.364v2.637H24.727V16.769H22.091l0,2.637H19.453V16.768H16.815V14.127h2.638V11.5H16.815V8.853h2.639Zm2.638,7.914h2.637V11.5H22.089Z" />
        <path d="M14.018,21.524a11.436,11.436,0,0,0,1.572-6.192,10.877,10.877,0,0,0-1.858-6.6A5.889,5.889,0,0,0,8.808,6.153a5.921,5.921,0,0,0-4.94,2.581A10.842,10.842,0,0,0,2,15.333a10.853,10.853,0,0,0,1.868,6.592,5.918,5.918,0,0,0,4.941,2.588,5.743,5.743,0,0,0,3.26-.987l2.306,2.321,1.577-2.4Zm-5.17-1.218,1.117,1.121a3.229,3.229,0,0,1-1.174.217,3.335,3.335,0,0,1-2.837-1.593,8.125,8.125,0,0,1-1.18-4.719,8.1,8.1,0,0,1,1.184-4.724,3.372,3.372,0,0,1,2.87-1.588,3.31,3.31,0,0,1,2.819,1.585,8.178,8.178,0,0,1,1.172,4.726,9.113,9.113,0,0,1-.833,4.15l-1.56-1.571Z" />
    </g>
</svg>
