<!--
  - The MIT License (MIT)
  -
  - Copyright (c) 2015-2024 Elior "Mallowigi" Boukhobza
  -
  - Permission is hereby granted, free of charge, to any person obtaining a copy
  - of this software and associated documentation files (the "Software"), to deal
  - in the Software without restriction, including without limitation the rights
  - to use, copy, modify, merge, publish, distribute, sublicense, and/or sell
  - copies of the Software, and to permit persons to whom the Software is
  - furnished to do so, subject to the following conditions:
  -
  - The above copyright notice and this permission notice shall be included in all
  - copies or substantial portions of the Software.
  -
  - THE SOFTWARE IS PROVIDED "AS IS", WITHOUT WARRANTY OF ANY KIND, EXPRESS OR
  - IMPLIED, INCLUDING BUT NOT LIMITED TO THE WARRANTIES OF MERCHANTABILITY,
  - FITNESS FOR A PARTICULAR PURPOSE AND NONINFRINGEMENT. IN NO EVENT SHALL THE
  - AUTHORS OR COPYRIGHT HOLDERS BE LIABLE FOR ANY CLAIM, DAMAGES OR OTHER
  - LIABILITY, WHETHER IN AN ACTION OF CONTRACT, TORT OR OTHERWISE, ARISING FROM,
  - OUT OF OR IN CONNECTION WITH THE SOFTWARE OR THE USE OR OTHER DEALINGS IN THE
  - SOFTWARE.
  -
  -->

<svg xmlns="http://www.w3.org/2000/svg" viewBox="0 0 720 720" width="16px" height="16px">
  <defs>
    <mask id="Mask">
      <g fill="white">
        <path id="right-hand"
              d="M350.941 201.061C286.336 29.734 61.776 43.444 9.707 215.9l-2.763 13.527-3.931 8.998c1.85 19.769 2.739 35.008 26.704 36.806l7.668-.741 3.42 2.732-1.789 4.809c22.894 67.613 89.532 113.926 159.772 119.039l8.97 1.931 10.93-.692c-3.44 3.708 13.993.165 52.301-10.628l34.37-22.255 17.236-14.704 15.761-25.155 11.886-35.797 2.268-32.821v-36.915c-.314-7.326-.837-14.983-1.57-22.972z"
        />

        <path id="contours"
              d="M585.34 6.085c2.44 4.887-.405 10.122-7.035 17.548-4.588 5.139-11.163 11.324-19.671 18.668l-6.162 5.239-11.798 9.728-4.797 3.896-.742.603-3.378 2.744-.126.101.803-.093c9.101-1.041 16.996-1.548 24.693-1.376l1.048.028c11.284.343 20.822 2.202 28.349 6.043 9.371 4.782 15.228 12.507 16.643 23.163 2.631 19.846-20.88 47.267-53.472 67.298 11.472.276 22.627 3.316 30.456 9.443 6.199 4.85 11.213 10.447 15.151 16.676l.113.18c.187.246.352.512.491.794 2.353 3.87 4.302 7.975 5.873 12.291 2.216 6.089 3.588 12.271 4.321 18.638 10.651-3.933 23.652-2.019 37.478 4.368 12.684 5.86 25.366 15.361 32.656 23.993 12.121 14.352 19.743 33.048 22.587 52.621 2.479 17.054.975 33.268-3.853 41.984-2.895 5.224-7.584 9.783-12.428 11.107l-.235.06-.016.116-.019.135-.039.28-.082.58c-.098.668-.198 1.264-.318 1.866-.315 1.58-.743 3.059-1.35 4.529a82.2 82.2 0 0 1-1.043 2.422c-1.948 4.327-4.031 7.92-6.295 11.05a54.24 54.24 0 0 1-2.756 3.496l-1.163 1.328-.956 1.064c-12.925 14.464-35.55 25.529-49.753 26.136-1.555 7.57-3.749 14.988-6.575 22.152l-.445 1.111-.287.844-.677 1.907c4.198 1.817 10.99 5.368 14.245 7.583 5.933 4.036 11.744 9.289 15.831 14.813 2.406 3.257 4.903 7.362 6.566 11.197 2.724 6.282 3.279 11.589-.042 15.613-2.971 3.608-7.768 4.251-13.551 3.068 2.768 5.403 4.396 8.916 5.554 12.305l.091.27.263.809.084.27.163.541c2.092 7.079 1.541 12.795-3.291 16.351-1.812 1.331-4.388 1.642-7.349 1.176 5.036 11.034 4.751 21.851-3.466 25.927-4.41 2.194-9.66 1.467-18.032-1.425-1.596-.552-5.906-2.207-10.518-3.989l-.338-.131-.339-.131-.17-.066-1.644-.635-.385-.149-.384-.149-8.797-3.376-.24-.09-1.225-.454c-9.349-3.401-17.885-5.971-26.71-7.866l-2.593-.558-.221-.047-2.405-.516-5.944-1.228c-9.67-1.922-18.011-3.138-25.932-3.585-5.477-.309-10.509-.22-15.064.306-.675.078-1.334.014-1.946-.168-19.326 4.455-39.875 6.362-60.466 5.657-21.182-.728-32.55-1.59-44.575-3.854a132.3 132.3 0 0 1-9.481-2.136 4.94 4.94 0 0 1-.468-.08c-10.694-2.364-38.918 1.388-56.833 7.073-3.961 1.258-8.669 2.497-14.599 3.876l-19.931 4.357-.587.129-1.132.249-.998.22-.499.11-.499.11-1.246.275-.497.11-17.35 3.953-9.004 2.332-3.846 1.056-4.293 1.152c-3.902 1.022-7.332 1.837-10.617 2.495-12.963 2.595-22.213 2.534-28.09-1.848-4.774-3.56-6.487-9.271-5.774-16.423.556-5.587 2.582-12.218 5.936-20.099 2.548-5.976 8.154-13.949 14.492-21.27l.204-.236-.206.054-3.776 1.021-5.875 1.679-.363.105-.363.105-.64.186-.255.074-.254.074-.253.073-6.069 1.746-1.109.285-1.017.259-.579.145-.801.195c-5.544 1.328-9.344 1.665-12.987.542-5.234-1.613-8.326-6.05-8.975-12.772-.538-5.564 4.476-16.455 9.531-24.223a74.39 74.39 0 0 1-2.922.616c-10.434 1.977-18.157 1.11-22.104-4.894-4.637-7.045-.825-15.647 7.856-25.104 5.946-6.477 14.337-13.19 19.375-15.809 2.109-1.099 4.583-2.266 7.286-3.424-26.066-.717-52.82-6.824-77.69-18.038-48.854-22.028-83.964-60.626-94.127-107.24l-.235-1.102-.369.049c-16.98 2.105-28.994-3.634-33.627-17.411l-.152-.462c-4.796-14.982-.477-38.518 12.973-70.429 20.03-47.532 53.614-82.038 95.607-100.839 39.021-17.47 83.378-20.311 124.187-8.463 41.598 12.076 76.699 38.54 98.407 75.575 6.917 11.8 12.398 24.501 16.381 38.009 3.534-7.467 8.503-15.417 14.342-22.675 12.609-15.673 27.685-26.511 43.128-29.259 36.353-6.473 67.013 6.025 79.42 31.288.93-5.585 1.822-12.398 2.558-19.383l.072-.691.106-1.039.07-.693.068-.693.17-1.778c.444-4.739.444-9.024-.176-13.79-.063-.482-.496-1.156-1.301-2.022a57.57 57.57 0 0 1-2.823-.186l-.259-.023-.259-.023-.222-.02a79.33 79.33 0 0 0-4.341-.287l-.794-.032c-25.951-1.049-39.387-1.843-50.883-3.342l-.838-.111-.417-.056-.829-.115-2.055-.299c-17.352-2.616-27.446-6.863-30.63-14.946-2.716-6.876-.112-14.775 6.061-23.703 3.994-5.777 8.801-11.119 15.023-17.286 10.131-10.049 28.632-24.447 47.88-36.703 24.459-15.573 48.419-26.852 69.379-31.57 27.055-6.094 49.198-7.278 53.444 1.224zM290.493 461.81l-.511.057-1.021.119c-4.078.487-8.071 1.12-11.176 1.883-6.122 1.505-17.29 7.522-24.676 13.328-9.552 7.505-22.476 22.974-26.256 31.837-5.893 13.848-6.74 22.349-3.297 24.916 2.842 2.119 10.058 2.167 20.353.106 3.075-.616 6.328-1.389 10.061-2.366l4.193-1.125 3.847-1.056 9.241-2.393c3.723-.917 10.519-2.447 17.628-4.017l1.125-.248 1.127-.248.564-.124 1.127-.248 21.293-4.655c5.701-1.326 10.18-2.504 13.857-3.673 10.496-3.331 24.019-6.017 36.238-7.336a95.58 95.58 0 0 1-6.92-4.292 59.97 59.97 0 0 1-4.734-3.57c-3.825-3.199-6.408-6.057-10.462-11.187-3.956-5.007-6.114-7.61-8.581-10.008l-.212-.205a66.72 66.72 0 0 0-3.296-2.939c-5.267-4.436-12.064-8.738-21.231-13.203l-.328-.159c-1.503-.413-9.696-.103-17.954.808zm284.184 28.596c-6.55.241-11.314 1.796-17.727 4.923a4.87 4.87 0 0 1-1.386.436c-3.606 2.16-7.346 4.2-11.216 6.116l-.993.488c-3.92 1.91-7.954 3.684-12.086 5.322 5.129.657 10.504 1.571 16.319 2.727l6.073 1.255.136.029.153.033 2.018.433.221.048.188.04 2.515.541c9.309 1.999 18.26 4.694 27.999 8.236 1.928.701 5.799 2.192 9.903 3.778l.392.151.589.228 1.606.621.332.128.332.128.331.128.165.064.329.127 9.913 3.762c5.941 2.053 9.292 2.517 10.515 1.908 1.489-.739 2.033-4.616.051-10.421-1.898-5.56-5.612-11.276-10.574-16.067a4.85 4.85 0 0 1-.382-.364 45.78 45.78 0 0 0-4.695-3.878c-11.182-8.036-21.445-11.274-31.02-10.922zM472.944 299.283c-5.976 11.68-13.618 21.687-23.241 30.079l-.494.428-.448.405c-17.876 15.91-42.153 19.407-64.249 10.946l-.676-.263c-15.089-5.956-27.216-16.799-33.974-30.265-4.795 18.001-14.598 34.75-28.094 49.374-12.44 13.48-27.572 24.55-41.891 31.189-5.097 2.295-10.36 4.294-15.76 6.001.08 3.683.456 6.802 1.457 10.27 1.631 5.652 4.593 10.206 9.251 13.374 2.869 1.954 5.567 4.114 8.395 6.684l.239.11c1.045.493 1.833 1.309 2.302 2.272l3.003 2.98 2.62 2.709.177.184.266.277.177.184 2.949 3.08.018.019-.018-.019.421.436c2.096 2.166 3.672 3.72 5.192 5.092 2.761 2.493 5.133 4.175 7.379 5.191 12.45 5.643 21.451 11.102 28.339 16.903 1.688 1.421 3.068 2.657 4.378 3.95l.237.236c2.565 2.562 4.911 5.403 8.841 10.377 3.673 4.649 5.872 7.082 9.07 9.756a50.23 50.23 0 0 0 3.967 2.99c10.733 7.304 22.554 11.853 36.734 14.523 11.395 2.145 22.398 2.98 43.106 3.692 34.386 1.177 68.593-5.241 96.475-18.823 30.96-15.082 52.955-38.239 63.23-68.778l.048-.142.056-.138c14.815-36.455 11.863-80.326-9.768-115.91-3.671 8.712-9.104 18.218-15.725 26.31-12.034 14.707-26.834 23.635-44.292 24.288-15.579.583-37.47-10.372-47.589-25.524-6.303-9.451-9.307-17.985-12.106-34.448zm122.964 159.641l-.192.273c-5.543 7.835-12.022 14.994-19.36 21.455 11.168.064 22.864 4.036 35.028 12.778 1.996 1.435 3.882 3.008 5.645 4.683 3.101 2.537 6.896 4.777 10.268 6.123 1.505.601 2.817.977 3.757 1.101l-.042-.006.014-.034c.267-.79.194-2.337-.523-4.876l-.102-.352c-1.059-3.583-2.769-7.284-6.359-14.214-2.062-3.993-4.014-7.146-6.545-10.224a8.39 8.39 0 0 1-.875-1.035c-1.394-1.604-2.968-3.211-4.819-4.929-4.9-4.543-10.461-8.396-15.893-10.743zm-363.762-22.313c-6.226 2.794-11.265 6.185-15.519 10.114a4.84 4.84 0 0 1-1.141 1.085c-3.058 2.991-5.704 6.276-8.103 9.829-1.098 1.623-2.272 3.598-3.388 5.661l-.443.829-.562 1.082-.157.31c-2.377 4.697-4.231 9.368-4.07 11.035.296 3.067.98 4.049 2.152 4.41 1.467.452 3.917.235 7.847-.706l2.245-.561.493-.127.122-.031.504-.129c.353-.09 3.107-.893 6.187-1.786l.247-.072.124-.036.249-.072.125-.036.25-.072.626-.181.733-.212 5.34-1.524 4.368-1.177c6.155-1.607 11.047-2.648 14.662-3.011.695-.59 1.38-1.151 2.053-1.679 8.393-6.598 20.75-13.255 28.37-15.129 5.048-1.24 11.843-2.167 18.215-2.702-.939-.858-1.889-1.77-2.936-2.813l-.325-.325-2.301-2.35-.173-.179.008.008-2.884-3.012-.153-.16-.387-.403-.199-.207-2.509-2.594c-1.392-1.416-2.706-2.708-3.973-3.896-11.525-4.492-34.687-4.112-45.697.821zm374.699 3.238l-.179.392a119.63 119.63 0 0 1-5.435 10.41c6.051 2.841 11.959 7.031 17.196 11.887 2.427 2.253 4.463 4.371 6.256 6.51a6.29 6.29 0 0 0 .274.213c.476.351 1.129.755 1.902 1.172 1.711.921 3.812 1.796 5.876 2.429 2.171.666 4.154 1.02 5.637 1.012.619-.004 1.086-.07 1.371-.167l-.112.033.003-.041a5.08 5.08 0 0 0-.018-.715l-.017-.182c-.122-1.167-.586-2.713-1.36-4.497-1.333-3.075-3.464-6.577-5.463-9.284-3.366-4.548-8.387-9.087-13.479-12.551-2.687-1.827-8.881-5.059-12.454-6.621zm-378.163-32.095c-8.53 2.259-17.594 5.936-23.376 8.949-10.743 5.586-26.413 22.657-23.592 26.943.969 1.474 5.354 1.967 12.152.679 2.671-.506 5.544-1.243 8.564-2.165 1.841-.561 3.62-1.155 5.488-1.814l1.478-.529.192-.069.378-.136c4.978-4.608 10.889-8.599 18.194-11.877 8.606-3.856 22.351-5.427 34.82-4.596-3.141-3.721-5.353-8.114-6.762-12.997a47.9 47.9 0 0 1-.59-2.243l-.071-.042c-5.566-3.358-15.068-3.23-26.875-.103zM114.454 98.057c-39.734 17.79-71.539 50.467-90.615 95.736-12.624 29.952-16.577 51.493-12.673 63.69 3.049 9.524 11.278 13.224 25.344 10.894l-.188.068c9.583-3.482 26.034-11.19 43.084-19.886l7.458-3.783.543-.272c2.121-1.058 3.623-1.78 5-2.402l.171-.077.424-.189.172-.076.373-.163 1.326-.566c5.122-2.147 8.915-3.056 12.341-2.583 4.447.615 7.548 3.525 9.195 8.207 1.302 3.7 1.848 8.778 1.848 15.99 0 24.897 7.158 36.196 21.707 39.303 6.613 1.412 14.916 1.246 25.685-.342l2.323-.35.492-.077.244-.038.485-.077.961-.157.479-.08.963-.165.487-.086c5.217-.924 11.357-2.257 26.364-5.57l18.932-3.955.464-.088.927-.173.463-.086.463-.085.464-.085 5.287-1.019 8.313-1.798.37-.081.469-.103.327-.072.326-.072 8.935-1.928c6.209-1.183 10.199-1.337 13.729-.075 8.052 2.879 10.097 10.712 10.244 30.389a4.87 4.87 0 0 1-4.832 4.9 4.87 4.87 0 0 1-4.905-4.828c-.115-15.377-1.442-20.463-3.788-21.302-1.414-.506-4.025-.404-8.625.472l-.157.031-.389.078-8.029 1.745-.359.079-.18.04-.366.081-.183.04-.972.214-7.991 1.725-5.48 1.056-.599.11-1.198.222c-5.596 1.046-11.309 2.246-19.56 4.068-21.402 4.725-25.018 5.478-33.478 6.725-11.817 1.742-21.186 1.93-29.141.231-19.564-4.177-29.409-19.718-29.409-48.817 0-6.201-.446-10.343-1.298-12.764-.513-1.457-.792-1.719-1.343-1.795-2.224-.307-5.667.939-15.662 5.915l-1.341.67-5.042 2.554c-14.414 7.351-28.365 13.99-38.453 18.132 8.892 44.257 42.132 81.248 89.024 102.392 46.645 21.032 100.162 23.161 141.419 4.583 13.108-6.078 27.203-16.389 38.782-28.937 13.463-14.588 22.881-31.346 26.794-49.192a281.78 281.78 0 0 0 2.58-13.267l.202-1.218c.021-.208.054-.413.101-.613 4.415-27.189 4.237-52.535-.202-75.64a4.82 4.82 0 0 1-.196-.999c-3.686-18.624-10.153-35.78-19.224-51.257-20.421-34.839-53.466-59.753-92.722-71.149-38.608-11.208-80.591-8.52-117.488 7.999zm492.404 129.945l-.101.055c.32 19.49-3.742 47.696-10.05 69.027a4.83 4.83 0 0 1 .388.496c19.873 29.161 27.414 64.285 23.084 97.373 11.533-1.403 30.207-10.85 40.829-22.736 4.642-5.193 6.611-7.914 9.553-14.45a72.54 72.54 0 0 0 .921-2.138c.592-1.434.769-2.233 1.16-5.003-2.138-.852-4.299-2.035-6.881-3.645l-.016-.011-1.427-.896-.255-.159-1.29-.8c-.98-.592-1.756-1.017-2.455-1.338-1.084-.497-1.927-.715-2.654-.715-1.957 0-3.228 1.75-3.454 5.429a4.87 4.87 0 0 1-5.157 4.557c-2.684-.164-4.726-2.471-4.562-5.153.505-8.221 5.109-14.562 13.173-14.562 2.276 0 4.449.563 6.716 1.602 1.084.497 2.164 1.088 3.433 1.855l1.579.978.768.484.757.475c3.552 2.215 5.814 3.271 8.373 3.717a7.32 7.32 0 0 1 .478-.015c.437 0 1.543-.554 2.849-1.704 1.472-1.296 2.897-3.084 3.833-4.773 3.62-6.536 4.936-20.731 2.736-35.875-2.598-17.878-9.532-34.884-20.393-47.745-6.354-7.523-17.885-16.163-29.301-21.436-13.038-6.023-24.547-7.234-32.634-2.893zM446.403 341.796c4.54 15.772 28.676 19.822 45.704 22.667-14.448 4.803-30.831 2.493-44.085-4.56-7.461-3.186-13.936-15.456-1.619-18.107zm150.549-116.09l-.019.177c-1.406 12.738-4.464 26.124-9.532 40.152-6.272 17.345-21.812 37.962-40.604 47.307-6.606 3.284-18.78 6.593-29.906 7.067-12.398.528-23.199-2.198-31.373-8.888 1.897 6.773 4.218 11.694 7.633 16.814 8.222 12.312 26.896 21.657 39.123 21.199 14.33-.536 26.71-8.004 37.118-20.724 7.636-9.333 13.608-20.914 16.642-30.187 6.933-21.182 11.523-51.971 10.959-71.75l-.04-1.166zm-125.189-56.589l.099.579c3.998 23.739 2.44 50.515-8.501 80.798-6.272 17.345-21.812 37.962-40.604 47.307-7.14 3.55-21.878 7.207-34.624 7.312-14.098.116-25.849-3.679-33.863-12.152 2.738 17.239 15.481 31.898 33.144 38.871 19.172 7.568 40.088 4.57 55.332-9.316l.104-.092c15.124-13.009 24.984-30.539 31.026-53.131 4.716-17.635 6.764-35.228 8.515-65.168.824-14.148-3.122-26.038-10.628-35.007zm54.064 4.419l-2.374 1.004-1.179.513c-14.691 6.452-27.726 14.445-29.885 19.81a4.9 4.9 0 0 1-.32.652c.209 2.961.226 6.021.043 9.175l-1.007 15.317c9.479-17.707 24.678-26.639 40.382-22.623 19.354 4.957 27.84 27.913 21.844 52.942l-.191.78c-6.453 25.695-25.736 41.811-43.903 38.237-11.699-2.285-20.647-10.944-24.54-23.147a198.43 198.43 0 0 1-1.414 5.607 162.5 162.5 0 0 1-2.458 8.314c-.304 2.788.396 6.439 1.885 10.434a48.06 48.06 0 0 0 2.07 4.74c.535 1.065 1.05 1.984 1.301 2.372 6.232 9.625 16.761 13.607 30.395 13.027 9.714-.414 20.561-3.362 25.982-6.057 16.248-8.079 30.291-26.711 35.784-41.902 9.639-26.681 11.569-50.748 8.598-72.26-3.287-5.028-7.471-9.609-12.692-13.695-11.24-8.796-33.116-9.534-48.321-3.241zm-117.202-21.593c-12.765 2.272-25.979 11.772-37.247 25.776-9.425 11.715-16.316 25.379-17.695 34.111 3.882 20.33 4.625 42.245 2.044 65.474.055.11.106.222.154.337 5.137 12.437 16.35 17.872 32.172 17.742 11.238-.092 24.525-3.389 30.366-6.293 16.248-8.079 30.291-26.711 35.784-41.902 10.649-29.475 11.875-55.244 7.696-77.927-.363-1.973-.745-3.786-1.18-5.678l-.076-.328-.316-1.342-.047-.201-.384-1.643-.019-.086-.008-.035a4.88 4.88 0 0 1-.113-1c-13.083-7.834-30.924-10.606-51.13-7.007zm85.312 87.694c-5.503 21.267 3.299 37.45 17.174 40.159 12.6 2.479 27.6-10.205 32.75-31.733 4.902-20.459-1.531-37.859-14.79-41.255-14.17-3.624-28.892 8.721-35.134 32.829zm-85.784-61.868c19.354 4.957 27.84 27.913 21.844 52.942l-.191.78c-6.453 25.695-25.736 41.811-43.903 38.237-19.673-3.842-31.566-25.708-24.727-52.141 7.445-28.753 26.794-44.979 46.977-39.817zm-37.55 42.253c-5.503 21.267 3.299 37.45 17.174 40.159 12.6 2.479 27.6-10.205 32.75-31.733 4.902-20.459-1.531-37.859-14.79-41.255-14.17-3.624-28.892 8.721-35.134 32.829zM563.731 9.926c-8.464.453-19.371 2.101-29.694 4.425-19.685 4.431-42.695 15.263-66.287 30.284-18.691 11.901-36.649 25.877-46.254 35.404-13.328 13.209-21.215 24.616-18.884 30.517 1.408 3.574 9.04 6.785 23.024 8.893 12.056 1.818 25.232 2.662 53.962 3.823l31.457 1.379 1.059.057 1.405.078.703.04.353.02.708.041.713.042 4.089.247c.856.053 1.422.119 2.04.298a4.98 4.98 0 0 1 1.356.61c1.288.824 2.293 2.179 2.271 4.186-.019 1.838-.865 3.047-1.972 3.878-.406.304-.775.498-1.164.657-.82.335-1.634.485-3.514.756l-5.035.673-1.082.145-4.191.579c-3.54.522-6.295 1.023-8.25 1.526l-.543.146-.005.001-.002.039c-.765 12.109-2.336 26.282-4.067 36.651l-.05.291.098-.038c2.53-1.025 5.638-2.378 9.203-4.003l.634-.29 11.393-5.386.69-.335.345-.168.689-.336 14.785-7.466c35.054-18.485 62.01-47.274 59.801-63.936-1.829-13.772-14.251-20.111-35.635-20.761-7.812-.237-15.936.294-25.55 1.431l-10.368 1.29c-1.514.17-2.589.257-3.451.262-.705.004-1.308-.041-1.943-.193a5.26 5.26 0 0 1-1.937-.881c-1.177-.857-1.998-2.21-2.07-3.817-.073-1.501.351-2.418 1.062-3.422.272-.383.586-.751.966-1.151.515-.543 1.191-1.182 2.054-1.953l.265-.235c1.508-1.334 3.545-3.042 6.503-5.464l.871-.712 4.648-3.779.274-.222.137-.111.274-.222.113-.092.225-.183 4.573-3.714 11.687-9.636 6.058-5.151c8.215-7.091 14.523-13.025 18.77-17.782 2.275-2.548 3.884-4.684 4.759-6.294l.111-.209.049-.1-.141-.039c-.337-.091-.724-.177-1.158-.256l-.334-.057c-2.559-.417-6.181-.512-10.594-.276z"
              fill="black"/>
      </g>
    </mask>
  </defs>
  <g transform="translate(0 -100) scale(2)" fill="#ffbc9c" mask="url(#Mask)" data-iconColor="Rspack">
    <path id="right-hand"
          d="M350.941 201.061C286.336 29.734 61.776 43.444 9.707 215.9l-2.763 13.527-3.931 8.998c1.85 19.769 2.739 35.008 26.704 36.806l7.668-.741 3.42 2.732-1.789 4.809c22.894 67.613 89.532 113.926 159.772 119.039l8.97 1.931 10.93-.692c-3.44 3.708 13.993.165 52.301-10.628l34.37-22.255 17.236-14.704 15.761-25.155 11.886-35.797 2.268-32.821v-36.915c-.314-7.326-.837-14.983-1.57-22.972z"
    />

    <path id="contours"
          d="M585.34 6.085c2.44 4.887-.405 10.122-7.035 17.548-4.588 5.139-11.163 11.324-19.671 18.668l-6.162 5.239-11.798 9.728-4.797 3.896-.742.603-3.378 2.744-.126.101.803-.093c9.101-1.041 16.996-1.548 24.693-1.376l1.048.028c11.284.343 20.822 2.202 28.349 6.043 9.371 4.782 15.228 12.507 16.643 23.163 2.631 19.846-20.88 47.267-53.472 67.298 11.472.276 22.627 3.316 30.456 9.443 6.199 4.85 11.213 10.447 15.151 16.676l.113.18c.187.246.352.512.491.794 2.353 3.87 4.302 7.975 5.873 12.291 2.216 6.089 3.588 12.271 4.321 18.638 10.651-3.933 23.652-2.019 37.478 4.368 12.684 5.86 25.366 15.361 32.656 23.993 12.121 14.352 19.743 33.048 22.587 52.621 2.479 17.054.975 33.268-3.853 41.984-2.895 5.224-7.584 9.783-12.428 11.107l-.235.06-.016.116-.019.135-.039.28-.082.58c-.098.668-.198 1.264-.318 1.866-.315 1.58-.743 3.059-1.35 4.529a82.2 82.2 0 0 1-1.043 2.422c-1.948 4.327-4.031 7.92-6.295 11.05a54.24 54.24 0 0 1-2.756 3.496l-1.163 1.328-.956 1.064c-12.925 14.464-35.55 25.529-49.753 26.136-1.555 7.57-3.749 14.988-6.575 22.152l-.445 1.111-.287.844-.677 1.907c4.198 1.817 10.99 5.368 14.245 7.583 5.933 4.036 11.744 9.289 15.831 14.813 2.406 3.257 4.903 7.362 6.566 11.197 2.724 6.282 3.279 11.589-.042 15.613-2.971 3.608-7.768 4.251-13.551 3.068 2.768 5.403 4.396 8.916 5.554 12.305l.091.27.263.809.084.27.163.541c2.092 7.079 1.541 12.795-3.291 16.351-1.812 1.331-4.388 1.642-7.349 1.176 5.036 11.034 4.751 21.851-3.466 25.927-4.41 2.194-9.66 1.467-18.032-1.425-1.596-.552-5.906-2.207-10.518-3.989l-.338-.131-.339-.131-.17-.066-1.644-.635-.385-.149-.384-.149-8.797-3.376-.24-.09-1.225-.454c-9.349-3.401-17.885-5.971-26.71-7.866l-2.593-.558-.221-.047-2.405-.516-5.944-1.228c-9.67-1.922-18.011-3.138-25.932-3.585-5.477-.309-10.509-.22-15.064.306-.675.078-1.334.014-1.946-.168-19.326 4.455-39.875 6.362-60.466 5.657-21.182-.728-32.55-1.59-44.575-3.854a132.3 132.3 0 0 1-9.481-2.136 4.94 4.94 0 0 1-.468-.08c-10.694-2.364-38.918 1.388-56.833 7.073-3.961 1.258-8.669 2.497-14.599 3.876l-19.931 4.357-.587.129-1.132.249-.998.22-.499.11-.499.11-1.246.275-.497.11-17.35 3.953-9.004 2.332-3.846 1.056-4.293 1.152c-3.902 1.022-7.332 1.837-10.617 2.495-12.963 2.595-22.213 2.534-28.09-1.848-4.774-3.56-6.487-9.271-5.774-16.423.556-5.587 2.582-12.218 5.936-20.099 2.548-5.976 8.154-13.949 14.492-21.27l.204-.236-.206.054-3.776 1.021-5.875 1.679-.363.105-.363.105-.64.186-.255.074-.254.074-.253.073-6.069 1.746-1.109.285-1.017.259-.579.145-.801.195c-5.544 1.328-9.344 1.665-12.987.542-5.234-1.613-8.326-6.05-8.975-12.772-.538-5.564 4.476-16.455 9.531-24.223a74.39 74.39 0 0 1-2.922.616c-10.434 1.977-18.157 1.11-22.104-4.894-4.637-7.045-.825-15.647 7.856-25.104 5.946-6.477 14.337-13.19 19.375-15.809 2.109-1.099 4.583-2.266 7.286-3.424-26.066-.717-52.82-6.824-77.69-18.038-48.854-22.028-83.964-60.626-94.127-107.24l-.235-1.102-.369.049c-16.98 2.105-28.994-3.634-33.627-17.411l-.152-.462c-4.796-14.982-.477-38.518 12.973-70.429 20.03-47.532 53.614-82.038 95.607-100.839 39.021-17.47 83.378-20.311 124.187-8.463 41.598 12.076 76.699 38.54 98.407 75.575 6.917 11.8 12.398 24.501 16.381 38.009 3.534-7.467 8.503-15.417 14.342-22.675 12.609-15.673 27.685-26.511 43.128-29.259 36.353-6.473 67.013 6.025 79.42 31.288.93-5.585 1.822-12.398 2.558-19.383l.072-.691.106-1.039.07-.693.068-.693.17-1.778c.444-4.739.444-9.024-.176-13.79-.063-.482-.496-1.156-1.301-2.022a57.57 57.57 0 0 1-2.823-.186l-.259-.023-.259-.023-.222-.02a79.33 79.33 0 0 0-4.341-.287l-.794-.032c-25.951-1.049-39.387-1.843-50.883-3.342l-.838-.111-.417-.056-.829-.115-2.055-.299c-17.352-2.616-27.446-6.863-30.63-14.946-2.716-6.876-.112-14.775 6.061-23.703 3.994-5.777 8.801-11.119 15.023-17.286 10.131-10.049 28.632-24.447 47.88-36.703 24.459-15.573 48.419-26.852 69.379-31.57 27.055-6.094 49.198-7.278 53.444 1.224zM290.493 461.81l-.511.057-1.021.119c-4.078.487-8.071 1.12-11.176 1.883-6.122 1.505-17.29 7.522-24.676 13.328-9.552 7.505-22.476 22.974-26.256 31.837-5.893 13.848-6.74 22.349-3.297 24.916 2.842 2.119 10.058 2.167 20.353.106 3.075-.616 6.328-1.389 10.061-2.366l4.193-1.125 3.847-1.056 9.241-2.393c3.723-.917 10.519-2.447 17.628-4.017l1.125-.248 1.127-.248.564-.124 1.127-.248 21.293-4.655c5.701-1.326 10.18-2.504 13.857-3.673 10.496-3.331 24.019-6.017 36.238-7.336a95.58 95.58 0 0 1-6.92-4.292 59.97 59.97 0 0 1-4.734-3.57c-3.825-3.199-6.408-6.057-10.462-11.187-3.956-5.007-6.114-7.61-8.581-10.008l-.212-.205a66.72 66.72 0 0 0-3.296-2.939c-5.267-4.436-12.064-8.738-21.231-13.203l-.328-.159c-1.503-.413-9.696-.103-17.954.808zm284.184 28.596c-6.55.241-11.314 1.796-17.727 4.923a4.87 4.87 0 0 1-1.386.436c-3.606 2.16-7.346 4.2-11.216 6.116l-.993.488c-3.92 1.91-7.954 3.684-12.086 5.322 5.129.657 10.504 1.571 16.319 2.727l6.073 1.255.136.029.153.033 2.018.433.221.048.188.04 2.515.541c9.309 1.999 18.26 4.694 27.999 8.236 1.928.701 5.799 2.192 9.903 3.778l.392.151.589.228 1.606.621.332.128.332.128.331.128.165.064.329.127 9.913 3.762c5.941 2.053 9.292 2.517 10.515 1.908 1.489-.739 2.033-4.616.051-10.421-1.898-5.56-5.612-11.276-10.574-16.067a4.85 4.85 0 0 1-.382-.364 45.78 45.78 0 0 0-4.695-3.878c-11.182-8.036-21.445-11.274-31.02-10.922zM472.944 299.283c-5.976 11.68-13.618 21.687-23.241 30.079l-.494.428-.448.405c-17.876 15.91-42.153 19.407-64.249 10.946l-.676-.263c-15.089-5.956-27.216-16.799-33.974-30.265-4.795 18.001-14.598 34.75-28.094 49.374-12.44 13.48-27.572 24.55-41.891 31.189-5.097 2.295-10.36 4.294-15.76 6.001.08 3.683.456 6.802 1.457 10.27 1.631 5.652 4.593 10.206 9.251 13.374 2.869 1.954 5.567 4.114 8.395 6.684l.239.11c1.045.493 1.833 1.309 2.302 2.272l3.003 2.98 2.62 2.709.177.184.266.277.177.184 2.949 3.08.018.019-.018-.019.421.436c2.096 2.166 3.672 3.72 5.192 5.092 2.761 2.493 5.133 4.175 7.379 5.191 12.45 5.643 21.451 11.102 28.339 16.903 1.688 1.421 3.068 2.657 4.378 3.95l.237.236c2.565 2.562 4.911 5.403 8.841 10.377 3.673 4.649 5.872 7.082 9.07 9.756a50.23 50.23 0 0 0 3.967 2.99c10.733 7.304 22.554 11.853 36.734 14.523 11.395 2.145 22.398 2.98 43.106 3.692 34.386 1.177 68.593-5.241 96.475-18.823 30.96-15.082 52.955-38.239 63.23-68.778l.048-.142.056-.138c14.815-36.455 11.863-80.326-9.768-115.91-3.671 8.712-9.104 18.218-15.725 26.31-12.034 14.707-26.834 23.635-44.292 24.288-15.579.583-37.47-10.372-47.589-25.524-6.303-9.451-9.307-17.985-12.106-34.448zm122.964 159.641l-.192.273c-5.543 7.835-12.022 14.994-19.36 21.455 11.168.064 22.864 4.036 35.028 12.778 1.996 1.435 3.882 3.008 5.645 4.683 3.101 2.537 6.896 4.777 10.268 6.123 1.505.601 2.817.977 3.757 1.101l-.042-.006.014-.034c.267-.79.194-2.337-.523-4.876l-.102-.352c-1.059-3.583-2.769-7.284-6.359-14.214-2.062-3.993-4.014-7.146-6.545-10.224a8.39 8.39 0 0 1-.875-1.035c-1.394-1.604-2.968-3.211-4.819-4.929-4.9-4.543-10.461-8.396-15.893-10.743zm-363.762-22.313c-6.226 2.794-11.265 6.185-15.519 10.114a4.84 4.84 0 0 1-1.141 1.085c-3.058 2.991-5.704 6.276-8.103 9.829-1.098 1.623-2.272 3.598-3.388 5.661l-.443.829-.562 1.082-.157.31c-2.377 4.697-4.231 9.368-4.07 11.035.296 3.067.98 4.049 2.152 4.41 1.467.452 3.917.235 7.847-.706l2.245-.561.493-.127.122-.031.504-.129c.353-.09 3.107-.893 6.187-1.786l.247-.072.124-.036.249-.072.125-.036.25-.072.626-.181.733-.212 5.34-1.524 4.368-1.177c6.155-1.607 11.047-2.648 14.662-3.011.695-.59 1.38-1.151 2.053-1.679 8.393-6.598 20.75-13.255 28.37-15.129 5.048-1.24 11.843-2.167 18.215-2.702-.939-.858-1.889-1.77-2.936-2.813l-.325-.325-2.301-2.35-.173-.179.008.008-2.884-3.012-.153-.16-.387-.403-.199-.207-2.509-2.594c-1.392-1.416-2.706-2.708-3.973-3.896-11.525-4.492-34.687-4.112-45.697.821zm374.699 3.238l-.179.392a119.63 119.63 0 0 1-5.435 10.41c6.051 2.841 11.959 7.031 17.196 11.887 2.427 2.253 4.463 4.371 6.256 6.51a6.29 6.29 0 0 0 .274.213c.476.351 1.129.755 1.902 1.172 1.711.921 3.812 1.796 5.876 2.429 2.171.666 4.154 1.02 5.637 1.012.619-.004 1.086-.07 1.371-.167l-.112.033.003-.041a5.08 5.08 0 0 0-.018-.715l-.017-.182c-.122-1.167-.586-2.713-1.36-4.497-1.333-3.075-3.464-6.577-5.463-9.284-3.366-4.548-8.387-9.087-13.479-12.551-2.687-1.827-8.881-5.059-12.454-6.621zm-378.163-32.095c-8.53 2.259-17.594 5.936-23.376 8.949-10.743 5.586-26.413 22.657-23.592 26.943.969 1.474 5.354 1.967 12.152.679 2.671-.506 5.544-1.243 8.564-2.165 1.841-.561 3.62-1.155 5.488-1.814l1.478-.529.192-.069.378-.136c4.978-4.608 10.889-8.599 18.194-11.877 8.606-3.856 22.351-5.427 34.82-4.596-3.141-3.721-5.353-8.114-6.762-12.997a47.9 47.9 0 0 1-.59-2.243l-.071-.042c-5.566-3.358-15.068-3.23-26.875-.103zM114.454 98.057c-39.734 17.79-71.539 50.467-90.615 95.736-12.624 29.952-16.577 51.493-12.673 63.69 3.049 9.524 11.278 13.224 25.344 10.894l-.188.068c9.583-3.482 26.034-11.19 43.084-19.886l7.458-3.783.543-.272c2.121-1.058 3.623-1.78 5-2.402l.171-.077.424-.189.172-.076.373-.163 1.326-.566c5.122-2.147 8.915-3.056 12.341-2.583 4.447.615 7.548 3.525 9.195 8.207 1.302 3.7 1.848 8.778 1.848 15.99 0 24.897 7.158 36.196 21.707 39.303 6.613 1.412 14.916 1.246 25.685-.342l2.323-.35.492-.077.244-.038.485-.077.961-.157.479-.08.963-.165.487-.086c5.217-.924 11.357-2.257 26.364-5.57l18.932-3.955.464-.088.927-.173.463-.086.463-.085.464-.085 5.287-1.019 8.313-1.798.37-.081.469-.103.327-.072.326-.072 8.935-1.928c6.209-1.183 10.199-1.337 13.729-.075 8.052 2.879 10.097 10.712 10.244 30.389a4.87 4.87 0 0 1-4.832 4.9 4.87 4.87 0 0 1-4.905-4.828c-.115-15.377-1.442-20.463-3.788-21.302-1.414-.506-4.025-.404-8.625.472l-.157.031-.389.078-8.029 1.745-.359.079-.18.04-.366.081-.183.04-.972.214-7.991 1.725-5.48 1.056-.599.11-1.198.222c-5.596 1.046-11.309 2.246-19.56 4.068-21.402 4.725-25.018 5.478-33.478 6.725-11.817 1.742-21.186 1.93-29.141.231-19.564-4.177-29.409-19.718-29.409-48.817 0-6.201-.446-10.343-1.298-12.764-.513-1.457-.792-1.719-1.343-1.795-2.224-.307-5.667.939-15.662 5.915l-1.341.67-5.042 2.554c-14.414 7.351-28.365 13.99-38.453 18.132 8.892 44.257 42.132 81.248 89.024 102.392 46.645 21.032 100.162 23.161 141.419 4.583 13.108-6.078 27.203-16.389 38.782-28.937 13.463-14.588 22.881-31.346 26.794-49.192a281.78 281.78 0 0 0 2.58-13.267l.202-1.218c.021-.208.054-.413.101-.613 4.415-27.189 4.237-52.535-.202-75.64a4.82 4.82 0 0 1-.196-.999c-3.686-18.624-10.153-35.78-19.224-51.257-20.421-34.839-53.466-59.753-92.722-71.149-38.608-11.208-80.591-8.52-117.488 7.999zm492.404 129.945l-.101.055c.32 19.49-3.742 47.696-10.05 69.027a4.83 4.83 0 0 1 .388.496c19.873 29.161 27.414 64.285 23.084 97.373 11.533-1.403 30.207-10.85 40.829-22.736 4.642-5.193 6.611-7.914 9.553-14.45a72.54 72.54 0 0 0 .921-2.138c.592-1.434.769-2.233 1.16-5.003-2.138-.852-4.299-2.035-6.881-3.645l-.016-.011-1.427-.896-.255-.159-1.29-.8c-.98-.592-1.756-1.017-2.455-1.338-1.084-.497-1.927-.715-2.654-.715-1.957 0-3.228 1.75-3.454 5.429a4.87 4.87 0 0 1-5.157 4.557c-2.684-.164-4.726-2.471-4.562-5.153.505-8.221 5.109-14.562 13.173-14.562 2.276 0 4.449.563 6.716 1.602 1.084.497 2.164 1.088 3.433 1.855l1.579.978.768.484.757.475c3.552 2.215 5.814 3.271 8.373 3.717a7.32 7.32 0 0 1 .478-.015c.437 0 1.543-.554 2.849-1.704 1.472-1.296 2.897-3.084 3.833-4.773 3.62-6.536 4.936-20.731 2.736-35.875-2.598-17.878-9.532-34.884-20.393-47.745-6.354-7.523-17.885-16.163-29.301-21.436-13.038-6.023-24.547-7.234-32.634-2.893zM446.403 341.796c4.54 15.772 28.676 19.822 45.704 22.667-14.448 4.803-30.831 2.493-44.085-4.56-7.461-3.186-13.936-15.456-1.619-18.107zm150.549-116.09l-.019.177c-1.406 12.738-4.464 26.124-9.532 40.152-6.272 17.345-21.812 37.962-40.604 47.307-6.606 3.284-18.78 6.593-29.906 7.067-12.398.528-23.199-2.198-31.373-8.888 1.897 6.773 4.218 11.694 7.633 16.814 8.222 12.312 26.896 21.657 39.123 21.199 14.33-.536 26.71-8.004 37.118-20.724 7.636-9.333 13.608-20.914 16.642-30.187 6.933-21.182 11.523-51.971 10.959-71.75l-.04-1.166zm-125.189-56.589l.099.579c3.998 23.739 2.44 50.515-8.501 80.798-6.272 17.345-21.812 37.962-40.604 47.307-7.14 3.55-21.878 7.207-34.624 7.312-14.098.116-25.849-3.679-33.863-12.152 2.738 17.239 15.481 31.898 33.144 38.871 19.172 7.568 40.088 4.57 55.332-9.316l.104-.092c15.124-13.009 24.984-30.539 31.026-53.131 4.716-17.635 6.764-35.228 8.515-65.168.824-14.148-3.122-26.038-10.628-35.007zm54.064 4.419l-2.374 1.004-1.179.513c-14.691 6.452-27.726 14.445-29.885 19.81a4.9 4.9 0 0 1-.32.652c.209 2.961.226 6.021.043 9.175l-1.007 15.317c9.479-17.707 24.678-26.639 40.382-22.623 19.354 4.957 27.84 27.913 21.844 52.942l-.191.78c-6.453 25.695-25.736 41.811-43.903 38.237-11.699-2.285-20.647-10.944-24.54-23.147a198.43 198.43 0 0 1-1.414 5.607 162.5 162.5 0 0 1-2.458 8.314c-.304 2.788.396 6.439 1.885 10.434a48.06 48.06 0 0 0 2.07 4.74c.535 1.065 1.05 1.984 1.301 2.372 6.232 9.625 16.761 13.607 30.395 13.027 9.714-.414 20.561-3.362 25.982-6.057 16.248-8.079 30.291-26.711 35.784-41.902 9.639-26.681 11.569-50.748 8.598-72.26-3.287-5.028-7.471-9.609-12.692-13.695-11.24-8.796-33.116-9.534-48.321-3.241zm-117.202-21.593c-12.765 2.272-25.979 11.772-37.247 25.776-9.425 11.715-16.316 25.379-17.695 34.111 3.882 20.33 4.625 42.245 2.044 65.474.055.11.106.222.154.337 5.137 12.437 16.35 17.872 32.172 17.742 11.238-.092 24.525-3.389 30.366-6.293 16.248-8.079 30.291-26.711 35.784-41.902 10.649-29.475 11.875-55.244 7.696-77.927-.363-1.973-.745-3.786-1.18-5.678l-.076-.328-.316-1.342-.047-.201-.384-1.643-.019-.086-.008-.035a4.88 4.88 0 0 1-.113-1c-13.083-7.834-30.924-10.606-51.13-7.007zm85.312 87.694c-5.503 21.267 3.299 37.45 17.174 40.159 12.6 2.479 27.6-10.205 32.75-31.733 4.902-20.459-1.531-37.859-14.79-41.255-14.17-3.624-28.892 8.721-35.134 32.829zm-85.784-61.868c19.354 4.957 27.84 27.913 21.844 52.942l-.191.78c-6.453 25.695-25.736 41.811-43.903 38.237-19.673-3.842-31.566-25.708-24.727-52.141 7.445-28.753 26.794-44.979 46.977-39.817zm-37.55 42.253c-5.503 21.267 3.299 37.45 17.174 40.159 12.6 2.479 27.6-10.205 32.75-31.733 4.902-20.459-1.531-37.859-14.79-41.255-14.17-3.624-28.892 8.721-35.134 32.829zM563.731 9.926c-8.464.453-19.371 2.101-29.694 4.425-19.685 4.431-42.695 15.263-66.287 30.284-18.691 11.901-36.649 25.877-46.254 35.404-13.328 13.209-21.215 24.616-18.884 30.517 1.408 3.574 9.04 6.785 23.024 8.893 12.056 1.818 25.232 2.662 53.962 3.823l31.457 1.379 1.059.057 1.405.078.703.04.353.02.708.041.713.042 4.089.247c.856.053 1.422.119 2.04.298a4.98 4.98 0 0 1 1.356.61c1.288.824 2.293 2.179 2.271 4.186-.019 1.838-.865 3.047-1.972 3.878-.406.304-.775.498-1.164.657-.82.335-1.634.485-3.514.756l-5.035.673-1.082.145-4.191.579c-3.54.522-6.295 1.023-8.25 1.526l-.543.146-.005.001-.002.039c-.765 12.109-2.336 26.282-4.067 36.651l-.05.291.098-.038c2.53-1.025 5.638-2.378 9.203-4.003l.634-.29 11.393-5.386.69-.335.345-.168.689-.336 14.785-7.466c35.054-18.485 62.01-47.274 59.801-63.936-1.829-13.772-14.251-20.111-35.635-20.761-7.812-.237-15.936.294-25.55 1.431l-10.368 1.29c-1.514.17-2.589.257-3.451.262-.705.004-1.308-.041-1.943-.193a5.26 5.26 0 0 1-1.937-.881c-1.177-.857-1.998-2.21-2.07-3.817-.073-1.501.351-2.418 1.062-3.422.272-.383.586-.751.966-1.151.515-.543 1.191-1.182 2.054-1.953l.265-.235c1.508-1.334 3.545-3.042 6.503-5.464l.871-.712 4.648-3.779.274-.222.137-.111.274-.222.113-.092.225-.183 4.573-3.714 11.687-9.636 6.058-5.151c8.215-7.091 14.523-13.025 18.77-17.782 2.275-2.548 3.884-4.684 4.759-6.294l.111-.209.049-.1-.141-.039c-.337-.091-.724-.177-1.158-.256l-.334-.057c-2.559-.417-6.181-.512-10.594-.276z"
          fill="black"/>
  </g>
</svg>
