<?xml version="1.0" encoding="UTF-8"?>
<!--
  - The MIT License (MIT)
  -
  - Copyright (c) 2015-2024 Elior "Mallowigi" Boukhobza
  -
  - Permission is hereby granted, free of charge, to any person obtaining a copy
  - of this software and associated documentation files (the "Software"), to deal
  - in the Software without restriction, including without limitation the rights
  - to use, copy, modify, merge, publish, distribute, sublicense, and/or sell
  - copies of the Software, and to permit persons to whom the Software is
  - furnished to do so, subject to the following conditions:
  -
  - The above copyright notice and this permission notice shall be included in all
  - copies or substantial portions of the Software.
  -
  - THE SOFTWARE IS PROVIDED "AS IS", WITHOUT WARRANTY OF ANY KIND, EXPRESS OR
  - IMPLIED, INCLUDING BUT NOT LIMITED TO THE WARRANTIES OF MERCHANTABILITY,
  - FITNESS FOR A PARTICULAR PURPOSE AND NONINFRINGEMENT. IN NO EVENT SHALL THE
  - AUTHORS OR COPYRIGHT HOLDERS BE LIABLE FOR ANY CLAIM, DAMAGES OR OTHER
  - LIABILITY, WHETHER IN AN ACTION OF CONTRACT, TORT OR OTHERWISE, ARISING FROM,
  - OUT OF OR IN CONNECTION WITH THE SOFTWARE OR THE USE OR OTHER DEALINGS IN THE
  - SOFTWARE.
  -
  -->

<svg width="16px" height="16px" version="1.1" xmlns="http://www.w3.org/2000/svg" viewBox="0 0 16 16">
  <g fill="#C62828" data-iconColor="Scons">
    <rect x="1" y="12.252" width="6.612" height="2.515"/>
    <rect x="8.519" y="0.295" transform="matrix(0.4462 -0.8949 0.8949 0.4462 2.1917 10.7438)" width="2.515"
          height="6.612"/>
    <rect x="8.388" y="12.252" width="6.612" height="2.515"/>
    <rect x="1" y="9.229" width="3.676" height="2.515"/>
    <rect x="11.324" y="9.229" width="3.676" height="2.515"/>
    <path d="M8.55,8.846V6.951c0-0.562,0.203-0.878,0.381-1.159C8.99,5.7,9.042,5.618,9.081,5.542L8.105,5.034
		C8.079,5.084,8.043,5.139,8.004,5.2C7.797,5.525,7.45,6.068,7.45,6.951v1.895H6.576l1.431,2.898l1.418-2.898H8.55z"/>
  </g>
</svg>
