<!--
  - The MIT License (MIT)
  -
  - Copyright (c) 2015-2024 Elior "Mallowigi" Boukhobza
  -
  - Permission is hereby granted, free of charge, to any person obtaining a copy
  - of this software and associated documentation files (the "Software"), to deal
  - in the Software without restriction, including without limitation the rights
  - to use, copy, modify, merge, publish, distribute, sublicense, and/or sell
  - copies of the Software, and to permit persons to whom the Software is
  - furnished to do so, subject to the following conditions:
  -
  - The above copyright notice and this permission notice shall be included in all
  - copies or substantial portions of the Software.
  -
  - THE SOFTWARE IS PROVIDED "AS IS", WITHOUT WARRANTY OF ANY KIND, EXPRESS OR
  - IMPLIED, INCLUDING BUT NOT LIMITED TO THE WARRANTIES OF MERCHANTABILITY,
  - FITNESS FOR A PARTICULAR PURPOSE AND NONINFRINGEMENT. IN NO EVENT SHALL THE
  - AUTHORS OR COPYRIGHT HOLDERS BE LIABLE FOR ANY CLAIM, DAMAGES OR OTHER
  - LIABILITY, WHETHER IN AN ACTION OF CONTRACT, TORT OR OTHERWISE, ARISING FROM,
  - OUT OF OR IN CONNECTION WITH THE SOFTWARE OR THE USE OR OTHER DEALINGS IN THE
  - SOFTWARE.
  -
  -->

<svg width="16px" height="16px" version="1.1" viewBox="0 0 32 32" xmlns="http://www.w3.org/2000/svg" >
  <path data-iconColor="Screwdriver"
        d="m12 2a10 10 0 0 0-10 10 10 10 0 0 0 8.1855 9.8145 10 10 0 0 0 9.8145 8.1855 10 10 0 0 0 10-10 10 10 0 0 0-8.1699-9.8301 10 10 0 0 0-9.8301-8.1699zm0 4a6 6 0 0 1 5.6543 4h-7.6543v7.6523a6 6 0 0 1-4-5.6523 6 6 0 0 1 6-6zm2 8h3.6543 0.3457v0.34766 3.6523h-3.6523-0.34766v-4zm8 0.3457a6 6 0 0 1 4 5.6543 6 6 0 0 1-6 6 6 6 0 0 1-5.6523-4h7.6523v-7.6543z"
        fill="#0288d1"/>
</svg>
