<svg width="16px" height="16px" data-big="true" version="1.1" viewBox="0 0 16 16" xmlns="http://www.w3.org/2000/svg">
 <path d="m10.213 14.498a1.5059 1.5016 0 0 1-1.5059 1.5016 1.5059 1.5016 0 0 1-1.5059-1.5016 1.5059 1.5016 0 0 1 1.5059-1.5016 1.5059 1.5016 0 0 1 1.5059 1.5016zm2.9415-12.997a1.5059 1.5016 0 0 1-1.5059 1.5016 1.5059 1.5016 0 0 1-1.5059-1.5016 1.5059 1.5016 0 0 1 1.5059-1.5016 1.5059 1.5016 0 0 1 1.5059 1.5016zm-5.6757 10.512c-2.5548 0-4.6333-2.0728-4.6333-4.6204 0-2.5476 2.0786-4.6204 4.6333-4.6204 2.5548 0 4.6333 2.0728 4.6333 4.6204 0 2.5476-2.0786 4.6204-4.6333 4.6204zm0-6.9304c-1.2774 0-2.3165 1.0362-2.3165 2.31 0 1.2738 1.0391 2.31 2.3165 2.31 1.2774 0 2.3165-1.0362 2.3165-2.31 0-1.2738-1.0391-2.31-2.3165-2.31z" fill="#310ca3" stroke-width=".24318" data-iconColor="Tikui"/>
</svg>
