<!--
  - The MIT License (MIT)
  -
  - Copyright (c) 2015-2024 Elior "Mallowigi" Boukhobza
  -
  - Permission is hereby granted, free of charge, to any person obtaining a copy
  - of this software and associated documentation files (the "Software"), to deal
  - in the Software without restriction, including without limitation the rights
  - to use, copy, modify, merge, publish, distribute, sublicense, and/or sell
  - copies of the Software, and to permit persons to whom the Software is
  - furnished to do so, subject to the following conditions:
  -
  - The above copyright notice and this permission notice shall be included in all
  - copies or substantial portions of the Software.
  -
  - THE SOFTWARE IS PROVIDED "AS IS", WITHOUT WARRANTY OF ANY KIND, EXPRESS OR
  - IMPLIED, INCLUDING BUT NOT LIMITED TO THE WARRANTIES OF MERCHANTABILITY,
  - FITNESS FOR A PARTICULAR PURPOSE AND NONINFRINGEMENT. IN NO EVENT SHALL THE
  - AUTHORS OR COPYRIGHT HOLDERS BE LIABLE FOR ANY CLAIM, DAMAGES OR OTHER
  - LIABILITY, WHETHER IN AN ACTION OF CONTRACT, TORT OR OTHERWISE, ARISING FROM,
  - OUT OF OR IN CONNECTION WITH THE SOFTWARE OR THE USE OR OTHER DEALINGS IN THE
  - SOFTWARE.
  -
  -->

<svg width="16px" height="16px"  version="1.1" viewBox="0 0 16 16" xmlns="http://www.w3.org/2000/svg">
  <path
      d="m10.213 14.498a1.5059 1.5016 0 0 1-1.5059 1.5016 1.5059 1.5016 0 0 1-1.5059-1.5016 1.5059 1.5016 0 0 1 1.5059-1.5016 1.5059 1.5016 0 0 1 1.5059 1.5016zm2.9415-12.997a1.5059 1.5016 0 0 1-1.5059 1.5016 1.5059 1.5016 0 0 1-1.5059-1.5016 1.5059 1.5016 0 0 1 1.5059-1.5016 1.5059 1.5016 0 0 1 1.5059 1.5016zm-5.6757 10.512c-2.5548 0-4.6333-2.0728-4.6333-4.6204 0-2.5476 2.0786-4.6204 4.6333-4.6204 2.5548 0 4.6333 2.0728 4.6333 4.6204 0 2.5476-2.0786 4.6204-4.6333 4.6204zm0-6.9304c-1.2774 0-2.3165 1.0362-2.3165 2.31 0 1.2738 1.0391 2.31 2.3165 2.31 1.2774 0 2.3165-1.0362 2.3165-2.31 0-1.2738-1.0391-2.31-2.3165-2.31z"
      fill="#3D5AFE" stroke-width=".24318" data-iconColor="Tikui"/>
</svg>
