<!--
  - The MIT License (MIT)
  -
  - Copyright (c) 2015-2026 Elior "Mallowigi" Boukhobza
  -
  - Permission is hereby granted, free of charge, to any person obtaining a copy
  - of this software and associated documentation files (the "Software"), to deal
  - in the Software without restriction, including without limitation the rights
  - to use, copy, modify, merge, publish, distribute, sublicense, and/or sell
  - copies of the Software, and to permit persons to whom the Software is
  - furnished to do so, subject to the following conditions:
  -
  - The above copyright notice and this permission notice shall be included in all
  - copies or substantial portions of the Software.
  -
  - THE SOFTWARE IS PROVIDED "AS IS", WITHOUT WARRANTY OF ANY KIND, EXPRESS OR
  - IMPLIED, INCLUDING BUT NOT LIMITED TO THE WARRANTIES OF MERCHANTABILITY,
  - FITNESS FOR A PARTICULAR PURPOSE AND NONINFRINGEMENT. IN NO EVENT SHALL THE
  - AUTHORS OR COPYRIGHT HOLDERS BE LIABLE FOR ANY CLAIM, DAMAGES OR OTHER
  - LIABILITY, WHETHER IN AN ACTION OF CONTRACT, TORT OR OTHERWISE, ARISING FROM,
  - OUT OF OR IN CONNECTION WITH THE SOFTWARE OR THE USE OR OTHER DEALINGS IN THE
  - SOFTWARE.
  -
  -->

<svg viewBox="0 0 32 32" xmlns="http://www.w3.org/2000/svg" xml:space="preserve" width="16px" height="16px">
  <g fill="#9e9e9e" data-iconColor="TSDown">
  <path d="m17.076 7.789 7.524 2.793-8.54 3.924-7.524-2.793z"
        transform="rotate(-30 11.828 21.163)scale(1.15106 1.79056)"/>
    <path d="m16.506 8.114 7.635 2.942-7.488 2.779-7.634-2.942z"
          transform="rotate(30 43.055 9.992)scale(1.15661 1.79918)"/>
    <path d="m16.667 8.134 9.51 2.779-7.604 2.911-9.687-2.911z"
          transform="matrix(0 1.15661 -1.79918 0 29.633 -8.277)"/>
    <path d="m16.664 19 1.93-.004 4.502 7.718h-1.93z"
          transform="translate(-8.912 -13.538)scale(1.55488)"/>
    <path d="M16.021 20.282 16.664 19l4.502 7.714L20.523 28z"
          transform="translate(-8.912 -13.538)scale(1.55488)"/>
    <path d="M22.453 28h-1.93l.643-1.286h1.93z"
          transform="translate(-8.912 -13.538)scale(1.55488)"/>
  </g>
</svg>