<!--
  - The MIT License (MIT)
  -
  - Copyright (c) 2015-2025 Elior "Mallowigi" Boukhobza
  -
  - Permission is hereby granted, free of charge, to any person obtaining a copy
  - of this software and associated documentation files (the "Software"), to deal
  - in the Software without restriction, including without limitation the rights
  - to use, copy, modify, merge, publish, distribute, sublicense, and/or sell
  - copies of the Software, and to permit persons to whom the Software is
  - furnished to do so, subject to the following conditions:
  -
  - The above copyright notice and this permission notice shall be included in all
  - copies or substantial portions of the Software.
  -
  - THE SOFTWARE IS PROVIDED "AS IS", WITHOUT WARRANTY OF ANY KIND, EXPRESS OR
  - IMPLIED, INCLUDING BUT NOT LIMITED TO THE WARRANTIES OF MERCHANTABILITY,
  - FITNESS FOR A PARTICULAR PURPOSE AND NONINFRINGEMENT. IN NO EVENT SHALL THE
  - AUTHORS OR COPYRIGHT HOLDERS BE LIABLE FOR ANY CLAIM, DAMAGES OR OTHER
  - LIABILITY, WHETHER IN AN ACTION OF CONTRACT, TORT OR OTHERWISE, ARISING FROM,
  - OUT OF OR IN CONNECTION WITH THE SOFTWARE OR THE USE OR OTHER DEALINGS IN THE
  - SOFTWARE.
  -
  -->

<svg xmlns="http://www.w3.org/2000/svg" viewBox="0 0 32 32" width="16px" height="16px" fill="#ffab40"
     data-iconColor="Wrangler">
    <path
        d="M22,20H10.5a.5.5,0,0,1-.5-.5v-1a.5.5,0,0,1,.5-.5H22V11.55145A5.94745,5.94745,0,0,0,18,10H16a5.97822,5.97822,0,0,0-4.4632,2H10a4,4,0,0,0-4,4,4,4,0,0,0-4,4v1.5a.5.5,0,0,0,.5.5H22Z"
    />
    <path d="M24,14v4h1.5a.5.5,0,0,1,.5.5v1a.5.5,0,0,1-.5.5H24v2h5.5a.5.5,0,0,0,.5-.5V20A6,6,0,0,0,24,14Z"/>
</svg>
