<!--
  - The MIT License (MIT)
  -
  - Copyright (c) 2015-2025 Elior "Mallowigi" Boukhobza
  -
  - Permission is hereby granted, free of charge, to any person obtaining a copy
  - of this software and associated documentation files (the "Software"), to deal
  - in the Software without restriction, including without limitation the rights
  - to use, copy, modify, merge, publish, distribute, sublicense, and/or sell
  - copies of the Software, and to permit persons to whom the Software is
  - furnished to do so, subject to the following conditions:
  -
  - The above copyright notice and this permission notice shall be included in all
  - copies or substantial portions of the Software.
  -
  - THE SOFTWARE IS PROVIDED "AS IS", WITHOUT WARRANTY OF ANY KIND, EXPRESS OR
  - IMPLIED, INCLUDING BUT NOT LIMITED TO THE WARRANTIES OF MERCHANTABILITY,
  - FITNESS FOR A PARTICULAR PURPOSE AND NONINFRINGEMENT. IN NO EVENT SHALL THE
  - AUTHORS OR COPYRIGHT HOLDERS BE LIABLE FOR ANY CLAIM, DAMAGES OR OTHER
  - LIABILITY, WHETHER IN AN ACTION OF CONTRACT, TORT OR OTHERWISE, ARISING FROM,
  - OUT OF OR IN CONNECTION WITH THE SOFTWARE OR THE USE OR OTHER DEALINGS IN THE
  - SOFTWARE.
  -->

<svg data-big="true" width="16px" height="16px" version="1.1" viewBox="0 0 16 16" xmlns="http://www.w3.org/2000/svg">
    <path data-iconColor="WXT"
          d="m14 8.9c0.11651 1.1361-0.85361 2.0429-2 2.1v2c0 0.66274-0.33726 1-1 1h-3v-1c0-1.5206-2-1.3401-2 0v1h-3c-0.66274 0-1-0.33726-1-1v-3h1s1-0.1 1-1-1-1-1-1h-1v-3c0-0.66274 0.33726-1 1-1h2c0.025055-1.0596 0.88505-1.9948 2-2 1.1225-0.0052428 1.9962 0.92994 2 2h2c0.66274 0 1 0.33726 1 1v2c1.0819 0.06659 2.1166 0.79823 2 2m-3 1h1c0.49706 0 1-0.50294 1-1 0-0.49706-0.50294-1-1-1h-1v-3h-3v-1c0-0.49706-0.50294-1-1-1-0.49706 0-1 0.50294-1 1v1h-3v2c1.148 0.3411 1.9798 0.74363 2 2 0.019712 1.2256-0.70707 1.6659-2 2v2h2c0.15626-1.4524 1.0546-1.9475 2-2 0.9998-0.05553 2.098 0.69534 2 2h2z"
          fill="#00c853" stroke-width=".6"/>
</svg>
